<?xml version="1.0" encoding="utf-8"?>
<!-- Generator: Adobe Illustrator 27.5.0, SVG Export Plug-In . SVG Version: 6.00 Build 0)  -->
<svg version="1.1" id="Layer_1" xmlns="http://www.w3.org/2000/svg" xmlns:xlink="http://www.w3.org/1999/xlink" x="0px" y="0px"
	 viewBox="0 0 4000 9000" style="enable-background:new 0 0 4000 9000;" xml:space="preserve">
<g>
	<rect style="fill-rule:evenodd;clip-rule:evenodd;fill:none;" width="4000" height="9000"/>
	<g>
		<defs>
			<path id="SVGID_1_" d="M2033.264,2600.559c-3.415,0.273-6.941,0.453-10.367,0.715c7.512,1.8,15.505,4.036,22.922,5.75
				c3.034,0.125,5.861,0.078,8.878,0.183C2047.504,2604.945,2040.451,2602.815,2033.264,2600.559 M1911.936,2586.715
				c-3.431,0.56-6.74,1.209-10.193,1.749c8.497,1.619,16.748,3.034,25.251,4.66c2.944-0.085,5.995-0.085,8.928-0.182
				C1927.99,2590.927,1920.092,2588.933,1911.936,2586.715z M1962.258,2578.072c-6.174,1.168-12.639,2.124-18.88,3.244
				c12.802,3.358,25.144,6.303,37.733,9.468c5.732-0.307,11.195-0.831,16.882-1.171
				C1986.266,2585.936,1974.338,2582.074,1962.258,2578.072z M628.567,5172.053l-7.848-19.211
				c-6.633-11.187-13.317-22.422-19.883-33.554l7.014,16.09C614.752,5147.603,621.581,5159.763,628.567,5172.053z
				 M1749.512,2591.824l-1.551,0.371c1.64,0.072,3.213,0.085,4.792,0.111L1749.512,2591.824z M1797.976,2580.275
				c-4.763,1.222-9.756,2.281-14.559,3.472c8.604,1.168,17.403,2.501,25.849,3.535c4.422-0.481,8.676-1.08,13.07-1.587
				C1814.164,2583.842,1806.075,2582.068,1797.976,2580.275z M1844.766,2567.433c-6.471,1.857-12.796,3.841-19.356,5.634
				c11.772,2.51,24.159,5.557,35.746,7.902c7.098-0.949,14.559-1.623,21.567-2.638
				C1870.016,2574.654,1857.427,2571.078,1844.766,2567.433z M1891.718,2553.777c-7.657,2.42-15.774,4.517-23.549,6.852
				c14.548,4.094,29.622,8.661,44.019,12.628c8.066-1.346,16.054-2.75,24.053-4.148
				C1921.396,2563.994,1906.613,2558.938,1891.718,2553.777z M709.189,5312.352c-4.31-11.023-8.547-21.987-12.79-32.951
				c-10.294-17.06-20.426-33.979-30.579-50.916c4.4,10.581,8.755,21.124,13.221,31.762
				C688.993,5277.541,699.074,5294.926,709.189,5312.352z M749.222,5413.043l-8.391-20.805l-20.431-34.926l7.926,18.405
				L749.222,5413.043z M788.226,5508.541l-0.381-0.902l-2.155-3.802L788.226,5508.541z M1592.461,2600.637
				c5.206-1.644,10.322-3.361,15.483-5.038c-8.536-0.84-17.269-1.846-25.81-2.684 M1641.205,2598.487l-2.133,0.687l8.587-0.266
				C1645.504,2598.767,1643.393,2598.66,1641.205,2598.487z M1686.187,2582.375c-4.562,1.682-8.99,3.456-13.591,5.112
				c9.135,0.645,18.119,1.159,27.232,1.781c4.702-0.96,9.673-1.742,14.33-2.723
				C1704.866,2585.174,1695.719,2583.948,1686.187,2582.375z M1731.258,2565.438c-6.544,2.597-13.434,4.992-20.062,7.539
				c12.639,1.994,24.959,3.71,37.453,5.582c6.74-1.56,13.406-3.177,20.078-4.789
				C1756.324,2571.071,1744.071,2568.499,1731.258,2565.438z M1774.567,2547.252c-7.406,3.192-14.694,6.454-22.217,9.568
				c15.337,3.581,30.232,6.766,45.245,10.06c7.893-2.033,15.684-4.134,23.443-6.258
				C1805.695,2556.299,1790.492,2552.108,1774.567,2547.252z M1818.485,2528.339c-8.144,3.75-16.832,7.162-25.127,10.822
				c17.386,5.218,34.167,9.887,51.061,14.649c8.57-2.481,17.213-4.917,25.676-7.48
				C1853.072,2540.507,1836.101,2534.722,1818.485,2528.339z M830.146,5555.627c-4.579-11.86-9.113-23.689-13.624-35.491
				c-10.333-17.32-20.599-34.568-30.792-51.767c4.646,11.335,9.275,22.644,13.983,34.036
				C809.76,5520.065,819.953,5537.841,830.146,5555.627z M870.801,5659.361l-9.314-23.501c-6.986-12.062-14.05-24.19-20.963-36.193
				l8.659,20.451C856.388,5633.194,863.524,5646.213,870.801,5659.361z M910.258,5757.523l-1.248-3.075l-7.607-13.543l0.095,0.216
				L910.258,5757.523z M774.389,5408.013l-0.509-1.384c-12.818-20.89-25.609-41.745-38.215-62.464
				c5.586,14.129,11.206,28.279,16.899,42.498c12.41,21.16,24.971,42.446,37.604,63.797
				C784.856,5436.277,779.595,5422.116,774.389,5408.013z M1539.363,2613.758l-5.995,2.919c4.159-0.528,8.083-1.222,12.225-1.76
				c1.265-0.372,2.586-0.697,3.846-1.066C1546.113,2613.844,1542.693,2613.765,1539.363,2613.758z M1582.134,2592.916
				c-5.458,2.762-11.161,5.395-16.675,8.132 M1623.466,2571.099c-6.773,3.638-13.406,7.355-20.274,10.943
				c12.152,1.124,24.456,2.374,36.35,3.283c7.075-2.425,14.173-4.831,21.153-7.311
				C1648.37,2575.776,1635.809,2573.34,1623.466,2571.099z M1665.106,2548.612c-7.646,4.328-15.724,8.422-23.487,12.686
				c14.296,2.54,28.945,5.388,42.995,7.715c8.122-3.024,16.278-6.031,24.282-9.133
				C1694.365,2556.183,1679.649,2552.315,1665.106,2548.612z M1704.939,2524.96c-7.988,4.796-15.919,9.625-24.042,14.344
				c16.311,4.102,33.16,8.678,49.247,12.582c8.648-3.464,16.944-7.141,25.413-10.717
				C1738.731,2535.806,1721.782,2530.336,1704.939,2524.96z M1744.984,2500.7c-8.245,5.218-16.798,10.281-25.211,15.414
				c17.851,5.649,36.216,11.758,53.893,17.25c9.018-3.906,18.237-7.69,27.115-11.686
				C1782.28,2514.771,1763.584,2507.693,1744.984,2500.7z M872.363,5588.116c-6.258-17.506-12.595-35.074-18.713-52.467
				c-15.024-24.103-29.891-48.086-44.635-71.958c6.376,16.937,12.79,33.913,19.306,50.973
				C842.87,5539.035,857.541,5563.51,872.363,5588.116z M911.742,5696.615c-5.726-15.533-11.408-31.021-17.022-46.462
				c-13.109-21.617-26.107-43.129-39.009-64.563c5.849,14.985,11.738,30.013,17.694,45.09
				C886.083,5652.57,898.839,5674.538,911.742,5696.615z M952.167,5804.786c-4.831-12.737-9.533-25.367-14.291-38.045
				c-10.753-18.269-21.355-36.396-31.956-54.536c4.959,12.33,9.958,24.684,14.996,37.071
				C931.249,5767.715,941.678,5786.218,952.167,5804.786z M993.069,5911.295l-9.98-25.875l-22.474-39.52l9.997,24.033
				C978.051,5883.681,985.551,5897.479,993.069,5911.295z M1033.187,6013.41l-2.765-6.928l-9.376-17.033l1.556,3.638
				L1033.187,6013.41z M1443.499,2639.189c-2.177,1.425-4.456,2.802-6.644,4.219c3.851-0.917,7.792-1.774,11.626-2.711l5.978-2.62
				C1450.781,2638.428,1447.204,2638.859,1443.499,2639.189z M1482.24,2613.233c-5.155,3.501-10.188,7.064-15.393,10.54
				c8.839-0.876,17.621-1.794,26.443-2.69c5.603-2.554,11.385-5.013,16.933-7.599
				C1500.907,2613.408,1491.716,2613.439,1482.24,2613.233z M1521.154,2586.585c-6.616,4.68-13.546,9.23-20.252,13.871
				c11.901,0.182,23.594,0.2,35.41,0.323c7.148-3.444,14.279-6.907,21.343-10.405
				C1545.548,2589.16,1533.541,2588.036,1521.154,2586.585z M1558.736,2559.074c-7.266,5.362-14.408,10.782-21.775,16.093
				c14.43,1.625,28.57,2.996,42.782,4.439c7.904-4.029,15.539-8.195,23.319-12.296
				C1588.386,2564.652,1573.816,2562.077,1558.736,2559.074z M1596.57,2530.986c-7.702,5.919-15.757,11.698-23.594,17.566
				c16.328,3.199,32.248,6.058,48.234,8.956c8.435-4.556,17.011-9.042,25.312-13.675
				C1630.004,2539.667,1613.592,2535.594,1596.57,2530.986z M1633.021,2501.94c-7.881,6.331-15.751,12.669-23.773,18.939
				c18.282,4.906,36.031,9.352,53.854,13.85c8.609-4.92,16.821-10.06,25.256-15.073
				C1670.055,2513.885,1651.918,2508.257,1633.021,2501.94z M1669.444,2472.298c-7.982,6.695-16.104,13.315-24.249,19.94
				c19.737,6.558,38.813,12.516,57.991,18.569c8.788-5.309,17.907-10.452,26.544-15.845
				C1709.786,2487.544,1690.066,2480.35,1669.444,2472.298z M955.369,5724.787c-6.728-19.703-13.322-39.313-19.894-58.9
				c-16.703-26.406-33.278-52.701-49.673-78.849c6.891,19.218,13.764,38.43,20.801,57.764
				C922.696,5671.325,938.957,5697.999,955.369,5724.787z M994.065,5836.365c-6.532-18.56-13.048-37.114-19.457-55.581
				c-15.164-24.617-30.199-49.127-45.094-73.524c6.695,18.055,13.518,36.221,20.336,54.372
				C964.454,5786.433,979.187,5811.33,994.065,5836.365z M1033.813,5947.971c-6.006-16.619-11.923-33.159-17.811-49.687
				c-13.261-22.162-26.465-44.274-39.513-66.258c6.141,16.065,12.354,32.19,18.59,48.341
				C1007.874,5902.794,1020.805,5925.345,1033.813,5947.971z M1074.732,6059.891c-5.172-13.993-10.294-27.946-15.41-41.887
				c-10.915-18.841-21.769-37.631-32.544-56.342c5.167,13.163,10.26,26.264,15.5,39.498
				C1053.019,6020.669,1063.833,6040.238,1074.732,6059.891z M1116.014,6170.417l-11.441-30.344
				c-8.01-14.312-15.964-28.572-23.885-42.809c3.773,9.363,7.646,18.822,11.453,28.199
				C1100.061,6140.418,1108.004,6155.384,1116.014,6170.417z M1156.025,6275.716l-4.271-11.172l-11.492-21.394l3.594,8.714
				L1156.025,6275.716z M1352.846,2675.957c-2.273,1.973-4.478,3.976-6.762,5.945c4.137-1.545,8.066-3.21,12.186-4.769
				c2.144-1.289,4.377-2.529,6.521-3.815L1352.846,2675.957z M1388.755,2644.396c-5.155,4.621-10.501,9.19-15.701,13.798
				c2.066-0.449,4.075-0.924,6.146-1.36c6.594-1.395,12.863-3,19.317-4.495c5.458-3.419,10.859-6.872,16.266-10.309
				C1406.068,2642.79,1397.386,2643.576,1388.755,2644.396z M1423.723,2612.271c-6.331,5.869-12.522,11.783-18.937,17.627
				c5.491-0.489,10.876-1.034,16.418-1.49c6.129-0.5,11.99-1.202,17.951-1.825c6.891-4.499,13.686-9.04,20.465-13.59
				C1447.546,2612.674,1435.618,2612.458,1423.723,2612.271z M1458.786,2579.638c-7.003,6.695-14.33,13.29-21.439,19.954
				c8.559,0.167,17.017,0.266,25.682,0.514c5.195,0.141,10.16,0.109,15.197,0.134c7.68-5.239,15.399-10.47,22.995-15.746
				C1486.93,2582.757,1472.841,2581.185,1458.786,2579.638z M1492.729,2546.285c-7.316,7.212-14.531,14.467-21.965,21.647
				c11.313,1.269,22.553,2.491,34.033,3.893c4.428,0.54,8.665,0.925,12.958,1.346c8.027-5.707,15.712-11.569,23.538-17.365
				C1524.943,2552.505,1508.783,2549.364,1492.729,2546.285z M1526.751,2512.451c-7.506,7.642-15.231,15.225-22.86,22.831
				c14.111,2.722,28.201,5.427,42.542,8.339c3.101,0.63,6.068,1.138,9.074,1.682c8.312-6.174,16.737-12.291,25.01-18.483
				C1562.425,2521.892,1544.524,2517.116,1526.751,2512.451z M1559.911,2477.862c-7.601,7.981-15.203,15.961-22.933,23.916
				c16.905,4.46,33.837,8.938,51.044,13.643c1.87,0.513,3.644,0.935,5.458,1.402c8.402-6.511,16.552-13.121,24.747-19.717
				C1598.619,2490.547,1579.184,2484.133,1559.911,2477.862z M1592.775,2442.767c-7.579,8.253-15.181,16.495-22.916,24.709
				c19.72,6.433,39.603,13.005,59.67,19.745l0.784,0.252c8.441-6.837,17.061-13.596,25.357-20.493
				C1634.527,2458.755,1613.558,2450.675,1592.775,2442.767z M1039.506,5861.077c-7.031-21.566-13.966-43.065-20.823-64.512
				c-18.186-28.357-36.188-56.562-54.033-84.632c7.154,21.052,14.458,42.211,21.808,63.413
				C1003.962,5803.773,1021.65,5832.35,1039.506,5861.077z M1077.279,5975.188c-6.947-20.745-13.826-41.444-20.666-62.111
				c-16.905-27.064-33.641-53.983-50.238-80.785c7.098,20.167,14.235,40.358,21.467,60.635
				C1044.169,5920.211,1060.643,5947.63,1077.279,5975.188z M1116.198,6090.034c-6.717-19.576-13.356-39.085-19.955-58.569
				c-15.488-25.517-30.809-50.89-46.04-76.17c6.902,19.049,13.949,38.22,20.963,57.368
				C1086.044,6038.335,1101.046,6064.125,1116.198,6090.034z M1156.383,6205.851c-6.264-17.879-12.505-35.746-18.69-53.566
				c-13.636-23.184-27.115-46.236-40.543-69.229c6.353,17.125,12.718,34.256,19.166,51.468
				C1129.565,6158.206,1142.91,6181.971,1156.383,6205.851z M1197.111,6321.257c-5.446-15.299-10.831-30.553-16.227-45.793
				c-11.503-20.245-22.872-40.373-34.218-60.483c5.581,14.684,11.251,29.438,16.877,44.164
				C1174.648,6279.772,1185.849,6300.484,1197.111,6321.257z M1237.912,6434.998l-12.555-34.797
				c-8.581-15.7-17.089-31.343-25.587-46.969c4.131,10.678,8.223,21.318,12.387,32.035
				C1220.677,6401.788,1229.303,6418.393,1237.912,6434.998z M1277.442,6544.022l-6.146-16.905l-14.257-27.302l5.53,14.018
				L1277.442,6544.022z M1268.077,2726.5l-6.258,7.175c2.838-1.683,5.732-3.347,8.559-5.038c2.502-2.047,4.937-4.106,7.428-6.153
				L1268.077,2726.5z M1300.599,2688.277c-4.607,5.473-9.096,10.946-13.736,16.412c7.557-3.021,15.371-5.908,23.062-8.86
				c5.413-4.576,10.927-9.124,16.289-13.719C1317.615,2684.132,1309.04,2686.167,1300.599,2688.277z M1332.438,2650.232
				c-5.861,7.11-11.906,14.208-17.839,21.318c10.647-2.575,21.383-5.097,32.214-7.552c6.695-5.843,13.361-11.693,19.972-17.554
				C1355.192,2647.614,1343.818,2648.921,1332.438,2650.232z M1363.577,2611.803c-6.46,8.02-12.774,16.04-19.317,24.053
				c12.908-1.43,25.956-2.769,39.144-4.016c7.338-6.611,14.453-13.291,21.685-19.934
				C1391.067,2611.743,1377.313,2611.771,1363.577,2611.803z M1394.705,2573.028c-6.784,8.619-13.859,17.224-20.745,25.835
				c14.766,0.006,29.673,0.116,44.764,0.357c7.708-7.173,15.528-14.319,23.118-21.524
				C1425.934,2575.991,1410.3,2574.497,1394.705,2573.028z M1424.965,2533.755c-6.947,9.044-13.837,18.098-20.901,27.14
				c16.552,1.593,33.244,3.283,50.154,5.14c7.859-7.545,15.382-15.181,23.107-22.765
				C1459.665,2539.933,1442.279,2536.815,1424.965,2533.755z M1455.215,2494.109c-7.036,9.366-14.201,18.724-21.349,28.09
				c18.035,3.217,36.211,6.544,54.627,10.062c7.954-7.886,16.143-15.697,23.952-23.614
				C1493.155,2503.63,1474.134,2498.821,1455.215,2494.109z M1484.887,2453.918c-7.075,9.643-14.179,19.296-21.366,28.942
				c19.541,4.885,39.222,9.884,59.166,15.102c7.954-8.156,15.724-16.352,23.526-24.547
				C1525.582,2466.747,1505.139,2460.249,1484.887,2453.918z M1514.246,2413.336c-7.042,9.854-14.039,19.701-21.215,29.552
				c20.834,6.525,41.892,13.252,63.135,20.142c7.926-8.384,15.824-16.78,23.594-25.205
				C1557.723,2429.482,1535.881,2421.307,1514.246,2413.336z M1125.07,5997.781c-7.299-23.391-14.548-46.757-21.69-70.069
				c-19.3-29.708-38.422-59.258-57.358-88.668c7.4,22.799,14.878,45.658,22.446,68.574
				C1087.147,5937.506,1106.028,5967.578,1125.07,5997.781z M1161.863,6114.265c-7.294-22.845-14.531-45.664-21.707-68.438
				c-18.332-28.946-36.496-57.757-54.487-86.418c7.417,22.207,14.906,44.453,22.469,66.765
				C1125.871,6055.381,1143.783,6084.758,1161.863,6114.265z M1199.882,6232.125c-7.193-22.084-14.33-44.143-21.427-66.159
				c-17.201-27.947-34.246-55.771-51.145-83.45c7.355,21.438,14.8,42.965,22.273,64.505
				C1166.19,6175.251,1182.966,6203.623,1199.882,6232.125z M1238.852,6350.912c-6.924-20.953-13.815-41.88-20.672-62.783
				c-15.757-26.417-31.397-52.721-46.891-78.913c7.103,20.245,14.24,40.522,21.427,60.853
				C1207.959,6296.896,1223.341,6323.843,1238.852,6350.912z M1278.46,6470.081c-6.454-19.303-12.863-38.571-19.267-57.824
				c-14.044-24.383-28.005-48.685-41.842-72.875c6.588,18.483,13.21,36.986,19.877,55.549
				C1250.865,6419.876,1264.612,6444.928,1278.46,6470.081z M1318.399,6588.962l-17.129-50.867
				c-11.956-21.566-23.846-43.083-35.645-64.498l17.576,48.34C1294.844,6544.197,1306.594,6566.548,1318.399,6588.962z
				 M1358.002,6706.15l-13.72-40.522c-9.27-17.489-18.545-34.978-27.73-52.371l13.72,37.358
				C1339.479,6669.092,1348.699,6687.577,1358.002,6706.15z M1395.908,6818.014l-7.881-23.25l-17.224-34.23l7.596,20.578
				l17.772,37.695L1395.908,6818.014z M1189.286,2793.968l-4.4,6.928c1.976-1.753,3.885-3.542,5.883-5.29l5.021-5.812
				C1193.641,2791.193,1191.413,2792.557,1189.286,2793.968z M1218.695,2747.728c-4.237,6.706-8.542,13.426-12.807,20.139
				c6.728-4.3,13.272-8.7,20.157-12.94c5.027-5.7,9.958-11.404,14.934-17.11C1233.445,2741.064,1226.095,2744.411,1218.695,2747.728
				z M1247.069,2702.427c-5.279,8.494-10.411,16.944-15.752,25.452c9.527-4.155,19.284-8.184,28.99-12.232
				c6.252-7.259,12.499-14.513,18.679-21.779C1268.273,2696.669,1257.587,2699.503,1247.069,2702.427z M1274.878,2657.472
				c-5.838,9.533-11.817,19.114-17.728,28.668c11.945-3.23,23.98-6.404,36.227-9.457c6.812-8.091,13.613-16.197,20.336-24.293
				C1300.604,2653.982,1287.691,2655.691,1274.878,2657.472z M1302.116,2612.497c-6.174,10.238-12.214,20.439-18.472,30.71
				c13.927-1.867,27.965-3.659,42.211-5.318c7.142-8.682,14.044-17.39,21.075-26.086
				C1331.805,2611.898,1316.91,2612.167,1302.116,2612.497z M1329.247,2567.406c-6.308,10.634-12.852,21.331-19.244,31.99
				c15.623-0.306,31.374-0.521,47.355-0.572c7.305-9.093,14.716-18.184,21.909-27.291
				C1362.385,2569.999,1345.754,2568.663,1329.247,2567.406z M1355.791,2522.036c-6.409,10.964-12.762,21.922-19.256,32.918
				c17.252,1.345,34.654,2.795,52.309,4.432c7.366-9.397,14.486-18.808,21.735-28.213
				C1392.091,2527.956,1373.871,2524.942,1355.791,2522.036z M1382.273,2476.444c-6.426,11.178-12.947,22.389-19.474,33.608
				c18.718,3.028,37.571,6.174,56.698,9.534c7.372-9.632,14.862-19.257,22.116-28.896
				C1421.612,2485.759,1401.853,2481.026,1382.273,2476.444z M1408.38,2430.521c-6.437,11.381-12.902,22.774-19.44,34.193
				c20.146,4.738,40.42,9.593,60.997,14.694c7.361-9.852,14.604-19.703,21.836-29.562
				C1450.429,2443.22,1429.287,2436.766,1408.38,2430.521z M1434.218,2384.37c-6.398,11.53-12.757,23.04-19.272,34.61
				c21.427,6.415,43.101,13.037,64.971,19.833c7.322-10.028,14.526-20.069,21.707-30.104
				C1478.943,2400.403,1456.469,2392.272,1434.218,2384.37z M1398.965,6740.835l-19.58-62.684
				c-14.571-25.963-29.035-51.831-43.398-77.594l20.297,60.072C1370.406,6687.258,1384.624,6713.989,1398.965,6740.835z
				 M1436.899,6862.656l-17.481-56.219c-12.572-23.416-25.06-46.761-37.476-70.02l18.075,53.325
				C1412.231,6813.964,1424.529,6838.266,1436.899,6862.656z M1473.972,6982.573l-14.386-46.669
				c-10.081-19.771-20.09-39.47-30.059-59.117l14.705,43.4C1454.095,6940.927,1464.008,6961.725,1473.972,6982.573z
				 M1509.214,7097.88l-9.717-31.949l-20.325-42.415l9.398,27.876L1509.214,7097.88z M1541.042,7203.486l-2.155-7.194l-6.801-15.253
				l1.013,3.028L1541.042,7203.486z M1211.726,6134.248c-7.473-24.95-14.901-49.879-22.261-74.81
				c-20.246-30.774-40.302-61.398-60.179-91.868c7.529,24.256,15.102,48.524,22.765,72.858
				C1171.76,6071.538,1191.637,6102.805,1211.726,6134.248z M1247.797,6253.606c-7.517-24.677-15.007-49.355-22.446-74.012
				c-19.496-30.409-38.836-60.682-57.974-90.786c7.618,23.948,15.287,47.929,23.028,71.951
				C1209.364,6191.557,1228.48,6222.494,1247.797,6253.606z M1284.78,6374.165c-7.473-24.221-14.923-48.426-22.34-72.622
				c-18.612-29.863-37.056-59.578-55.343-89.156c7.613,23.476,15.292,46.976,23.017,70.523
				C1248.172,6313.184,1266.381,6343.585,1284.78,6374.165z M1322.496,6495.824l-21.853-70.369
				c-17.52-28.998-34.906-57.859-52.125-86.593c7.49,22.668,15.013,45.376,22.581,68.118
				C1288.088,6436.462,1305.2,6466.063,1322.496,6495.824z M1360.683,6618.275l-20.963-67.168
				c-16.205-27.758-32.276-55.4-48.217-82.911l21.73,64.778C1328.922,6561.285,1344.724,6589.709,1360.683,6618.275z
				 M1119.87,2879.365c-0.929,2.101-1.92,4.205-2.844,6.306l1.909-2.509l3.997-6.765L1119.87,2879.365z M1144.645,2824.521
				l-5.15,11.205c-1.791,3.879-3.482,7.772-5.245,11.651c5.178-4.945,10.16-9.968,15.449-14.883
				c4.265-6.868,8.592-13.719,12.902-20.577C1156.624,2816.123,1150.601,2820.308,1144.645,2824.521z M1169.392,2770.635
				l-13.972,30.423c8.083-5.543,16.194-11.069,24.489-16.514c5.821-9.086,11.542-18.145,17.308-27.213
				C1187.786,2761.685,1178.611,2766.17,1169.392,2770.635z M1193.327,2718.168c-5.139,11.323-10.238,22.59-15.432,33.966
				c10.523-4.988,21.215-9.88,31.99-14.73c6.264-9.923,12.51-19.848,18.696-29.753
				C1216.697,2711.077,1204.953,2714.587,1193.327,2718.168z M1216.848,2666.226c-5.407,11.998-10.898,24.081-16.362,36.136
				c12.583-3.797,25.357-7.474,38.237-11.094c6.51-10.472,12.998-20.946,19.423-31.39
				C1244.231,2661.897,1230.417,2663.984,1216.848,2666.226z M1240.005,2614.559c-5.581,12.498-11.061,24.878-16.714,37.448
				c14.447-2.32,29.001-4.562,43.829-6.636c6.639-10.854,13.076-21.643,19.625-32.47
				C1270.988,2613.33,1255.37,2613.857,1240.005,2614.559z M1263.011,2563.001c-5.626,12.687-11.397,25.542-17.089,38.299
				c16.087-0.683,32.298-1.272,48.799-1.664c6.678-11.093,13.445-22.234,20.028-33.294
				C1297.313,2565.08,1280.033,2563.944,1263.011,2563.001z M1285.732,2511.377c-5.693,12.958-11.346,25.861-17.106,38.891
				c17.655,1.014,35.461,2.145,53.569,3.503c6.717-11.339,13.233-22.604,19.843-33.912
				C1323.062,2516.868,1304.265,2514.01,1285.732,2511.377z M1308.368,2459.729c-5.682,13.051-11.441,26.165-17.201,39.293
				c19.093,2.744,38.377,5.635,57.935,8.76c6.683-11.471,13.406-22.956,19.983-34.394
				C1348.631,2468.651,1328.357,2464.071,1308.368,2459.729z M1330.831,2407.93c-5.698,13.181-11.419,26.381-17.19,39.638
				c20.481,4.472,41.181,9.145,62.155,14.027c6.672-11.641,13.244-23.249,19.815-34.857
				C1373.792,2420.273,1352.186,2413.988,1330.831,2407.93z M1353.126,2356.087c-5.687,13.277-11.329,26.497-17.101,39.866
				c21.802,6.187,43.868,12.615,66.152,19.229c6.639-11.769,13.143-23.486,19.664-35.219
				C1398.685,2371.775,1375.796,2363.827,1353.126,2356.087z M1407.585,6641.263l-22.485-76.833
				c-19.032-31.106-37.856-62.042-56.552-92.847l23.146,74.338C1370.16,6577.544,1388.783,6609.324,1407.585,6641.263z
				 M1444.12,6766.664c-7.226-24.919-14.492-49.854-21.769-74.818c-17.963-30.397-35.796-60.682-53.462-90.807l16.854,53.951
				l5.665,18.125C1408.828,6704.156,1426.393,6735.333,1444.12,6766.664z M1480.286,6892.163
				c-6.846-23.937-13.736-47.898-20.655-71.881c-16.681-29.375-33.25-58.642-49.673-87.764l21.528,69.042
				C1447.63,6831.642,1463.885,6861.824,1480.286,6892.163z M1515.696,7017.116c-6.32-22.539-12.667-45.086-19.077-67.655
				c-15.113-27.836-30.109-55.57-45.016-83.198l20.05,64.759C1486.225,6959.599,1500.919,6988.317,1515.696,7017.116z
				 M1549.959,7140.898c-5.603-20.543-11.251-41.094-16.944-61.663c-13.16-25.563-26.247-51.051-39.256-76.443l17.873,58.44
				C1524.333,7087.698,1537.113,7114.253,1549.959,7140.898z M1582.486,7262.005c-4.68-17.73-9.393-35.467-14.156-53.215
				l-32.141-66.591c4.982,16.527,9.952,33.055,14.901,49.589L1582.486,7262.005z M1612.68,7378.613
				c-3.437-13.543-6.907-27.096-10.389-40.653l-23.191-51.766l10.703,36.494L1612.68,7378.613z M1639.313,7485.804l-4.78-19.543
				l-11.29-27.628l4.148,14.596L1639.313,7485.804z M1299.406,6270.646c-7.68-26.576-15.337-53.183-22.967-79.809
				c-20.991-31.548-41.797-62.932-62.407-94.167c7.691,25.826,15.444,51.681,23.247,77.535
				C1257.783,6206.181,1278.516,6238.346,1299.406,6270.646z M1334.951,6393l-23.084-79.322
				c-20.487-31.585-40.795-63.007-60.924-94.284c7.786,25.64,15.612,51.292,23.476,76.95
				C1294.397,6328.393,1314.593,6360.622,1334.951,6393z M1371.106,6516.641l-22.939-78.394
				c-19.854-31.468-39.508-62.756-59.015-93.913c7.792,25.313,15.628,50.648,23.482,75.988
				C1331.945,6452.265,1351.436,6484.373,1371.106,6516.641z M1062.467,2982.302l-0.286,0.999l0.554-1.384L1062.467,2982.302z
				 M1081.214,2918.935c-2.525,8.325-4.954,16.65-7.428,24.968c3.515-4.917,6.924-9.87,10.501-14.779
				c3.353-8.018,6.784-16.038,10.216-24.054C1090.047,2909.679,1085.597,2914.294,1081.214,2918.935z M1100.855,2856.406
				l-2.222,6.888c-2.989,9.256-5.788,18.506-8.687,27.744c6.32-6.465,12.656-12.919,19.138-19.327
				c4.792-10.841,9.678-21.667,14.621-32.488C1115.935,2844.883,1108.446,2850.667,1100.855,2856.406z M1120.576,2795.196
				l-12.684,39.359c8.598-6.351,17.582-12.518,26.471-18.731c5.609-12.154,11.117-24.202,16.67-36.293
				C1140.71,2784.667,1130.623,2789.918,1120.576,2795.196z M1139.837,2735.463l-13.591,42.134
				c10.977-5.649,22.077-11.233,33.35-16.724c5.749-12.555,11.492-25.105,17.173-37.589
				C1164.276,2727.235,1151.984,2731.304,1139.837,2735.463z M1158.796,2676.697l-13.988,43.342
				c12.869-4.321,25.922-8.533,39.155-12.632c5.838-12.856,11.654-25.693,17.42-38.478
				C1187.036,2671.419,1172.795,2673.979,1158.796,2676.697z M1177.671,2618.225l-14.274,44.207
				c14.621-2.776,29.477-5.395,44.501-7.897c5.917-13.135,11.704-26.128,17.543-39.183
				C1209.353,2616.189,1193.383,2617.113,1177.671,2618.225z M1196.451,2560.083l-14.442,44.707
				c16.233-1.099,32.734-2.014,49.404-2.814c5.905-13.22,11.861-26.498,17.694-39.639
				C1231.368,2561.446,1213.769,2560.66,1196.451,2560.083z M1215.202,2502.083l-14.548,45c17.8,0.63,35.869,1.469,54.123,2.443
				c5.939-13.394,11.727-26.632,17.582-39.948C1253.104,2506.917,1234.005,2504.385,1215.202,2502.083z M1233.909,2444.234
				l-14.61,45.177c19.25,2.377,38.791,4.99,58.522,7.754c5.883-13.416,11.789-26.837,17.604-40.167
				C1274.716,2452.565,1254.156,2448.272,1233.909,2444.234z M1252.639,2386.385l-14.677,45.344
				c20.649,4.141,41.607,8.533,62.749,13.084c5.883-13.525,11.71-26.986,17.526-40.426
				C1296.126,2398.175,1274.251,2392.156,1252.639,2386.385z M1271.312,2328.731l-14.682,45.325
				c22.004,5.882,44.288,12.01,66.801,18.347c5.861-13.583,11.609-27.036,17.392-40.522
				C1317.391,2343.919,1294.229,2336.213,1271.312,2328.731z M1458.747,6659.564c-7.792-27.986-15.628-56.057-23.51-84.185
				c-20.84-32.644-41.506-65.142-61.971-97.468l16.955,57.921l6.851,23.391C1417.42,6592.487,1438.019,6625.963,1458.747,6659.564z
				 M1494.078,6787.312c-7.579-27.635-15.22-55.34-22.922-83.117c-20.263-32.75-40.353-65.323-60.258-97.762l23.426,80.194
				C1454.05,6720.012,1473.994,6753.602,1494.078,6787.312z M1528.851,6915.528c-7.26-27.107-14.604-54.288-22.021-81.527
				c-19.491-32.619-38.78-65.056-57.946-97.364c7.624,26.218,15.214,52.41,22.765,78.583
				C1490.546,6848.489,1509.617,6881.934,1528.851,6915.528z M1562.626,7043.613c-6.846-26.414-13.792-52.89-20.823-79.434
				c-18.433-32.098-36.737-64.075-54.873-95.888c7.299,25.444,14.548,50.875,21.758,76.274
				C1526.539,6977.445,1544.496,7010.434,1562.626,7043.613z M1594.919,7170.826c-6.308-25.417-12.734-50.906-19.25-76.447
				c-17.134-31.254-34.168-62.406-51.044-93.393c6.885,24.488,13.72,48.963,20.493,73.413
				C1561.585,7106.396,1578.215,7138.564,1594.919,7170.826z M1625.352,7296.729c-5.653-24.054-11.425-48.178-17.291-72.349
				c-15.539-29.935-30.966-59.722-46.303-89.43c6.308,23.093,12.567,46.171,18.752,69.231
				C1595.372,7234.917,1610.323,7265.768,1625.352,7296.729z M1653.469,7420.332c-4.892-22.281-9.919-44.631-15.024-67.009
				c-13.546-27.833-27.025-55.585-40.431-83.24c5.57,21.18,11.078,42.349,16.53,63.498L1653.469,7420.332z M1678.798,7540.468
				c-3.997-19.803-8.116-39.644-12.303-59.521l-33.361-74.253c4.657,18.583,9.247,37.143,13.792,55.705L1678.798,7540.468z
				 M1700.892,7655.211c-2.961-16.157-5.995-32.341-9.09-48.542l-24.864-61.022c3.482,14.761,6.919,29.513,10.322,44.259
				L1700.892,7655.211z M1719.313,7761.316c-1.69-10.326-3.431-20.667-5.183-31.014l-14.291-39.761
				c1.864,8.527,3.683,17.047,5.508,25.566L1719.313,7761.316z M1387.826,6406.545l-23.745-84.646
				c-21.506-31.968-42.799-63.776-63.93-95.435c7.853,27.284,15.724,54.547,23.627,81.78
				C1344.943,6340.851,1366.269,6373.608,1387.826,6406.545z M1400.879,6453.001l-1.416-5.043
				c-21.232-32.354-42.301-64.59-63.157-96.624l23.818,81.667c20.851,33.044,41.87,66.222,63.112,99.601L1400.879,6453.001z
				 M1030.55,3030.413c-1.528,8.554-3.045,17.106-4.528,25.646c2.015-4.159,4.064-8.314,6.107-12.466
				c2.357-8.838,4.836-17.677,7.26-26.522C1036.478,3021.528,1033.427,3025.942,1030.55,3030.413z M1043.738,2959.794
				c-2.463,12.699-4.875,25.378-7.226,38.052c4.73-7.116,9.309-14.28,14.162-21.356c3.487-12.225,7.182-24.468,10.82-36.708
				C1055.431,2946.399,1049.655,2953.126,1043.738,2959.794z M1057.905,2889.773l-0.246,1.163
				c-3.068,14.538-5.973,29.037-8.872,43.543c6.874-7.531,13.938-14.992,21.013-22.442c4.237-13.939,8.648-27.893,13.098-41.847
				C1074.452,2876.663,1066.05,2883.162,1057.905,2889.773z M1072.459,2821.407c-3.42,16.027-6.84,32.01-10.255,48.185
				c8.99-7.149,18.366-14.128,27.607-21.167l14.341-44.52C1093.439,2809.656,1082.848,2815.48,1072.459,2821.407z
				 M1086.761,2754.674c-3.566,16.495-7.12,33.119-10.691,49.776c11.15-6.233,22.379-12.425,33.865-18.476l14.537-45.091
				C1111.754,2745.386,1099.148,2749.974,1086.761,2754.674z M1101.113,2688.785l-11.022,50.61
				c12.958-4.836,26.101-9.555,39.429-14.156l14.727-45.658C1129.677,2682.52,1115.297,2685.589,1101.113,2688.785z
				 M1115.516,2623.469c-3.778,17.028-7.546,33.951-11.324,51.16c14.671-3.242,29.594-6.317,44.657-9.306l14.867-46.039
				C1147.438,2620.538,1131.351,2621.917,1115.516,2623.469z M1129.935,2558.673c-3.801,16.948-7.607,34.191-11.413,51.317
				c16.278-1.553,32.818-2.905,49.533-4.146l14.901-46.144C1165.065,2559.19,1147.371,2558.835,1129.935,2558.673z
				 M1144.567,2494.214c-3.896,17.099-7.781,34.022-11.671,51.324c17.839,0.195,35.959,0.609,54.268,1.161l14.918-46.155
				C1182.686,2498.25,1163.487,2496.124,1144.567,2494.214z M1159.221,2430.078c-3.907,16.958-7.82,34.103-11.727,51.242
				c19.306,1.973,38.903,4.184,58.69,6.551l14.918-46.131C1200.234,2437.652,1179.585,2433.745,1159.221,2430.078z
				 M1174.099,2366.087c-3.969,17.004-7.937,34.032-11.906,51.22c20.711,3.745,41.724,7.747,62.956,11.927l14.945-46.176
				C1217.833,2377.17,1195.829,2371.514,1174.099,2366.087z M1189.051,2302.532c-4.008,16.944-8.01,33.798-12.018,50.955
				c22.077,5.504,44.433,11.257,67.059,17.24l14.906-46.006C1235.404,2317.073,1212.096,2309.676,1189.051,2302.532z
				 M1476.81,6541.787c-8.212-29.845-16.502-59.839-24.836-89.961c-21.797-32.074-43.42-63.999-64.848-95.767l24.31,86.531
				C1433.026,6475.489,1454.84,6508.563,1476.81,6541.787z M1512.422,6671.866c-8.122-29.849-16.322-59.844-24.59-89.979
				c-21.797-32.88-43.398-65.591-64.842-98.165l24.271,86.492C1468.783,6603.931,1490.502,6637.812,1512.422,6671.866z
				 M1547.664,6802.852c-7.915-29.76-15.936-59.669-24.058-89.724c-21.668-33.573-43.101-66.959-64.394-100.209
				c8.055,28.804,16.043,57.538,23.997,86.191C1504.512,6733.526,1525.979,6768.087,1547.664,6802.852z M1582.05,6934.175
				c-7.596-29.527-15.332-59.19-23.179-89.001c-21.299-34.043-42.452-67.961-63.387-101.68c7.881,28.564,15.69,57.049,23.42,85.459
				C1539.76,6863.846,1560.818,6898.929,1582.05,6934.175z M1615.098,7065.378c-7.148-29.095-14.47-58.335-21.926-87.713
				c-20.773-34.378-41.36-68.605-61.78-102.661c7.601,28.174,15.119,56.277,22.541,84.301
				C1574.135,6994.486,1594.549,7029.861,1615.098,7065.378z M1646.237,7195.804c-6.583-28.459-13.339-57.05-20.258-85.77
				c-19.995-34.464-39.776-68.727-59.44-102.874c7.221,27.589,14.335,55.107,21.338,82.55
				C1607.177,7124.919,1626.623,7160.266,1646.237,7195.804z M1674.958,7324.735c-5.911-27.648-12.007-55.412-18.298-83.315
				c-18.83-34.048-37.588-68.001-56.144-101.75c6.717,26.795,13.328,53.527,19.81,80.188
				C1638.395,7254.647,1656.637,7289.64,1674.958,7324.735z M1700.796,7451.644c-5.122-26.557-10.456-53.222-15.987-80.024
				c-17.442-33.341-34.744-66.499-51.951-99.568c6.107,25.737,12.091,51.409,17.94,77.021
				C1667.373,7383.123,1684.037,7417.315,1700.796,7451.644z M1723.287,7575.609c-4.265-25.179-8.738-50.465-13.417-75.865
				c-15.651-32.002-31.212-63.881-46.695-95.647c5.385,24.359,10.641,48.646,15.757,72.887L1723.287,7575.609z M1742.118,7696.078
				c-3.347-23.468-6.913-47.041-10.669-70.711l-40.386-89.759c4.573,22.598,9.018,45.149,13.328,67.655
				C1716.945,7634.113,1729.529,7665.05,1742.118,7696.078z M1756.979,7811.874c-2.401-21.247-5.032-42.583-7.814-63.991
				l-32.97-81.271c3.655,20.25,7.187,40.463,10.602,60.644C1736.889,7755.408,1746.948,7783.609,1756.979,7811.874z
				 M1767.67,7921.429c-1.478-18.042-3.084-36.141-4.859-54.292c-8.128-23.033-16.283-46.027-24.45-68.982
				c2.642,16.916,5.155,33.802,7.607,50.661C1753.257,7872.992,1760.494,7897.194,1767.67,7921.429z M1774.438,8022.804
				c-0.661-13.33-1.405-26.686-2.256-40.08c-4.937-16.911-9.896-33.809-14.884-50.7c1.506,11.893,2.983,23.774,4.4,35.641
				C1766.008,7986.039,1770.24,8004.425,1774.438,8022.804z M1777.461,8107.489c-0.09-4.513-0.257-9.041-0.375-13.564l-4.013-18.159
				l0.733,7.858C1775.048,8091.577,1776.257,8099.533,1777.461,8107.489z M992.604,3160.52c-0.605,7.663-1.164,15.307-1.735,22.956
				l3.112-9.905c1.237-8.371,2.491-16.741,3.767-25.126C995.996,3152.461,994.323,3156.5,992.604,3160.52z M999.523,3080.341
				c-1.232,13.343-2.441,26.685-3.582,39.997c3.146-7.014,6.398-14,9.628-20.999c2.155-13.161,4.349-26.321,6.616-39.509
				C1007.958,3066.66,1003.643,3073.478,999.523,3080.341z M1007.253,3002.285c-1.718,16.288-3.42,32.567-4.993,48.797
				c5.318-8.587,10.529-17.197,16.015-25.738c2.788-15.514,5.721-31.065,8.665-46.619
				C1020.217,2986.518,1013.763,2994.415,1007.253,3002.285z M1015.862,2925.109c-2.127,17.897-4.204,35.764-6.135,53.573
				c7.131-8.392,14.582-16.653,21.965-24.953c3.269-16.812,6.734-33.664,10.232-50.523
				C1033.17,2910.478,1024.326,2917.706,1015.862,2925.109z M1025.137,2849.563c-2.323,18.801-4.685,37.455-6.98,56.477
				c9.214-7.896,18.55-15.742,28.033-23.514c3.711-17.592,7.417-34.83,11.128-52.248
				C1046.464,2836.641,1035.666,2843.03,1025.137,2849.563z M1034.412,2775.479c-2.429,18.956-4.814,38.202-7.215,57.381
				c11.111-6.766,22.334-13.479,33.837-20.043c3.756-17.587,7.512-35.246,11.268-52.658
				C1059.461,2765.139,1046.839,2770.247,1034.412,2775.479z M1043.99,2702.557c-2.552,19.205-5.094,38.482-7.607,57.921
				c12.869-5.329,25.973-10.522,39.25-15.604l11.525-52.969C1072.537,2695.303,1058.168,2698.866,1043.99,2702.557z
				 M1053.758,2630.376c-2.648,19.296-5.307,38.574-7.921,58.117c14.576-3.725,29.376-7.303,44.405-10.743
				c3.896-17.788,7.797-35.354,11.693-52.956C1085.636,2626.479,1069.588,2628.35,1053.758,2630.376z M1063.716,2558.874
				c-2.72,19.141-5.396,38.611-8.077,57.998c16.188-2.022,32.623-3.875,49.298-5.557c3.913-17.625,7.837-35.323,11.749-52.76
				C1098.773,2558.464,1081.124,2558.574,1063.716,2558.874z M1074.071,2487.89c-2.832,19.25-5.715,38.22-8.508,57.743
				c17.755-0.266,35.785-0.33,54.061-0.213c3.98-17.712,7.96-35.006,11.945-52.506
				C1112.135,2491.029,1092.969,2489.351,1074.071,2487.89z M1084.539,2417.414c-2.877,18.949-5.704,38.22-8.547,57.42
				c19.233,1.513,38.752,3.255,58.506,5.193c3.985-17.464,7.965-34.947,11.94-52.222
				C1125.53,2424.12,1104.897,2420.641,1084.539,2417.414z M1095.454,2347.209c-2.978,18.984-5.956,37.975-8.889,57.219
				c20.655,3.294,41.624,6.843,62.844,10.606c4.041-17.483,8.072-34.79,12.108-52.078
				C1139.21,2357.45,1117.189,2352.212,1095.454,2347.209z M1106.576,2277.673c-3.045,18.847-6.113,37.611-9.13,56.733
				c22.049,5.069,44.372,10.376,67.003,15.956c4.064-17.4,8.128-34.487,12.197-51.67
				C1152.997,2291.413,1129.644,2284.413,1106.576,2277.673z M1565.974,6675.897c-8.631-31.639-17.386-63.492-26.247-95.573
				c-21.875-31.885-43.583-63.626-65.111-95.224c8.452,30.599,16.849,61.054,25.167,91.363
				C1521.669,6609.455,1543.718,6642.595,1565.974,6675.897z M1602.358,6810.954c-8.419-31.688-17-63.605-25.704-95.739
				c-22.138-33.061-44.131-65.992-65.906-98.74c8.38,30.636,16.675,61.13,24.887,91.474
				C1557.684,6742.117,1579.923,6776.458,1602.358,6810.954z M1637.678,6946.319c-8.083-31.637-16.362-63.496-24.803-95.583
				c-22.273-34.172-44.366-68.201-66.264-102.049c8.223,30.619,16.334,61.086,24.327,91.404
				C1592.976,6875.324,1615.243,6910.745,1637.678,6946.319z M1671.415,7081.737c-7.585-31.379-15.405-62.99-23.431-94.843
				c-22.217-35.16-44.209-70.119-66.062-104.941c7.932,30.376,15.718,60.612,23.359,90.697
				C1627.144,7008.842,1649.165,7045.179,1671.415,7081.737z M1702.755,7216.127c-6.935-30.922-14.139-62.081-21.567-93.458
				c-21.842-35.811-43.571-71.51-65.049-106.978c7.501,29.99,14.845,59.825,22.015,89.529
				C1659.481,7141.99,1681.059,7178.999,1702.755,7216.127z M1731.135,7348.931c-6.135-30.292-12.578-60.82-19.272-91.573
				c-21.271-36.31-42.34-72.433-63.258-108.407c6.963,29.442,13.742,58.741,20.33,87.903
				C1689.506,7274.035,1710.228,7311.392,1731.135,7348.931z M1755.91,7479.226c-5.206-29.434-10.731-59.096-16.558-88.973
				c-20.302-36.388-40.465-72.635-60.465-108.693c6.297,28.701,12.404,57.264,18.276,85.692
				C1716.598,7404.395,1736.207,7441.746,1755.91,7479.226z M1776.559,7606.429c-4.159-28.364-8.665-56.94-13.501-85.738
				c-19.004-36.09-37.862-72.004-56.619-107.788c5.525,27.745,10.837,55.358,15.908,82.845
				C1740.315,7532.494,1758.39,7569.382,1776.559,7606.429z M1792.624,7729.724c-3.034-27.096-6.46-54.398-10.21-81.902
				l-51.649-105.366c4.657,26.55,9.09,52.981,13.277,79.291l11.391,25.328L1792.624,7729.724z M1803.635,7848.152
				c-1.881-25.523-4.075-51.195-6.639-77.066l-45.564-101.285c3.722,25.14,7.238,50.174,10.484,75.099
				C1775.809,7779.208,1789.725,7813.635,1803.635,7848.152z M1809.579,7961.334c-0.733-23.755-1.797-47.678-3.207-71.756
				c-12.774-31.748-25.536-63.399-38.304-94.98c2.765,23.45,5.318,46.807,7.607,70.063
				C1787.016,7896.818,1798.323,7929.041,1809.579,7961.334z M1810.576,8069.058c0.33-21.687,0.28-43.551-0.045-65.525
				c-9.997-28.843-20.045-57.622-30.12-86.348c1.769,21.258,3.37,42.467,4.708,63.569
				C1793.693,8010.149,1802.185,8039.584,1810.576,8069.058z M1806.579,8169.504c1.203-18.835,2.177-37.76,2.877-56.796
				c-7.019-24.95-14.106-49.875-21.265-74.774c0.812,18.335,1.455,36.611,1.926,54.827
				C1795.731,8118.336,1801.217,8143.91,1806.579,8169.504z M1798.479,8261.915c1.707-15.071,3.219-30.216,4.551-45.43
				c-3.918-19.263-7.909-38.526-11.979-57.783c0.028,14.199-0.078,28.361-0.286,42.485
				C1793.458,8221.443,1796.044,8241.683,1798.479,8261.915z M1787.833,8340.017c1.299-8.145,2.558-16.313,3.739-24.503
				c-1.12-10.217-2.267-20.439-3.454-30.664c-0.336,6.901-0.677,13.799-1.075,20.675
				C1787.363,8317.034,1787.637,8328.532,1787.833,8340.017z M968.076,3307.76l0.073,19.562l0.845-4.426
				c0.403-7.765,0.789-15.533,1.226-23.313C969.475,3302.308,968.809,3305.035,968.076,3307.76z M968.322,3219.318
				c-0.112,13.429-0.246,26.863-0.285,40.242c1.97-6.875,3.868-13.752,5.883-20.627c0.896-13.629,1.886-27.302,2.872-40.97
				C973.886,3205.067,971.143,3212.202,968.322,3219.318z M969.503,3132.152c-0.336,17.107-0.582,34.167-0.806,51.201
				c3.61-8.722,7.406-17.411,11.15-26.113c1.321-16.788,2.715-33.601,4.187-50.448
				C979.148,3115.234,974.244,3123.664,969.503,3132.152z M971.748,3046.629c-0.599,19.421-1.142,38.808-1.595,58.129
				c5.536-9.618,11.01-19.25,16.742-28.804c1.713-18.438,3.526-36.923,5.407-55.433
				C985.322,3029.173,978.482,3037.88,971.748,3046.629z M974.821,2962.575c-0.862,20.546-1.668,41.071-2.351,61.496
				c7.204-9.131,14.811-18.113,22.284-27.148c2.06-19.53,4.282-39.124,6.544-58.738
				C992.352,2946.262,983.497,2954.374,974.821,2962.575z M978.767,2879.659c-1.052,21.447-2.205,42.569-3.174,64.303
				c9.275-8.587,18.41-17.238,27.982-25.686l0.129-1.117c2.368-19.778,4.831-39.028,7.238-58.564
				C1000.077,2865.542,989.302,2872.535,978.767,2879.659z M982.853,2798.439c-1.164,21.292-2.189,43.072-3.275,64.653
				c10.938-7.266,22.133-14.387,33.457-21.447c2.497-20.069,4.959-40.307,7.495-60.136
				C1007.802,2787.052,995.207,2792.675,982.853,2798.439z M987.572,2718.332c-1.304,21.61-2.608,43.205-3.834,65.121
				c12.734-5.844,25.648-11.583,38.797-17.177c2.603-20.213,5.251-40.16,7.893-60.111
				C1015.924,2710.077,1001.639,2714.127,987.572,2718.332z M992.571,2639.164c-1.433,21.519-2.821,43.155-4.159,64.984
				c14.403-4.236,29.001-8.35,43.896-12.256c2.681-20.094,5.396-39.983,8.116-59.818
				C1024.208,2634.244,1008.277,2636.621,992.571,2639.164z M997.972,2560.842c-1.545,21.344-3.006,43.012-4.461,64.667
				c16.003-2.533,32.259-4.885,48.805-7.032c2.748-19.887,5.491-39.814,8.279-59.446
				C1032.761,2559.413,1015.252,2560.044,997.972,2560.842z M1003.917,2483.254c-1.685,21.383-3.437,42.507-5.032,64.225
				c17.571-0.772,35.416-1.344,53.557-1.689c2.844-19.927,5.782-39.301,8.676-58.947
				C1041.751,2485.407,1022.697,2484.218,1003.917,2483.254z M1010.091,2406.371c-1.774,20.971-3.431,42.407-5.127,63.684
				c19.071,1.009,38.422,2.256,58.075,3.731c2.894-19.537,5.771-39.145,8.704-58.433
				C1050.886,2412.103,1030.343,2409.107,1010.091,2406.371z M1016.948,2329.946c-1.909,20.985-3.851,41.933-5.682,63.258
				c20.526,2.799,41.36,5.855,62.497,9.162c2.983-19.523,6.012-38.794,9.034-58.051
				C1060.553,2339.266,1038.588,2334.47,1016.948,2329.946z M1024.124,2254.361c-2.032,20.772-4.064,41.524-6.012,62.627
				c21.92,4.568,44.148,9.417,66.684,14.524c3.062-19.38,6.169-38.39,9.264-57.491
				C1070.433,2267.178,1047.13,2260.638,1024.124,2254.361z M1654.964,6808.473c-9.174-33.562-18.562-67.448-28.105-101.667
				c-21.713-31.366-43.269-62.593-64.657-93.685c8.917,32.438,17.739,64.653,26.415,96.656
				C1610.552,6742.52,1632.68,6775.431,1654.964,6808.473z M1692.686,6949.121c-8.833-33.653-17.912-67.636-27.199-101.944
				c-22.295-32.984-44.417-65.83-66.365-98.516c8.755,32.529,17.369,64.836,25.81,96.903
				C1647.328,6879.919,1669.915,6914.443,1692.686,6949.121z M1728.65,7089.938c-8.307-33.573-16.916-67.486-25.782-101.751
				c-22.72-34.529-45.223-68.87-67.574-103.075c8.469,32.501,16.754,64.755,24.82,96.776
				C1682.767,7017.738,1705.599,7053.738,1728.65,7089.938z M1762.006,7229.822c-7.585-33.257-15.5-66.852-23.756-100.822
				c-22.905-35.903-45.659-71.66-68.189-107.223c7.993,32.208,15.768,64.197,23.297,95.939
				C1716.044,7154.898,1738.933,7192.276,1762.006,7229.822z M1791.885,7367.986c-6.65-32.677-13.692-65.713-21.092-99.093
				c-22.872-37.143-45.491-74.038-67.982-110.823c7.372,31.78,14.503,63.342,21.338,94.647
				C1746.545,7290.951,1769.115,7329.375,1791.885,7367.986z M1817.405,7503.233c-5.53-31.924-11.509-64.204-17.884-96.83
				c-22.39-37.911-44.629-75.663-66.661-113.209c6.599,31.156,12.914,62.074,18.909,92.756
				C1773.486,7424.854,1795.362,7463.954,1817.405,7503.233z M1837.875,7634.627c-4.226-30.869-8.962-62.092-14.117-93.659
				c-21.573-38.376-42.978-76.553-64.226-114.581c5.693,30.34,11.061,60.431,16.082,90.3
				C1796.218,7555.807,1816.991,7595.146,1837.875,7634.627z M1852.703,7761.447c-2.821-29.625-6.141-59.573-9.953-89.865
				c-20.302-38.337-40.47-76.507-60.51-114.51c4.663,29.306,8.973,58.39,12.908,87.253
				C1814.225,7683.197,1833.419,7722.25,1852.703,7761.447z M1861.463,7882.858c-1.31-28.18-3.163-56.672-5.536-85.497
				l-55.511-112.891c3.51,28.039,6.639,55.854,9.404,83.475L1861.463,7882.858z M1863.753,7997.985
				c0.202-26.558-0.123-53.392-0.963-80.52l-49.242-109.576c2.317,26.646,4.26,53.091,5.821,79.354
				C1834.169,7924.036,1848.964,7960.959,1863.753,7997.985z M1859.722,8106.721c1.685-24.814,2.821-49.906,3.459-75.253
				c-13.91-34.889-27.82-69.666-41.741-104.351c1.12,25.099,1.864,50.023,2.228,74.772
				C1835.754,8036.75,1847.777,8071.697,1859.722,8106.721z M1849.619,8209.188c3.056-22.956,5.575-46.177,7.596-69.625
				c-11.038-32.502-22.138-64.929-33.3-97.287c-0.039,23.384-0.409,46.626-1.209,69.684
				C1831.802,8144.325,1840.775,8176.73,1849.619,8209.188z M1833.548,8304.271c4.232-20.784,8.01-41.777,11.352-62.95
				c-7.915-29.317-15.931-58.604-24.058-87.85c-1.187,21.153-2.737,42.153-4.568,63.053
				C1822.213,8245.766,1827.973,8275.01,1833.548,8304.271z M1812.395,8392.534c5.111-18.371,9.813-36.908,14.111-55.62
				c-4.735-25.41-9.605-50.81-14.615-76.209c-2.088,18.796-4.445,37.481-7.126,56.056
				C1807.52,8342.043,1810.061,8367.298,1812.395,8392.534z M1787.2,8472.722c5.402-15.254,10.423-30.663,15.192-46.163
				c-1.707-20.159-3.56-40.341-5.553-60.526c-2.67,15.181-5.514,30.306-8.587,45.344
				C1788.124,8431.869,1787.743,8452.313,1787.2,8472.722z M1760.774,8540.404c4.142-9.742,8.228-19.51,12.119-29.344
				c0.493-12.291,0.912-24.587,1.243-36.908c-2.362,9.6-4.792,19.179-7.355,28.713
				C1764.9,8515.401,1762.89,8527.92,1760.774,8540.404z M957.076,3473.67l0.532,7.096l-0.218-9.247L957.076,3473.67z
				 M950.583,3375.955c0.8,12.94,1.59,25.893,2.441,38.78c0.98-6.069,1.875-12.14,2.883-18.216
				c-0.202-13.511-0.341-27.069-0.47-40.627C953.757,3362.573,952.218,3369.267,950.583,3375.955z M945.131,3280.185
				c0.912,17.599,1.886,35.16,2.888,52.673c2.323-8.987,4.668-17.975,7.092-26.958c-0.056-17.613-0.062-35.25,0.006-52.947
				C951.675,3262.005,948.451,3271.105,945.131,3280.185z M940.754,3185.634c0.851,20.453,1.763,40.847,2.743,61.177
				c3.834-10.093,7.898-20.135,11.884-30.202c0.174-19.945,0.442-39.95,0.767-59.993
				C950.942,3166.266,945.769,3175.923,940.754,3185.634z M937.339,3092.922c0.711,22.345,1.478,44.632,2.34,66.832
				c5.586-10.502,11.139-21.006,16.955-31.436c0.425-21.194,0.957-42.453,1.567-63.765
				C951.138,3073.963,944.129,3083.401,937.339,3092.922z M934.933,3001.857c0.521,23.182,1.097,46.32,1.774,69.365
				c7.21-9.859,14.755-19.583,22.222-29.342c0.694-22.183,1.534-44.448,2.418-66.747
				C952.296,2983.925,943.67,2992.915,934.933,3001.857z M933.466,2911.648c0.308,20.974,0.448,41.524,0.851,62.775l0.201,9.047
				c9.068-9.099,18.17-18.171,27.585-27.102l0.42-10.423c0.862-19.317,1.892-38.029,2.816-57.108
				C954.524,2896.337,943.911,2903.947,933.466,2911.648z M932.279,2823.228c0.196,23.671,0.649,48.093,0.968,72.122
				c10.764-7.812,21.775-15.489,32.908-23.1c1.12-22.539,2.144-45.391,3.347-67.616
				C956.847,2810.683,944.482,2816.909,932.279,2823.228z M932.055,2736.139c0.034,23.969,0.011,47.788,0.185,72.147
				c12.477-6.356,25.217-12.562,38.153-18.641c1.254-22.667,2.625-44.908,3.974-67.253
				C960.043,2726.823,945.921,2731.401,932.055,2736.139z M932.156,2650.089c-0.129,23.753-0.146,47.795-0.14,71.927
				c14.151-4.765,28.576-9.347,43.18-13.812c1.371-22.421,2.782-44.699,4.249-66.79
				C963.452,2644.142,947.661,2647.015,932.156,2650.089z M932.906,2564.996c-0.285,23.585-0.481,47.437-0.627,71.412
				c15.78-3.067,31.839-5.94,48.105-8.665c1.489-22.175,3.006-44.309,4.579-66.159
				C967.365,2562.538,949.984,2563.65,932.906,2564.996z M934.317,2480.739c-0.453,23.503-0.968,46.849-1.287,70.757
				c17.347-1.318,34.99-2.431,52.858-3.347c1.629-22.13,3.398-43.674,5.111-65.452
				C971.832,2481.833,952.929,2481.163,934.317,2480.739z M936.074,2397.324c-0.605,23.006-1.002,46.643-1.483,70.021
				c18.875,0.46,38.007,1.136,57.459,2.061c1.724-21.637,3.409-43.416,5.217-64.739
				C976.562,2401.958,956.181,2399.527,936.074,2397.324z M938.795,2314.518c-0.795,23.034-1.623,45.962-2.278,69.417
				c20.353,2.256,40.969,4.724,61.948,7.501c1.858-21.611,3.823-42.837,5.771-64.108
				C982.12,2322.784,960.295,2318.508,938.795,2314.518z M941.924,2232.77c-0.952,22.749-1.881,45.56-2.698,68.692
				c21.741,4.027,43.807,8.332,66.174,12.912c1.982-21.388,4.053-42.393,6.124-63.446
				C987.992,2244.581,964.801,2238.53,941.924,2232.77z M1743.299,6938.794c-9.908-35.732-20.112-71.908-30.535-108.478
				c-21.293-30.493-42.413-60.865-63.398-91.112c9.572,34.518,18.942,68.703,28.117,102.576
				C1699.257,6873.978,1721.194,6906.317,1743.299,6938.794z M1783.22,7086.437c-9.404-35.824-19.149-72.104-29.225-108.874
				c-22.217-32.576-44.26-65.007-66.141-97.294c9.281,34.607,18.338,68.884,27.131,102.824
				C1737.556,7017.396,1760.282,7051.82,1783.22,7086.437z M1820.377,7233.279c-8.654-35.669-17.733-71.831-27.176-108.474
				c-22.928-34.536-45.698-68.936-68.273-103.16c8.827,34.53,17.341,68.685,25.564,102.498
				C1773.593,7160.352,1796.89,7196.728,1820.377,7233.279z M1853.783,7378.489c-7.624-35.194-15.752-70.899-24.293-107.085
				c-23.471-36.449-46.689-72.68-69.785-108.792c8.116,34.187,15.936,68.036,23.375,101.519
				C1806.434,7302.039,1830.05,7340.209,1853.783,7378.489z M1882.37,7520.847c-6.331-34.465-13.21-69.437-20.621-104.936
				c-23.622-38.039-47.07-75.89-70.317-113.572c7.243,33.594,14.111,66.83,20.56,99.71
				C1835.278,7441.478,1858.704,7481.033,1882.37,7520.847z M1905.046,7658.812c-4.78-33.388-10.143-67.261-16.138-101.679
				c-23.375-39.261-46.633-78.395-69.645-117.285c6.163,32.782,11.9,65.199,17.173,97.259
				C1859.129,7577.48,1882.006,7618.056,1905.046,7658.812z M1920.96,7791.278c-3.028-32.027-6.711-64.543-11.066-97.584
				c-22.687-40.093-45.172-79.953-67.54-119.677c4.915,31.75,9.348,63.126,13.283,94.168
				C1877.254,7709.023,1899.045,7750.065,1920.96,7791.278z M1929.334,7917.05c-1.131-30.437-3.011-61.384-5.53-92.795
				c-21.388-40.204-42.659-80.226-63.784-120.079c3.521,30.48,6.527,60.611,8.995,90.41L1929.334,7917.05z M1929.882,8035.4
				c0.828-28.644,0.901-57.759,0.297-87.311l-58.584-118.903c1.998,28.999,3.493,57.7,4.422,86.068
				C1893.923,7955.148,1911.88,7995.201,1929.882,8035.4z M1922.633,8146.17c2.788-26.75,4.819-53.917,6.135-81.523
				c-17.347-38.762-34.666-77.393-51.934-115.881c0.459,27.446,0.403,54.586-0.229,81.427
				C1891.964,8068.734,1907.307,8107.391,1922.633,8146.17z M1907.789,8249.28c4.668-24.787,8.631-49.952,11.811-75.553
				c-14.649-37.143-29.32-74.173-44.008-111.096c-1.047,25.814-2.631,51.349-4.808,76.599
				C1883.204,8175.82,1895.547,8212.514,1907.789,8249.28z M1885.521,8344.175c6.404-22.799,12.052-45.969,17.061-69.463
				c-11.531-34.752-23.135-69.43-34.828-104.025c-2.564,23.961-5.676,47.657-9.298,71.125
				C1867.632,8275.881,1876.661,8310.002,1885.521,8344.175z M1856.694,8431.951c7.943-20.809,15.203-41.925,21.758-63.378
				c-8.234-31.996-16.625-63.945-25.139-95.856c-3.918,22.208-8.324,44.193-13.294,65.947
				C1845.779,8369.749,1851.365,8400.848,1856.694,8431.951z M1821.799,8512.178c9.191-18.769,17.677-37.838,25.631-57.154
				c-4.769-28.394-9.729-56.775-14.867-85.157c-5.139,20.068-10.837,39.898-16.905,59.591
				C1817.976,8457.053,1820.024,8484.628,1821.799,8512.178z M1782,8585.014c9.936-16.441,19.39-33.079,28.256-49.966
				c-1.45-24.447-3.14-48.918-5.015-73.414c-6.079,18.03-12.533,35.916-19.491,53.611
				C1784.777,8538.552,1783.545,8561.813,1782,8585.014z M1738.821,8650.259c9.868-13.68,19.429-27.485,28.469-41.489
				c1.461-19.225,2.664-38.502,3.711-57.799c-6.448,14.857-13.249,29.591-20.325,44.221
				C1747.004,8613.616,1743.03,8631.966,1738.821,8650.259z M1696.117,8705.309c7.893-9.451,15.556-18.99,22.984-28.615
				c3.028-12.246,5.933-24.51,8.71-36.82c-5.553,10.29-11.245,20.524-17.134,30.702
				C1705.985,8682.197,1701.132,8693.778,1696.117,8705.309z M946.587,3550.992l4.349,35.258l0.845-13.493
				c-1.047-12.706-2.11-25.392-3.107-38.149L946.587,3550.992z M934.322,3446.146c1.982,17.62,3.991,35.202,6.04,52.729
				c1.198-8.587,2.429-17.171,3.683-25.763c-1.293-18.003-2.519-36.071-3.717-54.172
				C938.252,3428.008,936.315,3437.073,934.322,3446.146z M923.222,3342.862c2.189,21.123,4.422,42.186,6.7,63.178
				c2.441-10.484,5.027-20.953,7.607-31.43c-1.293-20.998-2.525-42.057-3.678-63.184
				C930.191,3321.882,926.721,3332.372,923.222,3342.862z M913.175,3241.168c2.222,23.553,4.495,47.055,6.846,70.446
				c3.902-11.244,7.977-22.449,12.035-33.66c-1.17-22.812-2.245-45.721-3.258-68.682
				C923.502,3219.871,918.252,3230.498,913.175,3241.168z M904.191,3141.2c2.149,25.066,4.372,50.048,6.667,74.933
				c5.519-11.275,11.027-22.551,16.798-33.749c-0.98-23.801-1.875-47.684-2.687-71.646
				C917.938,3120.852,910.913,3130.969,904.191,3141.2z M896.253,3043.101c1.982,25.761,4.008,51.465,6.152,77.041
				c7.098-10.534,14.47-20.974,21.858-31.398c-0.772-24.593-1.411-49.302-1.993-74.071
				C913.348,3024.032,904.818,3033.573,896.253,3043.101z M889.335,2945.606c1.315,19.016,2.413,37.526,3.823,56.772
				c0.549,7.492,1.131,14.945,1.702,22.414c8.816-9.605,17.806-19.113,26.991-28.536c-0.162-7.201-0.341-14.396-0.481-21.623
				c-0.341-18.14-0.453-35.635-0.728-53.572C909.967,2929.112,899.59,2937.32,889.335,2945.606z M882.903,2850.178
				c1.618,26.048,3.543,52.819,5.34,79.298c10.529-8.353,21.243-16.607,32.18-24.737c-0.347-24.932-0.795-50.154-1.008-74.702
				C907.034,2836.629,894.837,2843.321,882.903,2850.178z M877.563,2755.882c1.455,26.458,2.76,52.567,4.405,79.492
				c12.219-6.915,24.674-13.68,37.336-20.336c-0.185-25.198-0.134-49.726-0.179-74.513
				C904.991,2745.463,891.148,2750.586,877.563,2755.882z M872.671,2662.978c1.243,25.945,2.687,52.421,4.109,78.815
				c13.837-5.309,27.954-10.445,42.312-15.402c-0.011-24.719-0.022-49.403,0.106-73.728
				C903.413,2655.899,887.896,2659.332,872.671,2662.978z M868.725,2571.117c1.036,25.847,2.133,51.852,3.359,78.159
				c15.46-3.633,31.223-7.057,47.238-10.3c0.157-24.503,0.369-48.829,0.66-72.928
				C902.618,2567.522,885.512,2569.202,868.725,2571.117z M865.478,2480.24c0.823,25.619,1.646,51.22,2.659,77.313
				c17.028-1.897,34.369-3.553,51.968-5.008c0.325-24.334,0.84-48.121,1.304-72.039
				C902.472,2480.186,883.821,2480.084,865.478,2480.24z M862.763,2390.343c0.61,25.08,1.511,50.876,2.306,76.404
				c18.567-0.129,37.464,0.014,56.619,0.364c0.498-23.748,0.896-47.767,1.517-71.125
				C902.752,2393.852,882.59,2391.962,862.763,2390.343z M861.207,2301.064c0.381,25.146,0.677,50.083,1.271,75.753
				c20.067,1.658,40.482,3.602,61.176,5.785c0.666-23.806,1.523-47.073,2.34-70.443
				C904.068,2308.175,882.483,2304.476,861.207,2301.064z M860.172,2213.131c0.185,24.723,0.459,49.655,0.817,74.82
				c21.483,3.43,43.292,7.148,65.441,11.163c0.834-23.409,1.791-46.495,2.76-69.515
				C905.842,2223.802,882.83,2218.303,860.172,2213.131z M1873.492,7222.021c-10.154-38.202-20.856-77.112-31.928-116.582
				c-21.875-31.826-43.605-63.517-65.172-95.083c9.98,36.916,19.636,73.363,28.934,109.341
				C1827.867,7153.655,1850.604,7187.766,1873.492,7222.021z M1912.67,7376.311c-9.152-37.979-18.875-76.649-29.107-115.963
				c-23.023-34.387-45.855-68.617-68.537-102.706c9.326,36.816,18.259,73.142,26.751,108.971
				C1865.202,7302.988,1888.874,7339.599,1912.67,7376.311z M1946.809,7527.931c-7.764-37.358-16.155-75.358-25.211-114.113
				c-23.857-36.747-47.54-73.33-71.027-109.746c8.385,36.317,16.266,72.089,23.672,107.379
				C1898.262,7450.125,1922.404,7488.897,1946.809,7527.931z M1974.484,7675.177c-6.006-36.299-12.835-73.351-20.336-111.105
				c-24.271-38.766-48.43-77.424-72.332-115.834c7.17,35.526,13.809,70.516,19.838,104.988
				C1925.746,7593.69,1950.011,7634.323,1974.484,7675.177z M1994.165,7815.955c-3.918-34.777-8.643-70.237-14.201-106.43
				c-24.316-40.536-48.43-80.882-72.376-121.036c5.67,34.415,10.786,68.359,15.225,101.75
				C1946.412,7731.939,1970.218,7773.86,1994.165,7815.955z M2005.147,7949.279c-1.584-32.99-4.165-66.722-7.579-101.148
				c-23.683-41.593-47.159-82.947-70.507-124.16c3.98,33.002,7.327,65.511,9.964,97.506
				C1959.583,7863.881,1982.303,7906.494,2005.147,7949.279z M2006.446,8073.425c0.884-30.831,0.812-62.34-0.173-94.503
				c-22.401-41.939-44.697-83.722-66.835-125.286c2.144,31.339,3.571,62.191,4.265,92.554L2006.446,8073.425z M1998.212,8188.318
				c3.387-28.57,5.805-57.752,7.232-87.602l-61.226-124.142c0.207,29.533-0.353,58.578-1.646,87.18
				C1961.083,8105.123,1979.633,8146.64,1998.212,8188.318z M1980.563,8293.703c5.833-26.303,10.585-53.254,14.431-80.759
				c-18.007-40.418-35.987-80.694-53.932-120.819c-1.763,27.64-4.277,54.832-7.562,81.602
				C1949.216,8213.594,1964.912,8253.584,1980.563,8293.703z M1953.868,8389.448c8.145-24,15.209-48.581,21.411-73.662
				c-15.085-38.729-30.21-77.339-45.351-115.834c-3.711,25.679-8.111,50.979-13.317,75.872
				C1929.138,8313.608,1941.553,8351.48,1953.868,8389.448z M1918.928,8476.277c10.244-21.76,19.457-44.046,27.803-66.793
				c-11.744-36.331-23.583-72.588-35.528-108.757c-5.491,23.806-11.721,47.229-18.746,70.289
				C1901.458,8406.06,1910.291,8441.137,1918.928,8476.277z M1876.515,8554.702c12.102-19.641,23.202-39.755,33.501-60.28
				c-8.178-33.49-16.524-66.934-25.038-100.34c-7.26,21.805-15.153,43.311-23.801,64.473
				C1866.535,8490.589,1871.662,8522.642,1876.515,8554.702z M1827.525,8625.218c13.636-17.585,26.381-35.577,38.36-53.924
				c-4.489-30.076-9.186-60.148-14.111-90.209c-8.704,19.901-18.175,39.464-28.251,58.767
				C1825.169,8568.337,1826.49,8596.792,1827.525,8625.218z M1773.072,8688.624c14.783-15.572,28.771-31.475,42.004-47.717
				c-0.856-26.392-1.987-52.812-3.375-79.256c-10.003,18.041-20.537,35.867-31.833,53.389
				C1777.948,8639.628,1775.681,8664.156,1773.072,8688.624z M1714.393,8745.051c15.259-13.453,29.919-27.16,43.868-41.152
				c2.502-22.136,4.719-44.319,6.65-66.552c-10.91,15.884-22.306,31.585-34.302,47.059
				C1725.532,8704.689,1720.17,8724.923,1714.393,8745.051z M1653.615,8794.614c14.722-11.083,28.867-22.385,42.536-33.876
				c5.094-17.047,9.964-34.146,14.542-51.303c-10.938,13.199-22.435,26.19-34.229,39.078
				C1669.125,8763.95,1661.569,8779.34,1653.615,8794.614z M1595.685,8835.37c11.458-7.553,22.597-15.222,33.518-22.976
				c5.816-10.678,11.492-21.396,17-32.158c-9.247,9.319-18.729,18.562-28.464,27.713
				C1610.552,8817.138,1603.208,8826.284,1595.685,8835.37z M1830.632,7066.639c-10.859-38.17-22.099-76.917-33.686-116.243
				c-20.61-29.292-41.086-58.474-61.422-87.538c10.434,36.895,20.605,73.33,30.473,109.311
				C1787.38,7003.526,1808.936,7035.022,1830.632,7066.639z M956.657,3744.368c1.741,10.072,3.465,20.167,5.223,30.2l-0.174-7.954
				c-1.584-11.342-3.174-22.702-4.73-34.082C956.847,3736.483,956.774,3740.422,956.657,3744.368z M937.373,3630.152
				c2.827,17.17,5.682,34.302,8.553,51.376c0.336-7.845,0.7-15.696,1.08-23.553c-2.301-17.638-4.579-35.318-6.812-53.052
				C939.237,3613.336,938.258,3621.747,937.373,3630.152z M919.399,3518.143c3.364,21.552,6.767,43.052,10.221,64.459
				c1.231-10.56,2.558-21.134,3.885-31.702c-2.614-21.552-5.167-43.187-7.674-64.88
				C923.62,3496.722,921.476,3507.433,919.399,3518.143z M902.579,3407.742c3.622,24.443,7.288,48.776,11.01,73.031
				c2.441-11.822,5.01-23.625,7.573-35.439c-2.687-23.981-5.29-48.082-7.842-72.245
				C909.637,3384.62,906.066,3396.175,902.579,3407.742z M886.9,3298.822c3.7,26.426,7.467,52.729,11.296,78.94
				c3.84-12.211,7.775-24.397,11.811-36.569c-2.62-25.47-5.189-51.019-7.657-76.684
				C897.099,3275.912,891.893,3287.34,886.9,3298.822z M872.341,3191.658c3.661,27.688,7.372,55.295,11.167,82.749
				c5.379-11.999,10.736-24.015,16.384-35.935c-2.474-26.321-4.848-52.767-7.154-79.29
				C885.842,3169.971,878.923,3180.747,872.341,3191.658z M858.851,3086.496c3.515,28.264,7.092,56.425,10.753,84.442
				c6.913-11.166,14.033-22.246,21.254-33.282c-2.301-26.947-4.484-54.033-6.6-81.2
				C875.57,3066.367,867.163,3076.408,858.851,3086.496z M846.458,2981.905c1.903,16.279,3.549,32.028,5.525,48.469
				c1.511,12.635,3.073,25.204,4.618,37.788c8.525-10.125,17.341-20.108,26.258-30.048c-0.896-11.594-1.797-23.181-2.642-34.827
				c-1.181-16.118-2.088-31.594-3.202-47.554C866.631,2964.342,856.421,2973.059,846.458,2981.905z M834.781,2879.386
				c3.107,28.361,6.488,57.342,9.824,86.205c10.227-8.911,20.593-17.743,31.29-26.405c-1.87-27.344-3.812-54.848-5.497-81.736
				C858.291,2864.615,846.435,2871.938,834.781,2879.386z M824.235,2778.213c2.922,28.702,5.687,57.045,8.855,86.277
				c11.878-7.474,23.93-14.85,36.3-22.026c-1.696-27.596-3.034-54.299-4.528-81.414
				C851.098,2766.626,837.529,2772.319,824.235,2778.213z M814.249,2678.321c2.642,28.097,5.665,57.011,8.547,85.62
				c13.507-5.901,27.255-11.64,41.276-17.196c-1.455-26.979-2.984-54.086-4.249-80.604
				C844.358,2670.002,829.172,2674.065,814.249,2678.321z M805.534,2579.528c2.413,28.117,4.825,56.237,7.49,84.905
				c15.147-4.237,30.501-8.332,46.208-12.168c-1.254-26.853-2.357-53.339-3.409-79.712
				C838.727,2574.628,822.019,2576.993,805.534,2579.528z M797.524,2481.877c2.161,27.726,4.394,55.64,6.795,83.913
				c16.675-2.51,33.619-4.818,50.927-6.851c-1.036-26.53-1.881-52.592-2.715-78.633
				C833.852,2480.559,815.531,2481.097,797.524,2481.877z M790.325,2385.436c1.881,27.206,4.058,55.074,6.18,82.812
				c18.198-0.754,36.759-1.222,55.623-1.434c-0.8-25.921-1.702-52.078-2.312-77.538
				C829.642,2387.717,809.799,2386.417,790.325,2385.436z M784.336,2289.782c1.612,27.238,3.079,54.149,4.965,82.025
				c19.72,1.02,39.815,2.345,60.224,3.946c-0.593-26.012-0.884-51.26-1.254-76.737
				C826.62,2295.637,805.304,2292.556,784.336,2289.782z M779.018,2195.602c1.383,26.712,2.939,53.853,4.528,81.044
				c21.153,2.782,42.659,5.87,64.506,9.261c-0.347-25.456-0.621-50.686-0.795-75.703
				C824.151,2205.014,801.414,2200.144,779.018,2195.602z M501.547,4917.831c-6.51-10.872-13.132-21.836-19.569-32.658l6.325,14.376
				c6.79,11.927,13.574,23.84,20.448,35.832L501.547,4917.831z M576.957,5042.746c-10.21-16.749-20.28-33.374-30.339-50.006
				c4.204,10.016,8.352,19.972,12.611,30.041c9.863,16.942,19.922,34.054,29.936,51.128
				C585.051,5063.484,580.999,5053.111,576.957,5042.746z M654.372,5168.634c-12.841-20.72-25.581-41.354-38.203-61.891
				c5.385,13.474,10.77,26.959,16.267,40.517c12.393,20.9,24.887,41.88,37.504,62.97
				C664.688,5196.309,659.516,5182.458,654.372,5168.634z M733.879,5295.921c-14.923-23.69-29.745-47.308-44.4-70.77
				c6.157,16.183,12.376,32.424,18.679,48.737c14.319,23.724,28.771,47.548,43.37,71.504
				C745.561,5328.839,739.695,5312.356,733.879,5295.921z M815.268,5424.117c-16.709-26.132-33.244-52.123-49.639-77.997
				c6.6,18.296,13.305,36.667,20.112,55.12c16.071,26.192,32.32,52.527,48.721,78.99
				C827.986,5461.462,821.565,5442.744,815.268,5424.117z M898.297,5553.074c-18.013-27.777-35.875-55.426-53.541-82.916
				c6.902,20.048,13.804,40.098,20.89,60.304c17.403,27.915,34.974,55.964,52.729,84.172
				C911.585,5594.045,904.896,5573.527,898.297,5553.074z M982.814,5682.551c-19.222-29.254-38.243-58.338-57.101-87.29
				c7.103,21.661,14.33,43.413,21.629,65.217c18.556,29.325,37.291,58.813,56.222,88.455
				C996.573,5726.758,989.643,5704.621,982.814,5682.551z M1068.423,5811.968c-20.146-30.28-40.107-60.403-59.877-90.371
				c7.243,23.125,14.57,46.3,22.015,69.555c19.541,30.455,39.284,61.086,59.211,91.865
				C1082.579,5859.295,1075.459,5835.613,1068.423,5811.968z M1155.001,5941.381c-20.856-30.982-41.528-61.794-62.004-92.465
				c7.355,24.443,14.794,48.913,22.318,73.441c20.33,31.288,40.857,62.73,61.579,94.347
				C1169.537,5991.579,1162.238,5966.472,1155.001,5941.381z M1242.121,6069.951c-21.366-31.375-42.542-62.599-63.516-93.658
				c7.529,25.913,15.141,51.843,22.804,77.781c20.907,31.776,42.032,63.732,63.331,95.839
				C1257.156,6123.279,1249.627,6096.625,1242.121,6069.951z M1329.37,6197.447c-21.618-31.423-43.051-62.697-64.305-93.817
				c7.725,27.291,15.489,54.55,23.292,81.788c21.332,32.053,42.866,64.269,64.585,96.649
				C1345.083,6253.929,1337.212,6225.731,1329.37,6197.447z M1416.457,6323.461c-21.674-31.198-43.152-62.231-64.478-93.142
				c8.021,28.818,16.054,57.559,24.081,86.225c21.545,32.022,43.263,64.191,65.189,96.527l-5.11-18.47L1416.457,6323.461z
				 M1502.688,6446.938c-21.483-30.638-42.782-61.139-63.935-91.509l9.88,35.714l15.287,55.242
				c21.556,31.709,43.28,63.576,65.189,95.576C1520.387,6510.492,1511.582,6478.823,1502.688,6446.938z M1587.58,6567.463
				c-21.019-29.719-41.892-59.323-62.603-88.79c8.978,32.273,17.89,64.368,26.689,96.207c21.321,31.072,42.81,62.274,64.467,93.621
				C1606.757,6635.107,1597.247,6601.456,1587.58,6567.463z M1670.525,6684.268c-20.258-28.414-40.42-56.746-60.403-84.945
				c9.723,34.334,19.317,68.384,28.727,102.096c20.834,30.092,41.853,60.337,62.995,90.683
				C1691.633,6756.591,1681.16,6720.604,1670.525,6684.268z M1750.805,6796.469c-19.211-26.745-38.388-53.464-57.358-80.017
				c10.652,36.558,21.069,72.659,31.268,108.393c20.129,28.818,40.353,57.725,60.745,86.769
				C1774.203,6873.769,1762.644,6835.386,1750.805,6796.469z M1682.414,6678.653c18.746,26.289,37.616,52.68,56.591,79.159
				c-36.709-119.968-75.897-244.975-116.72-375.185c-149.164-475.81-320.074-1021.027-471.421-1643.69
				c133.547,606.092,293.609,1141.603,434.841,1614.054C1619.206,6465.064,1651.633,6573.547,1682.414,6678.653z M1599.509,6561.915
				c19.832,28.035,39.776,56.166,59.877,84.417c-27.607-93.83-56.429-190.29-86.118-289.635
				c-165.442-553.437-356.716-1193.339-501.01-1931.923c122.228,725.41,304.877,1361.777,465.264,1920.484
				C1558.641,6418.828,1579.346,6491.001,1599.509,6561.915z M1514.594,6441.368c20.633,29.421,41.383,58.939,62.323,88.608
				c-16.966-59.474-34.285-119.838-51.889-181.169c-181.557-632.46-391.611-1364.334-510.436-2212.467
				c90.093,836.669,295.333,1571.901,476.537,2220.942L1514.594,6441.368z M1428.391,6317.981
				c21.12,30.391,42.424,60.922,63.879,91.586l-13.636-48.829c-192.674-690.121-412.518-1477.598-492.468-2381.043l-5.284-27.88
				C1022.26,4825.44,1232.505,5609.388,1428.391,6317.981z M1341.338,6192.021c21.383,31.065,42.944,62.288,64.685,93.646
				c-200.001-724.455-411.678-1527.298-441.771-2423.964c-3.079-16.968-6.129-33.997-9.163-51.068
				C940.278,4660.479,1135.941,5451.317,1341.338,6192.021z M1254.033,6064.481c21.399,31.422,42.989,63.003,64.769,94.738
				C1111.614,5409.072,917.653,4607.6,943.626,3745.232c-3.75-21.668-7.456-43.409-11.128-65.233
				C857.065,4496.101,1036.332,5290.351,1254.033,6064.481z M1166.968,5936.019c21.198,31.48,42.609,63.126,64.204,94.933
				C1013.561,5251.975,838.117,4452.55,924.264,3630.45c-4.047-24.592-8.038-49.296-11.984-74.084
				C772.183,4330.611,933.74,5126.208,1166.968,5936.019z M1080.363,5806.587c20.801,31.261,41.814,62.69,63.029,94.283
				c-231.325-810.759-387.273-1607.355-237.202-2383.174c-4.165-26.66-8.268-53.443-12.303-80.329
				C685.27,4162.733,828.131,4958.38,1080.363,5806.587z M994.742,5677.156c20.207,30.754,40.633,61.677,61.248,92.763
				C807.448,4924.09,671.584,4130.601,889.273,3406.516c-4.142-27.993-8.184-56.141-12.186-84.38
				C596.37,3992.394,719.796,4787.426,994.742,5677.156z M910.147,5547.615c19.463,30.001,39.116,60.155,58.97,90.481
				C699.79,4753.89,584.604,3963.701,873.483,3296.633c-4.019-28.741-7.954-57.634-11.816-86.628
				C505.426,3819.341,608.724,4613.216,910.147,5547.615z M827.28,5418.924c18.494,28.91,37.168,57.979,56.043,87.213
				c-293.715-925.742-387.614-1712.468-24.473-2317.486c-3.862-29.281-7.657-58.677-11.363-88.215
				C412.495,3643.604,495.401,4436.393,827.28,5418.924z M745.729,5290.507c17.358,27.544,34.912,55.255,52.628,83.105
				c-321.641-970.354-393.632-1753.471,46.868-2291.53c-2.066-16.691-4.125-33.405-6.141-50.187
				c-1.595-13.311-2.916-26.023-4.461-39.222C317.191,3464.605,379.386,4256.431,745.729,5290.507z M666.166,5163.124
				c15.987,25.788,32.113,51.695,48.43,77.755c-353.178-1018.401-402.94-1798.268,118.148-2264.662
				c-3.465-29.864-6.919-59.688-10.137-89.02c-445.555,292.679-539.191,801.231-394.107,1486.425
				C479.694,4615.386,560.624,4879.176,666.166,5163.124z M588.684,5037.177c14.307,23.469,28.816,47.098,43.403,70.808
				c-95.08-261.91-168.57-506.311-216.284-731.669c-147.076-694.62-50.68-1209.321,405.101-1504.021
				c-3.252-29.96-6.146-59.127-9.146-88.523C219.184,3054.54,149.83,3675.327,425.017,4571.265
				C470.453,4719.178,525.32,4874.639,588.684,5037.177z M513.235,4912.209c12.382,20.68,24.803,41.401,37.42,62.276
				c-52.611-138.537-98.814-271.763-138.025-399.413c-278.456-906.576-206.623-1533.824,397.684-1805.58
				c-2.95-29.215-6.062-58.791-8.766-87.473c-659.404,195.008-763.015,789.349-481.502,1697.844
				C371.796,4546.886,436.593,4724.554,513.235,4912.209z M440.315,4789.286c9.785,16.664,19.731,33.455,29.673,50.251
				c-63.303-159.581-117.65-311.663-162.329-455.866c-284.966-919.64-178.685-1520.37,492.664-1715.546
				c-2.72-29.24-5.15-57.837-7.613-86.503C65.536,2699.748-72.802,3267.263,215.081,4188.43
				C273.256,4374.573,348.823,4575.162,440.315,4789.286z M847.045,2122.436c-24.461-6.982-48.548-13.604-72.27-19.895
				c1.075,26.25,2.317,52.904,3.644,79.751c22.575,4.563,45.514,9.438,68.811,14.649
				C847.084,2171.886,846.978,2146.93,847.045,2122.436z M932.94,2147.871c-24.696-7.578-49.023-14.804-73.026-21.732
				c-0.05,24.243,0.062,48.931,0.218,73.721c22.872,5.204,46.102,10.736,69.662,16.565
				C930.79,2193.399,931.787,2170.397,932.94,2147.871z M1019.165,2175.208c-24.859-8.119-49.37-15.924-73.563-23.416
				c-1.131,22.285-2.11,45.018-3.084,67.792c23.107,5.796,46.544,11.892,70.317,18.294
				C1014.911,2216.847,1016.987,2195.803,1019.165,2175.208z M1105.518,2204.221c-24.943-8.605-49.544-16.891-73.849-24.899
				c-2.144,20.375-4.193,41.184-6.23,61.982c23.264,6.338,46.835,12.941,70.736,19.849
				C1099.271,2242.071,1102.372,2222.95,1105.518,2204.221z M1191.844,2234.727c-24.959-9.029-49.583-17.743-73.932-26.205
				c-3.112,18.515-6.157,37.41-9.219,56.282c23.359,6.819,47.003,13.903,70.949,21.258
				C1183.711,2268.867,1187.786,2251.645,1191.844,2234.727z M1277.861,2266.515c-24.881-9.379-49.454-18.471-73.765-27.323
				c-4.008,16.717-8.032,33.732-12.046,50.707c23.364,7.24,47.008,14.741,70.938,22.495L1277.861,2266.515z M1363.264,2299.361
				c-24.685-9.664-49.124-19.081-73.278-28.244l-14.677,45.286c23.275,7.596,46.813,15.435,70.625,23.52
				C1351.738,2326.365,1357.565,2312.794,1363.264,2299.361z M1447.787,2333.007c-24.4-9.878-48.559-19.535-72.444-28.927
				c-5.625,13.259-11.38,26.66-17.112,40.041c23.079,7.891,46.387,15.99,69.964,24.333
				C1434.761,2356.625,1441.349,2344.782,1447.787,2333.007z M1531.011,2367.192c-23.935-9.976-47.635-19.731-71.128-29.278
				c-6.331,11.615-12.83,23.28-19.306,34.946c22.709,8.084,45.648,16.384,68.816,24.885
				C1516.642,2387.562,1523.908,2377.377,1531.011,2367.192z M1612.54,2401.626c-23.292-9.969-46.387-19.744-69.259-29.312
				c-6.98,10.022-14.145,20.043-21.282,30.066c22.155,8.175,44.54,16.56,67.115,25.119
				C1596.967,2418.88,1604.832,2410.275,1612.54,2401.626z M1691.796,2435.961c-22.401-9.815-44.629-19.465-66.667-28.928
				c-7.551,8.496-15.292,16.949-23,25.405c21.383,8.15,42.956,16.464,64.702,24.957
				C1675.188,2450.259,1683.534,2443.136,1691.796,2435.961z M1769.221,2469.127c-20.543-8.676-40.795-17.081-62.049-26.433
				l-2.149-0.943c-8.021,7.007-16.194,13.949-24.344,20.903c21.355,8.312,41.887,15.844,62.586,23.533
				C1751.953,2480.519,1760.589,2474.827,1769.221,2469.127z M1844.24,2501.076c-20.039-8.457-40.325-17.152-60.566-25.796
				c-8.352,5.571-16.826,11.076-25.267,16.6c19.642,7.344,39.67,15.038,59.183,22.253
				C1826.613,2509.869,1835.323,2505.405,1844.24,2501.076z M1917.663,2531.07c-18.92-7.521-37.912-15.098-57.414-23.17
				c-8.475,4.178-17.017,8.312-25.503,12.478c19.491,6.994,38.175,13.245,57.011,19.634
				C1900.613,2537.185,1908.958,2534,1917.663,2531.07z M1988.808,2559.225c-17.358-6.837-34.733-13.68-52.259-20.682
				c-8.144,2.821-16.233,5.687-24.405,8.489c16.821,5.732,34.005,11.795,50.77,17.482
				C1971.707,2562.878,1980.215,2561.018,1988.808,2559.225z M2056.824,2585.39c-15.086-5.582-30.546-11.516-46.023-17.463
				c-7.462,1.639-14.699,3.445-22.222,5.036c15.573,5.056,30.484,9.502,45.615,14.142
				C2041.749,2586.546,2049.457,2586.099,2056.824,2585.39z M2120.602,2608.554c-11.945-4.356-23.717-8.547-35.74-12.979
				c-5.665,0.624-11.066,1.45-16.787,2.033c11.206,3.38,22.939,7.24,34.083,10.568
				C2108.254,2608.26,2114.585,2608.54,2120.602,2608.554z M2173.835,2627.875c-5.48-1.892-11.396-4.198-16.933-6.149
				c-2.2,0.033-4.276,0.176-6.493,0.195c7.092,2.015,13.994,3.836,20.935,5.707L2173.835,2627.875z M2936.038,0
				c514.164,978.236,1560.656,3316.832-564.1,2691.275c-44.758-9.521-91.167-20.532-139.323-33.153
				c-38.237-6.746-77.095-14.044-117.386-22.617c-42.575-4.978-86.454-11.08-132.041-18.686
				c-35.729-2.338-72.343-5.42-109.992-9.377c-37.974,0.26-77.045-0.343-117.364-1.976c-33.983,2.82-68.912,4.92-104.736,6.324
				c-33.378,5.947-67.652,11.257-102.866,15.885c-31.038,8.994-62.933,17.431-95.562,25.374
				c-28.889,12.347-58.472,24.299-88.772,35.829c-20.537,12.329-41.198,24.606-62.486,36.576
				c-8.077,4.545-15.707,9.289-23.638,13.897c-5.525,4.608-10.971,9.235-16.63,13.798c-20.985,16.916-41.226,34.12-61.019,51.486
				c-24.461,28.361-48.077,56.965-70.479,85.911c-20.319,34.496-39.731,69.171-58.007,104.046
				c-15.679,39.839-30.451,79.751-44.226,119.714c-11.481,46.605-22.004,93.139-31.598,139.609
				c-6.846,52.389-12.734,104.546-17.817,156.506c-2.189,57.992-3.538,115.601-4.103,172.846
				c2.547,65.42,5.883,130.268,9.969,194.539c7.394,71.178,15.5,141.571,24.243,211.209
				c12.382,77.732,25.374,154.441,38.903,230.158c174.705,842.186,398.658,1556.673,587.665,2159.594
				c45.01,143.568,88.033,280.817,127.943,411.985C2250.158,7469.523,2812.83,8208.538,3444.492,9000h-16.585
				c-619.588-776.56-1172.762-1502.661-1653.637-2170.848c11.822,39.101,23.347,77.647,34.548,115.654
				c446.915,635.104,957.558,1322.36,1525.889,2055.194h-16.384c-556.711-718.048-1058.017-1392.343-1498.209-2016.673
				c8.592,29.447,16.989,58.57,25.161,87.361c2.782,9.801,5.486,19.478,8.206,29.2
				C2259.651,7690.612,2718.774,8325.794,3225.04,9000h-16.222c-495.183-659.633-945.204-1281.898-1344.64-1861.72
				c10.938,39.574,21.427,78.509,31.425,116.814c365.482,545.827,773.93,1128.934,1219.843,1744.905h-15.976
				c-435.529-601.777-835.285-1172.198-1194.122-1707.118c10.048,39.339,19.591,78.055,28.486,116.022
				C2259.035,7909.752,2618.097,8441.267,3005.979,9000h-15.746c-378.328-545.086-729.222-1064.271-1047.958-1554.329
				c8.738,38.617,16.854,76.54,24.288,113.774c285.755,456.294,597.316,937.368,930.107,1440.555h-15.556
				c-324.11-490.154-628.057-959.324-907.611-1405.049c7.137,37.559,13.524,74.382,19.132,110.504
				c247.496,412.587,513.817,844.782,794.854,1294.545h-15.281c-273.418-437.636-532.871-858.606-774.596-1261.093
				c5.167,36.058,9.555,71.413,13.031,106.034c210.894,370.356,434.729,755.88,667.862,1155.06h-14.996
				c-226.544-387.929-444.267-762.952-649.882-1123.699c2.939,34.107,4.915,67.448,6.029,100.164
				c131.279,245.74,267.015,497.772,405.935,755.73c47.697,88.577,95.78,177.851,144.177,267.805h-14.733
				c-47.282-87.868-94.257-175.101-140.868-261.657c-134.627-249.978-266.27-494.437-393.766-732.964
				c0.577,32.035,0.269,63.42-1.108,94.084l6.197,12.568c142.094,288.056,288.196,584.216,435.792,887.969h-14.414
				c-145.145-298.645-289.036-590.377-429.075-874.263c-1.914,29.649-4.792,58.663-8.682,87.045
				c114.313,256.631,229.746,519.173,344.021,787.218h-14.078c-110.647-259.434-222.492-513.994-333.408-763.14
				c-4.349,27.271-9.745,53.892-16.076,79.979c87.193,223.982,173.121,451.81,255.848,683.161h-13.753
				c-80.123-223.93-163.236-444.537-247.563-661.518c-6.672,24.975-14.363,49.386-23.012,73.277
				c62.581,193.844,122.172,389.982,177.146,588.24h-13.451c-53.188-191.595-110.681-381.216-171.011-568.697
				c-8.878,22.739-18.735,44.982-29.533,66.74c40.487,166.241,76.782,333.59,107.501,501.957h-13.16
				c-29.673-162.362-64.545-323.81-103.365-484.241c-10.893,20.636-22.732,40.802-35.483,60.54
				c20.856,141.04,36.72,282.278,46.454,423.701h-12.986c-9.376-135.942-24.428-271.743-44.154-407.374
				c-12.673,18.638-26.303,36.831-40.767,54.657c3.616,118.024,1.808,235.596-6.359,352.717h-13.014
				c7.853-112.111,9.852-224.657,6.812-337.64c-14.251,16.749-29.314,33.133-45.239,49.166
				c-11.218,97.053-27.977,193.195-51.05,288.474h-13.361c22.06-90.507,38.388-181.835,49.639-273.999
				c-15.455,14.871-31.643,29.441-48.626,43.688c-23.577,77.931-52.555,154.686-87.518,230.311h-14.318
				c32.97-70.698,60.644-142.41,83.532-215.169c-16.02,12.81-32.813,25.321-50.143,37.624
				c-33.21,60.441-71.363,119.61-114.946,177.545h-16.328c39.983-52.493,75.45-106.04,106.762-160.647
				c-15.724,10.606-31.884,21.031-48.682,31.236c-39.452,44.336-83.107,87.465-131.308,129.411h-19.955
				c40.745-34.829,78.287-70.496,112.852-107.008c-12.292,6.908-24.82,13.725-37.61,20.458
				c-41.344,29.845-85.906,58.688-133.86,86.55h-26.269c26.068-14.74,51.156-29.768,75.293-45.071
				c-34.128,15.559-69.88,30.578-107.311,45.071h-36.737c81.797-30.273,155.774-62.979,222.458-98.209
				c46.012-33.394,87.842-68.105,125.945-104.098c33.916-43.682,64.014-88.526,90.557-134.564
				c21.539-53.717,39.737-108.393,54.655-164.125c9.538-63.872,16.076-128.525,19.843-194
				c-2.032-72.934-6.499-146.387-13.166-220.381c-12.477-80.187-26.756-160.601-42.575-241.229
				c-21.327-85.62-43.778-171.157-67.131-256.587c-28.301-89-57.112-177.602-86.214-265.809
				c-33.507-90.729-66.98-180.808-100.213-270.216c-36.821-90.3-73.155-179.734-108.845-268.306
				c-39.267-89.884-77.677-178.729-115.131-266.525c-41.109-89.52-81.086-177.85-119.805-264.958
				c-41.338-86.791-81.366-172.324-119.995-256.561c-41.719-85.153-81.954-168.961-120.655-251.388
				c-42.278-84.419-82.917-167.388-121.876-248.872c-42.178-82.813-82.715-164.191-121.394-243.955
				c-41.87-81.078-82.01-160.653-120.264-238.61c-41.321-79.107-80.818-156.649-118.461-232.618
				c-41.372-78.453-80.834-155.265-118.366-230.442c-41.265-77.613-80.543-153.542-117.845-227.782
				C103.98,4212.268,49.936,4107.203,0,4005.646v-56.127c28.083,63.134,57.907,127.767,89.471,193.89
				C57.381,4070.112,27.529,3998.753,0,3929.367v-35.329c57.733,147.972,126.214,305.174,204.983,471.19
				C122.055,4175.023,53.434,3997.055,0,3831.996v-42.855c1.724,5.491,3.364,10.925,5.122,16.448
				c71.061,223.721,170.457,471.574,296.223,741.984l7.501,13.409c-85.693-199.686-156.474-386.683-211.118-560.099
				C55.455,3866.733,22.748,3740.638,0,3622.851v-75.941c22.077,137.806,59.037,288.024,110.115,450.113
				c64.573,204.933,151.593,428.75,259.363,670.292c6.784,11.804,13.563,23.598,20.431,35.464
				c-74.554-180.365-137.297-350.746-187.216-510.488C-88.844,3259.412,52.259,2685.483,791.495,2567.876
				c-2.441-28.722-4.73-57.116-6.907-85.277C326.758,2505.847,75.086,2694.79,0,3029.035v-60.448
				c90.289-305.903,342.963-478.326,783.563-499.668c-2.149-28.16-4.349-56.432-6.252-84.046
				C392.479,2367.816,137.75,2460.157,0,2651.337v-27.699c142.346-182.426,397.046-269.866,776.292-252.485
				c-1.914-28.22-3.387-55.479-5.004-83.054c-191.174-24.354-353.564-23.546-488.253,1.364
				C169.046,2310.548,74.957,2348.969,0,2404.037v-16.209c75.153-53.099,168.492-90.352,280.695-111.103
				c135.338-25.035,298.238-25.959,489.798-1.742c-1.595-27.518-3.157-54.983-4.534-82.006
				c-234.342-46.548-429.378-57.536-586.708-34.687C112.78,2167.943,53.076,2183.682,0,2205.337v-14.117
				c52.796-20.957,111.895-36.257,177.42-45.773c157.946-22.941,353.419-12.1,587.94,34.238c-1.332-27.134-2.575-54.054-3.633-80.57
				c-277.88-72.627-505.275-98.097-684.167-78.919c-26.963,2.891-52.802,6.816-77.56,11.737v-13.259
				c24.361-4.744,49.757-8.538,76.194-11.371c179.469-19.239,407.122,6.024,684.923,78.302
				C715.822,913.941,916.612,308.672,1163.224,0h16.143c-247.81,303.727-451.622,907.058-405.213,2088.995
				c23.913,6.32,48.206,12.986,72.863,20C852.385,907.582,1089.285,302.965,1342.793,0h15.959
				c-254.146,297.805-494.237,900.069-498.877,2112.672c24.226,6.968,48.777,14.233,73.709,21.864
				C997.972,912.978,1263.437,303.818,1512.483,0h15.511c-249.008,298.585-517.511,905.23-581.76,2138.448
				c24.439,7.56,49.203,15.417,74.33,23.606C1152.151,933.878,1434.588,312.278,1667.127,0h15.046
				c-231.963,307.404-516.985,927.069-649.121,2166.16c24.568,8.08,49.449,16.444,74.66,25.128
				C1313.742,973.296,1598.535,328.429,1803.708,0h14.783c-204.389,324.336-491.13,968.053-698.385,2195.583
				c24.635,8.545,49.555,17.358,74.795,26.477C1481.462,1031.321,1753.1,351.149,1922.661,0h14.313
				c-168.918,348.479-441.72,1028.813-729.827,2226.517c24.618,8.959,49.516,18.154,74.716,27.656
				C1653.861,1107.038,1897.601,379.207,2026.216,0h13.68c-128.24,378.019-372.445,1107.102-745.909,2258.768
				c24.512,9.288,49.292,18.847,74.33,28.648C1829.585,1198.551,2032.318,411.308,2117.081,0h13.227
				c-84.618,411.354-287.474,1200.436-749.905,2292.142c24.288,9.554,48.844,19.373,73.653,29.414
				C2007.879,1303.325,2158.442,446.259,2198.028,0h12.964c-39.586,447.183-190.255,1306.23-744.845,2326.458
				c23.958,9.741,48.128,19.685,72.556,29.877C2188.086,1419.243,2277.222,483.162,2271.356,0h12.891
				c5.81,484.739-83.656,1422.558-733.336,2361.449c23.392,9.792,47.008,19.803,70.837,30.006
				C2369.828,1544.535,2389.851,521.408,2338.812,0h12.981c51.01,523.424,30.328,1547.777-717.456,2396.857
				c22.592,9.715,45.396,19.632,68.385,29.719C2553.025,1677.877,2497.464,560.554,2401.813,0h13.121
				c95.674,562.932,150.132,1680.736-698.945,2432.341c22.665,9.962,44.327,18.963,66.258,28.22
				C2737.627,1817.532,2600.94,600.213,2461.371,0h13.316c139.67,602.824,274.667,1819.598-677.982,2466.721
				c20.974,8.924,42.127,18.035,62.939,26.81C2923.751,1962.978,2700.957,640.194,2518.163,0h13.496
				c183.001,642.918,403.578,1964.016-655.995,2500.354c20.817,8.566,40.733,16.281,60.823,24.152
				C3111.063,2112.27,2798.081,680.125,2572.857,0h13.686c225.475,682.802,535.468,2111.476-631.147,2531.988
				c18.651,7.382,37.33,14.811,55.914,22.129C3299.656,2266.026,2892.786,720.239,2625.833,0h13.815
				c267.261,722.818,670.42,2263.415-606.317,2562.824c17.907,6.812,35.024,12.869,52.276,19.049
				C3489.396,2422.593,2985.369,760.099,2677.392,0h13.988c308.129,762.204,807,2416.1-577.679,2592.072
				c14.727,5.327,29.555,10.754,44.249,16.051C3680.43,2582.868,3076.223,800.055,2727.814,0h14.117
				c348.292,801.387,945.719,2571.592-548.561,2620.649c12.639,4.335,24.635,8.065,36.938,12.087
				C3872.124,2744.957,3165.493,839.797,2777.319,0h14.251c387.228,839.291,1083.755,2723.759-511.746,2648.932
				c6.863,2.196,14.016,4.673,20.801,6.805C4065.447,2910.323,3253.386,879.385,2825.945,0h14.447
				c423.976,873.735,1217.469,2863.463-455.585,2679.933C4254.213,3065.795,3338.816,916.403,2873.939,0h14.531
				c456.274,900.798,1336.922,2971.37-358.266,2719.586C4420.78,3174,3417.579,943.057,2921.322,0H2936.038z"/>
		</defs>
		<clipPath id="SVGID_00000059281376789373976170000005800350583518676104_">
			<use xlink:href="#SVGID_1_"  style="overflow:visible;"/>
		</clipPath>
		
			<linearGradient id="SVGID_00000066484827207781193960000012848548710258426278_" gradientUnits="userSpaceOnUse" x1="2292.0435" y1="7404.7061" x2="2159.5212" y2="3036.3044">
			<stop  offset="0" style="stop-color:#ECA769"/>
			<stop  offset="0.47" style="stop-color:#ECA769"/>
			<stop  offset="1" style="stop-color:#ECA769"/>
		</linearGradient>
		
			<rect x="-88.844" style="clip-path:url(#SVGID_00000059281376789373976170000005800350583518676104_);fill:url(#SVGID_00000066484827207781193960000012848548710258426278_);" width="4585.539" height="9000"/>
	</g>
</g>
</svg>
