<svg width="0" height="0" class="hidden"><defs><symbol xmlns="http://www.w3.org/2000/svg" viewBox="0 0 178 80" id="logo-alura"><path d="M46.53 0v79.1h9.2V0h-9.2zm84.3 21.1c-4.5.1-8.5.8-10.9 1.9-2.5 1.1-4.3 2.3-5.6 3.8-2.167 2.586-2.58 4.822-2.7 7.8v44.5h9.3V36.4c.05-3.45 1.89-5 4.4-6.1 2.6-1.2 8.1-.9 9-.9l2.1-8c-1-.1-4.3-.3-5.6-.3zm-112.2.2c-3.3 0-6.1.3-8.4 1-2.3.7-4.3 1.6-5.8 2.8-1.5 1.2-2.6 2.6-3.3 4.2-1.07 2.734-1 4.873-1 7.7h9.3c0-2.1.6-3.9 1.9-5.4 1.3-1.5 3.7-2.2 7.4-2.2 1.8 0 3.3.2 4.5.6 2.106.66 3.4 1.94 4.4 3.7.564 2.34.62 4.873-.1 6.6-.71 1.678-1.695 2.375-3.6 3.4-3.844 1.404-7.667 2.75-11.2 4-1.7.6-3.2 1.1-4.5 1.5-2.6.9-4.6 2.5-6.1 4.8-1.4 2.3-2.1 4.8-2.1 7.5-.05 3.19-.136 6.884.7 9.6.5 1.6 1.4 3 2.8 4.3 1.4 1.3 3.3 2.4 5.7 3.3 2.4.9 5.5 1.3 9.4 1.3 3.9 0 7-.4 9.4-1.3 2.4-.9 4.3-2 5.7-3.3 2.44-2.13 3.405-5.318 3.5-8.6V34.5c-.1-3.8-1.5-6.9-4.5-9.4s-7.7-3.8-14.1-3.8zm140.6 0c-3.3 0-6.1.3-8.4 1-2.3.7-4.3 1.6-5.8 2.8-1.5 1.2-2.6 2.6-3.3 4.2-1.07 2.734-1 4.873-1 7.7h9.3c0-2.1.6-3.9 1.9-5.4 1.3-1.5 3.7-2.2 7.4-2.2 1.8 0 3.3.2 4.5.6 2.106.66 3.4 1.94 4.4 3.7.563 2.34.62 4.873-.1 6.6-.71 1.678-1.69 2.375-3.6 3.4-3.84 1.404-7.667 2.75-11.2 4-1.7.6-3.2 1.1-4.5 1.5-2.6.9-4.6 2.5-6.1 4.8-1.4 2.3-2.1 4.8-2.1 7.5-.054 3.19-.136 6.884.7 9.6.5 1.6 1.4 3 2.8 4.3 1.4 1.3 3.3 2.4 5.7 3.3 2.4.9 5.5 1.3 9.4 1.3 3.9 0 7-.4 9.4-1.3 2.4-.9 4.3-2 5.7-3.3 2.44-2.13 3.404-5.318 3.5-8.6V34.5c-.1-3.8-1.5-6.9-4.5-9.4s-7.7-3.8-14.1-3.8zm-94.1.8v44.6c.046 2.91.61 5.426 2.7 7.8 1.2 1.5 3.1 2.7 5.6 3.8 2.5 1.1 5.9 1.6 10.2 1.6 4.4 0 7.8-.5 10.2-1.6 2.5-1.1 4.3-2.3 5.6-3.8 2.052-2.406 2.686-4.94 2.7-7.9V22.1h-9.2l.1 41.7c-.046 1-.21 2.338-.4 3.3-.68 1.99-2.47 3.113-4.1 3.8-1.99.922-7.85.846-9.9 0-1.707-.652-3.355-1.907-3.9-3.9-.224-1.085-.28-2.14-.4-3.2V22.1h-9.2zm-37.3 28.1.2 13.4c0 2.6-.7 4.6-2 6.1-1.3 1.4-3.8 2.1-7.4 2.1-3.6 0-6-.7-7.3-2-1.3-1.3-2-3.4-2-6.2.05-3.652 2.064-5.677 5.1-7.1 3.595-1.3 7.43-2.607 10.7-3.9 1.166-.363 2.44-1.044 2.7-2.4zm140.6 0 .2 13.4c0 2.6-.7 4.6-2 6.1-1.3 1.4-3.8 2.1-7.4 2.1-3.6 0-6-.7-7.3-2-1.3-1.3-2-3.4-2-6.2.05-3.652 2.066-5.677 5.1-7.1 3.6-1.3 7.43-2.607 10.7-3.9 1.165-.363 2.44-1.044 2.7-2.4z" fill="#191919"/></symbol><symbol xmlns="http://www.w3.org/2000/svg" xmlns:xlink="http://www.w3.org/1999/xlink" viewBox="0 0 101 21" id="logo-caelum"><g id="Page-1" stroke="none" stroke-width="1" fill="none" fill-rule="evenodd"><g id="Desktop-HD" transform="translate(-794 -4854)" fill="#000"><g id="Group" transform="translate(0 4840)"><path d="M839.45 26.41v2.946c-.617.55-1.223.974-1.815 1.273-.592.3-1.294.447-2.11.447-1.418 0-2.124-.683-2.124-2.048 0-.865.342-1.468 1.026-1.818.35-.182.682-.336.999-.452.6-.233 1.94-.348 4.024-.348Zm10.593-5.067c2.001 0 2.999 1.368 2.999 3.997h-6.503c.183-2.629 1.354-3.997 3.504-3.997Zm28.755-1.693c-.716 0-1.052.179-1.052.545v12.154c0 .366.335.551 1.052.551.716 0 1.052-.185 1.052-.551v-9.155l.375-.427c.233-.299.603-.589 1.111-.872.509-.283 1.09-.427 1.75-.427.658 0 1.189.217 1.597.65.408.433.638 1.023.638 1.772v8.459c0 .366.335.551 1.052.551.716 0 1.052-.185 1.052-.551-.025-3.042.033-6.128 0-9.155 1.017-1.148 1.99-1.726 3.025-1.726.783 0 1.38.217 1.788.65.409.433.658 1.023.658 1.772v8.459c0 .366.286.551 1.006.551s1.098-.185 1.098-.551v-8.656c0-.798-.17-1.482-.42-2.048-.25-.565-.59-.99-1.007-1.273-.75-.482-1.594-.722-2.544-.722-1.484 0-2.812.687-3.979 2.068-.567-1.381-1.76-2.068-3.577-2.068-1.373 0-2.579.555-3.623 1.674v-1.129c0-.366-.336-.545-1.052-.545Zm-13.467-.02c-.716 0-1.052.186-1.052.552v8.662c0 1.265.57 2.252 1.296 2.967.725.715 1.78 1.076 3.156 1.076 1.307 0 2.47-.567 3.544-1.693v1.155c0 .365.354.551 1.052.551.698 0 1.052-.164 1.052-.492V20.182c0-.366-.322-.552-1.039-.552-.716 0-1.065.186-1.065.552v9.135c-.9 1.165-1.936 1.745-3.136 1.745-.818 0-1.446-.212-1.888-.636-.442-.425-.868-1.02-.868-1.785v-8.46c0-.365-.335-.55-1.052-.55Zm-15.366-.085c-1.818 0-3.219.578-4.202 1.726-.984 1.148-1.473 2.832-1.473 5.053 0 2.222.499 3.874 1.499 4.955 1 1.082 2.545 1.62 4.63 1.621 1.183 0 2.227-.185 3.136-.551.908-.366 1.36-.71 1.36-1.044 0-.166-.1-.421-.308-.754-.209-.333-.4-.499-.566-.499-.034 0-.21.083-.526.25-.95.532-1.99.8-3.123.8-1.234 0-2.159-.322-2.775-.971-.617-.649-.979-1.52-1.079-2.901h7.904c.584-.19.796-.551.829-1.168 0-4.343-1.772-6.517-5.307-6.517Zm-13.066 0c-1.367 0-2.536.18-3.512.538-.975.358-1.466.714-1.466 1.064 0 .166.107.415.316.748.208.333.392.499.559.499.033 0 .228-.093.578-.276 1.017-.516 2.127-.775 3.328-.775 1.833 0 2.748.696 2.748 2.094v1.175a38.95 38.95 0 0 0-3.88.262 6.506 6.506 0 0 0-3.057 1.201c-.909.658-1.368 1.64-1.368 2.953 0 1.315.394 2.289 1.177 2.92.784.634 1.82.952 3.104.952 1.582 0 2.922-.562 4.024-1.686v1.135c0 .366.336.552 1.052.551.716-.001 1.052-.185 1.052-.551v-8.886c0-1.231-.435-2.19-1.302-2.88-.867-.691-1.986-1.038-3.353-1.038Zm-12.145 0c-1.584 0-2.924.444-4.024 1.326-.584.483-1.046 1.175-1.388 2.074-.342.898-.513 1.967-.513 3.215 0 2.363.509 4.08 1.526 5.145 1.016 1.065 2.562 1.595 4.629 1.595 1.05 0 1.965-.139 2.749-.413.783-.275 1.177-.56 1.177-.86 0-.2-.103-.463-.303-.788-.2-.324-.386-.485-.552-.485a.439.439 0 0 0-.112.04 1.92 1.92 0 0 1-.158.058 6.24 6.24 0 0 1-2.827.65c-1.401 0-2.4-.393-2.992-1.175-.592-.782-1.033-2.049-1.033-3.813 0-3.177 1.357-4.77 3.775-4.77.917 0 1.822.198 2.722.597.033.017.067.03.092.04l.099.039a.286.286 0 0 0 .085.026c.15 0 .321-.17.513-.512.192-.341.29-.624.29-.84 0-.3-.384-.56-1.151-.794-.767-.233-1.637-.355-2.604-.355ZM811.11 16.1c1.237 0 1.827.675 1.827 1.91v12.98c0 1.235-.59 1.91-1.827 1.91h-13.007c-1.237 0-1.999-.675-1.999-1.91.023-7.585 7.107-14.913 15.006-14.89Zm-13.013 0 .526 1.365 1.466.079-1.137.925.374 1.411-1.23-.794-1.23.794.376-1.411-1.138-.925 1.467-.079.526-1.365Zm60.5-2.1c-.715 0-1.051.185-1.051.551v14.904c0 1.281.328 2.176.986 2.684a3.58 3.58 0 0 0 2.242.761c1.217 0 1.822-.249 1.822-.748 0-.166-.051-.4-.151-.709-.1-.308-.225-.466-.375-.466-.034 0-.149.024-.349.066-.2.042-.44.059-.723.059-.9 0-1.348-.613-1.348-1.844V14.55c0-.366-.336-.551-1.052-.551Zm-61.23 0A3.361 3.361 0 0 0 794 17.36v14.28a3.361 3.361 0 0 0 3.367 3.36h14.308a3.361 3.361 0 0 0 3.367-3.36V17.36a3.361 3.361 0 0 0-3.367-3.36h-14.308Z" id="Caelum-Logo"/></g></g></g></symbol><symbol xmlns="http://www.w3.org/2000/svg" xmlns:xlink="http://www.w3.org/1999/xlink" viewBox="0 0 69 31" id="logo-cdc"><defs><path id="path-1" d="M0 .019h68.912v30.168H0V.02Z"/></defs><g id="Page-1" stroke="none" stroke-width="1" fill="none" fill-rule="evenodd"><g id="Desktop-HD" transform="translate(-1101 -4850)"><g id="Group" transform="translate(0 4840)"><g id="CDC-Logo" transform="translate(1101 10)"><path d="M36.388 14.24c-.467.364-.904.585-1.309.665a6.68 6.68 0 0 1-1.295.12 4.225 4.225 0 0 1-1.56-.286 3.415 3.415 0 0 1-1.269-.872c-.36-.39-.647-.889-.858-1.496-.212-.608-.318-1.329-.318-2.162 0-.87.117-1.608.35-2.216.234-.607.542-1.104.926-1.49a3.565 3.565 0 0 1 1.289-.845 4.13 4.13 0 0 1 1.453-.266c.529 0 .96.03 1.295.087a6.97 6.97 0 0 1 1.164.326l-.569.878c-.422-.204-1.026-.306-1.81-.306a3.01 3.01 0 0 0-1.071.2c-.353.133-.668.35-.945.651-.278.302-.5.697-.668 1.185-.167.488-.25 1.086-.25 1.796 0 .638.079 1.197.237 1.676.16.48.377.878.655 1.198.277.319.603.558.977.718.375.16.783.24 1.223.24.397 0 .742-.04 1.038-.12a2.85 2.85 0 0 0 .746-.306l.569.625Z" id="Fill-1" fill="#373435"/><path d="M36.388 25.078c-.467.363-.904.585-1.309.665a6.68 6.68 0 0 1-1.295.12 4.225 4.225 0 0 1-1.56-.286 3.415 3.415 0 0 1-1.269-.872c-.36-.39-.647-.89-.858-1.497-.212-.607-.318-1.328-.318-2.162 0-.869.117-1.607.35-2.215.234-.608.542-1.105.925-1.49a3.568 3.568 0 0 1 1.29-.845 4.13 4.13 0 0 1 1.453-.266c.529 0 .96.029 1.295.086a6.94 6.94 0 0 1 1.164.326l-.57.878c-.422-.204-1.025-.306-1.81-.306-.361 0-.718.067-1.07.2-.353.133-.668.35-.945.652-.278.302-.5.696-.668 1.184-.167.488-.25 1.087-.25 1.796 0 .639.078 1.197.237 1.676.159.48.377.879.655 1.198.277.32.603.559.977.718.375.16.782.24 1.223.24.397 0 .742-.04 1.038-.12.295-.08.544-.182.746-.306l.569.626Z" id="Fill-3" fill="#373435"/><path d="M38.715 14.04c.246 0 .497-.033.753-.1.255-.066.454-.15.595-.252a1.602 1.602 0 0 0 .555-.699v-1.104a9.972 9.972 0 0 0-.754-.026c-.396 0-.797.015-1.202.046-.406.031-.694.162-.866.393-.172.23-.258.457-.258.678 0 .31.11.566.33.765.221.2.503.3.847.3Zm-1.692-5.335a3.8 3.8 0 0 1 1.17-.452c.444-.097.91-.147 1.394-.147.458 0 .826.063 1.103.187.278.124.49.286.635.486.146.2.242.418.29.658.049.24.073.48.073.718 0 .533-.013 1.052-.04 1.557-.026.506-.039.985-.039 1.437 0 .328.06.645.179.952.118.305.31.57.574.791h-.938c-.273 0-.502-.31-.687-.931h-.066c-.08.124-.179.246-.298.365-.118.12-.262.227-.43.32a2.524 2.524 0 0 1-.673.233 3.948 3.948 0 0 1-.846.093 2.27 2.27 0 0 1-.787-.133 1.766 1.766 0 0 1-1.044-.971 1.932 1.932 0 0 1-.152-.785c0-.39.15-.794.45-1.211.3-.417.722-.659 1.268-.725.547-.067 1.124-.1 1.732-.1h.364c.118 0 .24.009.363.027a7.49 7.49 0 0 0 .04-.719c0-.488-.098-.83-.291-1.024-.194-.196-.547-.293-1.058-.293-.15 0-.31.011-.482.033a6.012 6.012 0 0 0-.529.093 4.36 4.36 0 0 0-.516.147 2.588 2.588 0 0 0-.429.193l-.33-.799Z" id="Fill-5" fill="#373435"/><path d="M46.01 13.056c0-.266-.079-.474-.237-.625a2.023 2.023 0 0 0-.588-.38c-.234-.101-.49-.2-.767-.292a3.588 3.588 0 0 1-.767-.36 1.981 1.981 0 0 1-.588-.565c-.158-.23-.238-.54-.238-.931 0-.639.18-1.107.542-1.404.361-.297.864-.446 1.507-.446.476 0 .874.043 1.196.127.322.084.601.184.84.299l-.252.878a4.114 4.114 0 0 0-.733-.259 3.601 3.601 0 0 0-.919-.113c-.388 0-.672.066-.852.2-.181.133-.271.363-.271.691 0 .231.079.41.238.539.158.129.354.244.588.346.233.102.489.202.766.3.278.097.533.225.767.385.233.16.43.361.588.605.159.244.238.566.238.965 0 .284-.046.55-.139.799-.092.248-.236.46-.43.638a2.092 2.092 0 0 1-.72.42 3.023 3.023 0 0 1-1.011.152c-.502 0-.93-.049-1.282-.146a4.022 4.022 0 0 1-.886-.346l.318-.905c.202.115.467.222.793.32.326.097.656.146.991.146.379 0 .692-.075.938-.226.247-.151.37-.422.37-.812" id="Fill-7" fill="#373435"/><path d="M49.81 14.04c.246 0 .497-.033.753-.1.256-.066.454-.15.595-.252a1.6 1.6 0 0 0 .555-.699v-1.104a10.002 10.002 0 0 0-.753-.026c-.397 0-.798.015-1.203.046s-.694.162-.866.393c-.172.23-.258.457-.258.678 0 .31.11.566.33.765.221.2.503.3.847.3Zm-1.692-5.335a3.8 3.8 0 0 1 1.17-.452 6.53 6.53 0 0 1 1.394-.147c.459 0 .826.063 1.104.187.278.124.489.286.634.486.146.2.242.418.291.658.048.24.073.48.073.718 0 .533-.013 1.052-.04 1.557-.026.506-.04.985-.04 1.437 0 .328.06.645.179.952.119.305.31.57.575.791h-.939c-.273 0-.502-.31-.687-.931h-.066c-.08.124-.179.246-.297.365a1.89 1.89 0 0 1-.43.32 2.518 2.518 0 0 1-.674.233 3.948 3.948 0 0 1-.846.093 2.27 2.27 0 0 1-.786-.133 1.766 1.766 0 0 1-1.044-.971 1.937 1.937 0 0 1-.152-.785c0-.39.15-.794.449-1.211.3-.417.723-.659 1.269-.725.546-.067 1.123-.1 1.731-.1h.364c.119 0 .24.009.363.027a7.39 7.39 0 0 0 .04-.719c0-.488-.097-.83-.291-1.024-.194-.196-.547-.293-1.057-.293-.15 0-.311.011-.483.033a6.012 6.012 0 0 0-.528.093c-.181.04-.353.089-.516.147a2.59 2.59 0 0 0-.43.193l-.33-.799Z" id="Fill-9" fill="#373435"/><path d="M59.802 14.094c.449 0 .806-.117 1.07-.353.264-.235.445-.592.542-1.07v-3.3a1.467 1.467 0 0 0-.542-.266 3.267 3.267 0 0 0-.806-.08c-.608 0-1.084.201-1.427.605-.344.404-.516 1.05-.516 1.936 0 .363.028.7.086 1.01.057.312.152.578.284.8.132.221.306.396.522.525.216.129.478.193.787.193Zm2.67-1.517c0 .452.004.863.012 1.23.01.369.05.73.12 1.085h-.714l-.264-.944h-.053c-.177.31-.432.567-.767.77-.335.205-.727.307-1.176.307-.882 0-1.536-.28-1.963-.838-.427-.559-.64-1.432-.64-2.621 0-1.136.266-1.998.799-2.588.533-.59 1.266-.885 2.2-.885.326 0 .584.018.774.054.189.035.394.093.614.172V5.552h1.057v7.025Z" id="Fill-11" fill="#373435"/><path d="M64.22 11.54c0 .336.033.66.099.97.066.311.17.582.31.812.141.23.326.417.555.559.23.142.506.213.833.213 1.198.009 1.797-.843 1.797-2.555 0-.346-.033-.674-.099-.984a2.602 2.602 0 0 0-.31-.812 1.622 1.622 0 0 0-.555-.552c-.23-.138-.507-.207-.833-.207-1.198-.008-1.798.844-1.798 2.555m-1.097 0c0-1.126.25-1.989.747-2.588.498-.598 1.214-.898 2.148-.898.493 0 .923.083 1.289.247.365.164.667.399.905.705.238.306.414.674.528 1.104.115.43.173.907.173 1.43 0 1.127-.25 1.99-.748 2.588-.497.599-1.213.898-2.147.898-.494 0-.923-.082-1.29-.246a2.335 2.335 0 0 1-.904-.705 3.053 3.053 0 0 1-.529-1.104 5.55 5.55 0 0 1-.172-1.43" id="Fill-13" fill="#373435"/><path d="m41.159 16.483-1.612 1.903h-.82l1.15-1.903h1.282Zm-3.674 6.014c0 1.41.793 2.474 1.93 2.474 1.11 0 1.942-1.051 1.942-2.501 0-1.09-.542-2.461-1.916-2.461-1.362 0-1.956 1.277-1.956 2.488Zm5.062-.067c0 2.382-1.652 3.42-3.185 3.42-1.718 0-3.066-1.278-3.066-3.314 0-2.141 1.414-3.405 3.171-3.405 1.837 0 3.08 1.343 3.08 3.3Z" id="Fill-16" fill="#373435"/><path d="M47.78 21.885a2.12 2.12 0 0 0-.052-.493c-.172-.731-.807-1.343-1.679-1.343-1.203 0-1.916 1.064-1.916 2.474 0 1.304.647 2.382 1.89 2.382.78 0 1.493-.532 1.705-1.397.04-.16.053-.32.053-.506v-1.117Zm1.15-5.628v7.783c0 .572.027 1.224.053 1.663h-1.03l-.054-1.118h-.04c-.343.719-1.11 1.264-2.153 1.264-1.547 0-2.75-1.317-2.75-3.273-.013-2.141 1.322-3.445 2.868-3.445.991 0 1.64.465 1.93.97h.027v-3.844h1.149Z" id="Fill-18" fill="#373435"/><path d="M57.113 21.805c0-.2-.013-.373-.066-.519-.212-.692-.767-1.25-1.626-1.25-1.11 0-1.903.944-1.903 2.434 0 1.264.648 2.315 1.89 2.315.727 0 1.374-.452 1.612-1.197.067-.2.093-.426.093-.626v-1.157Zm1.163 2.954c0 1.49-.304 2.38-.912 2.953-.634.572-1.533.771-2.34.771-.766 0-1.611-.186-2.127-.532l.29-.905c.424.28 1.085.519 1.878.519 1.189 0 2.061-.625 2.061-2.261v-.705H57.1c-.344.598-1.044 1.077-2.035 1.077-1.586 0-2.723-1.357-2.723-3.14 0-2.181 1.414-3.405 2.894-3.405 1.11 0 1.705.572 1.996 1.104h.026l.04-.971h1.03c-.039.452-.052.985-.052 1.756v3.739Z" id="Fill-20" fill="#373435"/><path d="M60.197 22.497c0 1.41.793 2.474 1.93 2.474 1.11 0 1.943-1.051 1.943-2.501 0-1.09-.542-2.461-1.917-2.461-1.36 0-1.956 1.277-1.956 2.488m5.062-.067c0 2.381-1.652 3.42-3.185 3.42-1.718 0-3.066-1.278-3.066-3.314 0-2.141 1.414-3.405 3.172-3.405 1.837 0 3.079 1.344 3.079 3.3" id="Fill-22" fill="#373435"/><mask id="mask-2" fill="#fff"><use xlink:href="#path-1"/></mask><path d="M50.085 19.264h1.163v6.439h-1.163v-6.44Zm1.295-1.81c0 .4-.277.719-.74.719-.423 0-.7-.32-.7-.718 0-.4.29-.732.727-.732.422 0 .713.32.713.732Z" id="Fill-24" fill="#373435" mask="url(#mask-2)"/><path d="M23.263 10.902V5.267v.151H5.288v19.37h17.975v.202-5.635H10.656v-8.453h12.607Z" id="Fill-26" fill="#FFCE2B" mask="url(#mask-2)"/><path d="M10.786 24.787H5.288V5.418h17.975V.02H5.288L0 5.419v19.368l5.288 5.4h17.975v-5.4H10.786Z" id="Fill-27" fill="#F58635" mask="url(#mask-2)"/></g></g></g></g></symbol><symbol xmlns="http://www.w3.org/2000/svg" xmlns:xlink="http://www.w3.org/1999/xlink" viewBox="0 0 129 38" id="logo-cdc-cinza"><g id="Page-1" stroke="none" stroke-width="1" fill="none" fill-rule="evenodd"><g id="Desktop-HD" transform="translate(-684 -3989)"><g id="Footer" transform="translate(0 3808)"><g id="logo-casadocodigo" transform="translate(683.581 180.567)"><path d="M7.356 7.258v24.039h22.456v-6.743h-15.75v-10.49h15.75V7.258H7.355Z" id="Shape" fill="#F5F7F8"/><path d="m7.356.557-6.607 6.7v24.04L7.356 38h22.456v-6.702H7.355V7.258h22.457V.557H7.356Z" id="Shape" fill="#9898A6"/><path d="M80.69 17.987a1.957 1.957 0 0 0-.68-.672c-.282-.168-.622-.251-1.022-.251-1.468-.01-2.203 1.027-2.203 3.112 0 .41.04.804.121 1.182.082.38.207.708.38.988.174.282.4.509.681.682.282.172.622.258 1.021.258 1.47.012 2.204-1.026 2.204-3.11 0-.422-.04-.821-.121-1.2a3.127 3.127 0 0 0-.381-.99Zm-8.998-.875c-.744 0-1.328.246-1.75.737-.42.491-.631 1.277-.631 2.357 0 .444.035.854.105 1.232.07.379.186.703.348.972.162.27.375.484.64.64.264.156.586.235.964.235.551 0 .988-.142 1.312-.43.324-.286.545-.72.664-1.304v-4.018a1.805 1.805 0 0 0-.664-.324c-.248-.065-.577-.097-.988-.097Zm25.805-.121c-1.67 0-2.399 1.555-2.399 3.03 0 1.718.973 3.013 2.366 3.013 1.362 0 2.383-1.28 2.383-3.046 0-1.328-.664-2.997-2.35-2.997Zm-49.921 2.795c-.487 0-.978.02-1.475.057-.497.038-.85.197-1.062.477-.21.282-.315.557-.315.827 0 .378.135.688.405.932.27.243.616.364 1.038.364.302 0 .609-.04.922-.121.314-.08.557-.184.73-.308a1.945 1.945 0 0 0 .68-.85v-1.346a15.592 15.592 0 0 0-.924-.031Zm13.602 0c-.486 0-.978.02-1.474.057-.497.038-.85.197-1.06.477-.212.281-.317.557-.317.827 0 .378.135.688.406.932.27.243.615.364 1.037.364.301 0 .61-.04.923-.121.314-.08.557-.184.73-.308a1.969 1.969 0 0 0 .68-.85v-1.346c-.152-.01-.306-.019-.462-.024a15.693 15.693 0 0 0-.463-.008Zm44.421-2.746c-1.475 0-2.35 1.296-2.35 3.013 0 1.588.794 2.9 2.317 2.9.956 0 1.83-.648 2.09-1.7a2.48 2.48 0 0 0 .065-.616v-1.362c0-.178-.016-.42-.065-.6-.21-.89-.988-1.635-2.057-1.635Zm19.744-.049c-1.67 0-2.398 1.555-2.398 3.03 0 1.718.972 3.013 2.365 3.013 1.362 0 2.382-1.28 2.382-3.046 0-1.328-.665-2.997-2.35-2.997Zm-8.254.031c-1.361 0-2.333 1.151-2.333 2.966 0 1.54.794 2.82 2.317 2.82.89 0 1.685-.552 1.977-1.459.08-.242.113-.518.113-.762v-1.409c0-.243-.016-.454-.081-.632-.26-.842-.94-1.524-1.993-1.524Z" id="Shape"/><path d="M41.701 23.075a4.936 4.936 0 0 1-1.271.146 3.814 3.814 0 0 1-1.5-.291 3.29 3.29 0 0 1-1.199-.875c-.34-.39-.607-.876-.801-1.46-.195-.582-.292-1.263-.292-2.04 0-.865.103-1.594.308-2.188.205-.594.478-1.075.818-1.442a3.02 3.02 0 0 1 1.158-.795c.432-.162.87-.243 1.313-.243.961 0 1.702.123 2.22.373l.697-1.07a8.525 8.525 0 0 0-1.426-.396c-.411-.07-.94-.105-1.589-.105a5.06 5.06 0 0 0-1.781.324 4.364 4.364 0 0 0-1.58 1.028c-.47.47-.849 1.076-1.135 1.815-.286.74-.43 1.64-.43 2.698 0 1.015.13 1.893.39 2.633.259.739.61 1.347 1.053 1.822.443.476.963.83 1.555 1.061a5.222 5.222 0 0 0 1.913.349c.561 0 1.091-.049 1.589-.146.496-.097 1.03-.367 1.604-.81l-.697-.762c-.25.153-.555.277-.917.374Zm50.44-.301a4.935 4.935 0 0 1-1.272.147c-.54 0-1.04-.097-1.498-.292a3.267 3.267 0 0 1-1.199-.876c-.34-.388-.608-.875-.802-1.458-.194-.583-.291-1.264-.291-2.042 0-.864.102-1.593.307-2.187.205-.594.478-1.075.818-1.443.34-.366.726-.632 1.158-.794a3.699 3.699 0 0 1 1.313-.243c.961 0 1.7.124 2.22.373l.697-1.07a8.557 8.557 0 0 0-1.426-.396c-.411-.071-.94-.106-1.588-.106-.606 0-1.2.108-1.783.324a4.38 4.38 0 0 0-1.58 1.03c-.47.47-.848 1.074-1.134 1.814-.286.74-.43 1.64-.43 2.697 0 1.016.13 1.894.39 2.633.26.74.61 1.348 1.053 1.823.443.476.962.83 1.556 1.061a5.22 5.22 0 0 0 1.912.348c.562 0 1.092-.048 1.588-.146.497-.097 1.032-.367 1.605-.81l-.698-.761a3.455 3.455 0 0 1-.916.374Zm-42.207.52a3.155 3.155 0 0 1-.22-1.159c0-.55.017-1.134.05-1.75a35.01 35.01 0 0 0 .048-1.896c0-.291-.03-.583-.09-.875a2.017 2.017 0 0 0-.356-.801c-.178-.243-.437-.441-.777-.591-.34-.152-.792-.227-1.353-.227-.594 0-1.164.059-1.71.177a4.68 4.68 0 0 0-1.433.551l.405.973c.151-.086.326-.165.526-.234.2-.07.411-.13.632-.179a7.06 7.06 0 0 1 .649-.113c.21-.027.407-.04.59-.04.627 0 1.06.118 1.297.356.237.238.356.653.356 1.247a8.8 8.8 0 0 1-.048.875 3.178 3.178 0 0 0-.445-.032h-.446c-.746 0-1.453.04-2.122.122-.67.08-1.19.375-1.556.882-.367.51-.551 1-.551 1.475 0 .356.061.675.186.956.125.281.295.522.51.721.216.2.473.354.77.462.298.108.619.162.964.162s.691-.038 1.037-.113c.346-.075.62-.17.826-.284.205-.114.38-.243.527-.389.145-.146.267-.294.364-.445h.08c.227.755.508 1.133.843 1.133h1.15a2.372 2.372 0 0 1-.703-.964Zm-1.435-1.353a1.928 1.928 0 0 1-.68.85c-.173.124-.416.227-.73.308-.313.082-.62.122-.922.122-.422 0-.769-.122-1.038-.365a1.2 1.2 0 0 1-.405-.932c0-.27.105-.545.315-.826.211-.28.565-.44 1.062-.478.497-.038.988-.056 1.475-.056a14.384 14.384 0 0 1 .923.032v1.345Zm6.895-1.881a4.07 4.07 0 0 0-.94-.469c-.34-.118-.653-.24-.94-.364a3.167 3.167 0 0 1-.72-.421c-.194-.157-.292-.377-.292-.657 0-.4.111-.68.332-.843.221-.162.57-.243 1.044-.243.4 0 .776.046 1.126.138.352.091.652.198.9.316l.307-1.07a5.657 5.657 0 0 0-1.028-.364c-.395-.103-.883-.154-1.467-.154-.788 0-1.404.181-1.847.542-.443.363-.665.931-.665 1.71 0 .475.097.853.292 1.134.195.28.434.51.721.689.286.178.6.324.94.437.34.114.654.232.94.356.286.125.526.278.72.461.195.184.292.438.292.762 0 .477-.151.805-.454.989-.302.184-.686.275-1.15.275-.411 0-.816-.059-1.216-.178a4.77 4.77 0 0 1-.972-.389l-.389 1.102c.292.162.654.303 1.086.421.432.12.956.179 1.572.179.475 0 .888-.062 1.24-.187a2.53 2.53 0 0 0 .882-.51 1.97 1.97 0 0 0 .526-.777c.114-.303.17-.627.17-.972 0-.487-.096-.878-.29-1.175a2.568 2.568 0 0 0-.72-.737Zm8.142 3.234a3.17 3.17 0 0 1-.219-1.159c0-.55.016-1.134.049-1.75.033-.615.049-1.248.049-1.896 0-.291-.03-.583-.09-.875a2.028 2.028 0 0 0-.356-.801c-.178-.243-.437-.441-.778-.591-.34-.15-.791-.227-1.353-.227-.594 0-1.164.059-1.708.177a4.679 4.679 0 0 0-1.435.551l.405.973c.152-.086.327-.165.527-.234.2-.07.41-.13.632-.179a7.23 7.23 0 0 1 .648-.113 4.64 4.64 0 0 1 .591-.04c.626 0 1.06.118 1.296.356.238.238.357.653.357 1.247a9 9 0 0 1-.049.875 3.186 3.186 0 0 0-.445-.032h-.446c-.745 0-1.453.04-2.123.122-.67.08-1.188.375-1.555.882-.368.51-.551 1-.551 1.475 0 .356.062.675.186.956a2.15 2.15 0 0 0 1.28 1.183c.297.108.618.162.963.162a4.89 4.89 0 0 0 1.038-.113c.346-.075.621-.17.826-.284.205-.114.381-.243.527-.389.145-.146.267-.294.364-.445h.081c.227.755.509 1.133.843 1.133h1.15a2.378 2.378 0 0 1-.704-.964Zm-1.434-1.353a1.934 1.934 0 0 1-.68.85c-.172.124-.415.227-.73.308a3.675 3.675 0 0 1-.923.122c-.421 0-.767-.122-1.036-.365a1.197 1.197 0 0 1-.407-.932c0-.27.106-.545.317-.826.21-.28.563-.44 1.06-.478a19.07 19.07 0 0 1 1.937-.048c.155.005.31.013.461.024v1.345h.001Zm12.539-.501v-8.558h-1.296v3.37a4.974 4.974 0 0 0-.753-.21 5.448 5.448 0 0 0-.948-.065c-1.145 0-2.044.36-2.698 1.077-.654.72-.98 1.77-.98 3.152 0 1.448.262 2.512.786 3.193.524.68 1.326 1.02 2.406 1.02.551 0 1.03-.124 1.442-.372a2.6 2.6 0 0 0 .94-.94h.065l.324 1.15h.875a7.436 7.436 0 0 1-.146-1.32 58.164 58.164 0 0 1-.017-1.498Zm-1.296.112c-.12.583-.34 1.018-.664 1.305-.324.286-.761.429-1.312.429-.38 0-.7-.078-.964-.235a1.816 1.816 0 0 1-.64-.64 2.86 2.86 0 0 1-.348-.972 6.718 6.718 0 0 1-.105-1.232c0-1.08.21-1.867.631-2.358.422-.491 1.006-.736 1.75-.736.412 0 .74.032.989.097.248.064.47.173.664.324v4.019Zm8.333-4.464a2.878 2.878 0 0 0-1.11-.86c-.448-.2-.974-.299-1.579-.299-1.144 0-2.022.365-2.633 1.094-.61.73-.915 1.78-.915 3.151 0 .638.07 1.218.21 1.742a3.7 3.7 0 0 0 .65 1.345c.291.373.66.658 1.109.859.448.2.975.3 1.579.3 1.145 0 2.022-.365 2.632-1.094.611-.729.917-1.78.917-3.151 0-.638-.071-1.218-.21-1.742a3.726 3.726 0 0 0-.65-1.345Zm-2.69 6.198c-.4 0-.74-.087-1.02-.26a2.04 2.04 0 0 1-.681-.68 3.11 3.11 0 0 1-.38-.989 5.61 5.61 0 0 1-.122-1.182c0-2.085.735-3.122 2.203-3.112.4 0 .74.084 1.022.251.281.168.508.392.68.672.173.281.3.61.38.989.08.378.122.777.122 1.199 0 2.085-.735 3.123-2.204 3.112Zm20.615-10.589h-1.572l-1.409 2.317h1.005l1.976-2.317Z" id="Shape" fill="#9898A6"/><path d="M97.53 15.921c-2.156 0-3.89 1.54-3.89 4.148 0 2.48 1.653 4.034 3.76 4.034 1.879 0 3.904-1.263 3.904-4.164 0-2.381-1.523-4.018-3.774-4.018Zm-.066 7.112c-1.393 0-2.366-1.295-2.366-3.013 0-1.475.73-3.03 2.399-3.03 1.686 0 2.35 1.669 2.35 2.997 0 1.767-1.021 3.046-2.383 3.046Zm11.666-10.612h-1.41v4.683h-.031c-.357-.616-1.15-1.183-2.366-1.183-1.895 0-3.532 1.588-3.516 4.197 0 2.382 1.475 3.985 3.37 3.985 1.28 0 2.22-.664 2.64-1.539h.05l.065 1.362h1.263a36.885 36.885 0 0 1-.064-2.026v-9.479Zm-1.41 8.216c0 .226-.015.421-.064.615-.26 1.053-1.134 1.702-2.09 1.702-1.523 0-2.317-1.313-2.317-2.9 0-1.718.875-3.014 2.35-3.014 1.069 0 1.847.745 2.057 1.636.049.178.065.42.065.6v1.36Zm11.62-3.371h-.032c-.356-.649-1.085-1.345-2.447-1.345-1.814 0-3.548 1.491-3.548 4.148 0 2.171 1.394 3.824 3.338 3.824 1.215 0 2.074-.583 2.495-1.313h.032v.86c0 1.992-1.069 2.753-2.527 2.753-.972 0-1.783-.291-2.3-.631l-.358 1.102c.633.42 1.67.648 2.61.648.988 0 2.09-.244 2.868-.94.745-.697 1.117-1.782 1.117-3.597v-4.553c0-.94.016-1.588.065-2.14h-1.264l-.048 1.184Zm-.178 3.321c0 .244-.032.52-.113.762a2.056 2.056 0 0 1-1.977 1.458c-1.523 0-2.317-1.28-2.317-2.82 0-1.814.973-2.965 2.333-2.965 1.054 0 1.734.682 1.993 1.524.065.178.081.39.081.632v1.41Zm6.213-4.666c-2.155 0-3.888 1.54-3.888 4.148 0 2.48 1.652 4.034 3.759 4.034 1.879 0 3.904-1.263 3.904-4.164 0-2.381-1.523-4.018-3.775-4.018Zm-.065 7.112c-1.393 0-2.365-1.295-2.365-3.013 0-1.475.729-3.03 2.398-3.03 1.685 0 2.35 1.669 2.35 2.997-.001 1.767-1.022 3.046-2.383 3.046Zm-14.05-10.045a.869.869 0 0 0-.891.891c0 .487.34.875.858.875.568 0 .908-.388.908-.875 0-.502-.357-.89-.875-.89Z" id="Shape" fill="#9898A6"/><path id="Rectangle-path" fill="#9898A6" d="M110.546 16.083h1.426v7.843h-1.426z"/></g></g></g></g></symbol><symbol xmlns="http://www.w3.org/2000/svg" xmlns:xlink="http://www.w3.org/1999/xlink" viewBox="0 0 131 35" id="logo-galandra-cinza"><g id="Page-1" stroke="none" stroke-width="1" fill="none" fill-rule="evenodd"><g id="Desktop-HD" transform="translate(-532 -3993)" fill="#9898A6"><g id="Footer" transform="translate(0 3808)"><g id="caelum-logo-logo" transform="translate(132 140)"><path d="M528.8 59.9c-.5 0-.8.6-.8.6-1.7 3.2-3.5 5.4-4.7 5.4-.3 0-.6-.3-.6-.6 0-2.9 2.4-8.6 2.4-9.9 0-.9-2.1-1.3-3.4-1.3 0 0-1.9-2-4.7-2-3.3 0-6.8 6-7.6 10.6-1.2 1.9-2.3 3.1-3.3 3.1-.1 0-.3-.1-.3-.5 0-2 2-8.2 2-9.4 0-1.5-4.5-2.1-4.5-2.7 0-.9.5-1.5.5-2.3 0-.8-2.2-2.2-3.2-2.2-1.4 0-2.7 2.8-2.7 4 0 1.2 1.7 2.4 1.7 2.4s-1.2 2.9-2.4 5.2c-.1.1-.1.2-.1.2-1.8 3.2-3.5 5.3-4.8 5.3-.2 0-.6-.5-.6-.6 0-1.5 1.5-6.6 2.6-10.3 1.5-5.2 1.9-6.5 1.9-7.3 0-.6-2.7-2.2-3.7-2.2-.6 0-.8.2-1 .7l-2 6.8s-1.6-1-3.2-1c-3.1 0-6.1 4.7-7.4 9.1-1.7 3-3.4 4.9-4.5 4.9-.2 0-.3-.2-.3-.4 0-1.9 2.2-8.7 2.2-10.4 0-1.3-2.3-2.9-3.7-2.9-2 0-5.3 1.7-5.3 1.7s-1.6-1.7-2.4-1.7c-.5 0-1.2.2-1.5.7-.4 1.4-1.4 5.3-2.3 8.7-1.5 2.6-3 4.3-4.1 4.3-.3 0-.6-.3-.6-.6 0-2.9 2.4-8.6 2.4-9.9 0-.9-2.1-1.3-3.4-1.3 0 0-1.9-2-4.7-2-3.5 0-7.2 6.7-7.8 11.4-1 1.4-2 2.3-2.8 2.3-.2 0-.6-.2-.6-.4 0-1.7 4.2-15.7 4.5-16.8.1-.3.1-.6.1-.9 0-.6-2.9-2.4-3.7-2.4-.5 0-.9.2-1.1.7-.8 2.4-3 9.9-4.2 14.9-1.6 2.9-3.3 4.9-4.4 4.9-.3 0-.6-.3-.6-.6 0-2.9 2.4-8.6 2.4-9.9 0-.9-2.1-1.3-3.4-1.3 0 0-1.9-2-4.7-2-3.2 0-6.6 5.7-7.6 10.2-1 1.4-2.2 2.3-3.7 3.4 1.5-5.2 2.6-9.7 2.6-10.3 0-.9-2-1.4-3.4-1.4 0 0-1.9-1.9-4.7-1.9-3.4.2-7.6 7.9-7.6 12.6 0 1.9 3 4.3 5 4.3 1.4 0 3-1.5 3-1.5s-.2.7-.8 2.2c-2.4 1.6-3.8 2.4-5.2 3.5-1.1.8-1.5 1.7-1.5 3 0 1.2 2.5 3.5 4.7 3.5 1.4 0 3.5-.5 4.2-1.7.7-1.2 1.9-5 3.1-9 1.6-1 3.2-1.9 4.6-3.3.8 1.7 3.3 3.3 4.7 3.3 1.9 0 4-2.1 4-2.1.5 1 3.2 2.1 4.8 2.1 1.5 0 2.8-1 4-2.6.7 1.4 3.7 2.6 5.4 2.6 1.4 0 2.7-1 3.9-2.4 1.1 1.3 3.1 2.4 4.2 2.4 1.9 0 4-2.1 4-2.1.5 1 3.2 2.1 4.8 2.1 1.2 0 2.3-.7 3.3-1.8.1.9 2.6 1.8 3.4 1.8.6 0 1.2-.4 1.4-.8.2-1 1.8-8.2 2.8-10.6.5-1.1 1.9-1.7 2.6-1.7.4 0 .7.4.7.7 0 1.4-2 7.1-2 9.3 0 1.6 3.6 3.1 5.2 3.1s3.1-1.3 4.4-3.1c.7 1.4 3 3.1 4.8 3.1 1.6 0 4.2-2.2 4.2-2.2.5.7 3 2.2 4.6 2.2 2.5 0 4.6-3.1 6.5-6.6.2-.2.3-.5.3-.5 1.7-3.2 2.7-5.6 2.7-5.6s.8.2.8.4c0 1.8-1.8 6.6-1.8 9.3 0 1.4 3.2 3 5.1 3 1.5 0 2.8-1.1 4.1-2.7 1 1.5 3.2 2.7 4.4 2.7 1.9 0 4-2.1 4-2.1.5 1 3.2 2.1 4.8 2.1 2.6 0 4.7-3.2 6.6-6.8 0 0 .5-.8.5-1.2-.3-.5-1-1-1.5-1ZM405.1 75.6c-.3.4-.8.7-1.2.7-.2 0-.6-.3-.6-.5 0-.6.5-1.4 2.9-3-.5 1.6-.9 2.5-1.1 2.8Zm3.5-12.7c-1 2-2 2.7-2.6 2.7-.4 0-.7-.4-.7-.8 0-3.1 2.4-9.1 3.9-9.1.6 0 1.2.4 1.2.6 0 1-1.1 5.1-1.8 6.6Zm16.7 0c-1 2.1-2.4 2.7-2.8 2.7-.3 0-.7-.4-.7-.8 0-3.1 2.9-9.1 4.1-9.1.6 0 1.3.4 1.3.9 0 1-1.2 4.8-1.9 6.3Zm26.2 0c-1 2.1-2.4 2.7-2.8 2.7-.3 0-.7-.4-.7-.8 0-3.1 2.9-9.1 4.1-9.1.6 0 1.3.4 1.3.9 0 1-1.1 4.8-1.9 6.3Zm35.2-.3c-.4 1.2-1.9 2.9-2.7 2.9-.2 0-.6-.4-.6-1.1 0-2.6 2.6-8.9 4-8.9.6 0 1.3.6 1.3.6-.6 2.4-1.2 4.2-2 6.5Zm31 .3c-1 2.1-2.4 2.7-2.8 2.7-.3 0-.7-.4-.7-.8 0-3.1 2.9-9.1 4.1-9.1.6 0 1.3.4 1.3.9 0 1-1.2 4.8-1.9 6.3Z" id="logo-galandra"/></g></g></g></g></symbol><symbol xmlns="http://www.w3.org/2000/svg" xmlns:xlink="http://www.w3.org/1999/xlink" viewBox="0 0 65 28" id="logo-guj"><g id="Page-1" stroke="none" stroke-width="1" fill="none" fill-rule="evenodd"><g id="Desktop-HD" transform="translate(-1245 -4851)"><g id="Group" transform="translate(0 4840)"><g id="GUJ-Logo" transform="translate(1245 11)"><path d="M33.34 8.466c.408-.424.997-.636 1.767-.636.483 0 .871.07 1.166.206.294.137.528.311.701.523.173.213.294.452.361.716.068.266.11.535.125.807.014.349.165.591.452.728.286.137.626.205 1.019.205.482 0 .849-.09 1.098-.272.249-.181.374-.56.374-1.136 0-.682-.135-1.291-.406-1.83a4.053 4.053 0 0 0-1.131-1.376 5.127 5.127 0 0 0-1.709-.864 7.5 7.5 0 0 0-2.161-.298c-.725 0-1.4.094-2.027.283a4.498 4.498 0 0 0-1.653.896c-.476.41-.85.943-1.122 1.602-.273.659-.409 1.466-.41 2.42l-.004 6.341c-.001.954.134 1.761.405 2.42.272.66.645 1.194 1.12 1.604a4.47 4.47 0 0 0 1.675.899 7.36 7.36 0 0 0 2.093.285 7.4 7.4 0 0 0 2.083-.282 4.572 4.572 0 0 0 1.699-.896c.483-.409.861-.943 1.134-1.602.272-.659.408-1.465.409-2.42l.002-2.704c0-.258-.079-.481-.237-.671-.159-.19-.39-.284-.69-.285l-3.85-.003c-.301 0-.528.122-.679.364a1.473 1.473 0 0 0-.227.795c0 .303.075.572.226.807.15.235.377.352.679.353l1.834.001-.001 1.341c0 .894-.213 1.553-.635 1.977-.424.424-1.005.635-1.745.635-.754 0-1.335-.213-1.742-.638-.407-.424-.61-1.083-.61-1.977l.005-6.341c0-.894.205-1.553.613-1.977" id="Fill-1" fill="#35495E"/><path d="M52.29 5.46a2.362 2.362 0 0 0-1.007-.216 2.35 2.35 0 0 0-1.019.215c-.302.144-.453.375-.453.693l-.008 10.637c-.001.894-.22 1.553-.658 1.977-.438.424-1.05.635-1.834.635-.786-.001-1.397-.213-1.834-.638-.437-.424-.656-1.084-.655-1.978l.008-10.637c0-.318-.154-.549-.464-.693a2.362 2.362 0 0 0-1.007-.217c-.377 0-.717.072-1.018.215-.303.144-.454.375-.454.693l-.008 10.637c0 .954.138 1.761.417 2.42.279.66.663 1.194 1.154 1.604.49.409 1.063.709 1.72.899a7.7 7.7 0 0 0 2.139.286c.754 0 1.464-.094 2.128-.283a4.662 4.662 0 0 0 1.733-.896c.49-.409.876-.943 1.155-1.602.28-.659.42-1.466.42-2.42l.009-10.637c0-.318-.154-.549-.464-.693" id="Fill-3" fill="#35495E"/><path d="M64.392 5.445a2.364 2.364 0 0 0-1.007-.216c-.377 0-.717.071-1.018.215-.303.144-.454.374-.454.693l-.001 1.454-.007 9.206c0 .895-.209 1.554-.624 1.977-.415.424-1.008.636-1.778.635-.453 0-.83-.072-1.132-.216a1.854 1.854 0 0 1-.712-.57 2.123 2.123 0 0 1-.362-.783 4.876 4.876 0 0 1-.124-.864c-.03-.364-.184-.61-.463-.74-.28-.128-.615-.193-1.008-.193-.498 0-.868.094-1.11.283-.241.19-.362.572-.362 1.148 0 .712.134 1.344.406 1.897a4.264 4.264 0 0 0 1.12 1.422 4.905 4.905 0 0 0 1.708.899 7.347 7.347 0 0 0 2.173.308c.71 0 1.38-.094 2.015-.282a4.484 4.484 0 0 0 1.665-.897c.476-.408.85-.942 1.122-1.601.272-.659.408-1.466.41-2.42l.004-6.844.002-2.363.001-1.454c0-.318-.154-.549-.464-.694" id="Fill-5" fill="#35495E"/><path d="M13.416.146c7.41 0 13.417 6.03 13.417 13.469 0 7.438-6.007 13.468-13.417 13.468S0 21.053 0 13.615C0 6.176 6.007.146 13.416.146" id="Fill-8" fill="#35495E"/><path d="M10.962 6.843s-.188.154-.188.543c0 .39.187.543.187.543s.134.124.216.354c.108.303.074.652-.103 1.036-.656 1.423.016 2.325.463 2.603a.57.57 0 0 0 .792-.187.579.579 0 0 0-.186-.795c-.004-.003-.415-.289-.025-1.136.489-1.061.224-1.919-.115-2.417.34-.498.605-1.355.118-2.417-.389-.847.023-1.133.027-1.136a.579.579 0 0 0-.303-1.069.572.572 0 0 0-.302.087c-.447.277-1.12 1.178-.467 2.602.176.384.21.732.102 1.035a.952.952 0 0 1-.216.354" id="Fill-10" fill="#3B97D3"/><path d="M14.684 10.942a.579.579 0 0 0 .303 1.069.57.57 0 0 0 .302-.086c.447-.278 1.12-1.178.467-2.602-.176-.385-.21-.733-.102-1.036a.95.95 0 0 1 .216-.354s.188-.153.189-.543c0-.389-.188-.543-.188-.543s-.133-.123-.215-.354c-.109-.303-.074-.652.103-1.036.656-1.422-.016-2.324-.463-2.602a.571.571 0 0 0-.792.186.579.579 0 0 0 .186.796c.004.002.415.289.025 1.136-.489 1.06-.225 1.918.115 2.416-.34.498-.607 1.355-.12 2.417.39.848-.022 1.133-.026 1.136" id="Fill-12" fill="#3B97D3"/><path d="M5.087 17.09a.805.805 0 0 1-.803-.808c0-.446.36-.807.804-.806h.482v.075h.002c.007.528.073 1.043.19 1.54l-.675-.002Zm3.318-3.473-2.834-.002h-.463a2.689 2.689 0 0 0-2.685 2.692 2.689 2.689 0 0 0 2.681 2.696h1.414c1.326 2.32 3.91 3.904 6.891 3.935 4.306-.04 7.789-3.316 7.848-7.375h.003l.002-1.936-7.846-.006-5.011-.004Z" id="Fill-14" fill="#FFF"/></g></g></g></g></symbol></defs></svg>