<svg width="129" height="38" viewBox="0 0 129 38" xmlns="http://www.w3.org/2000/svg"><g fill="none" fill-rule="evenodd"><path d="M6.937 6.825v24.039h22.457v-6.743h-15.75v-10.49h15.75V6.825H6.937Z" fill="#F5F7F8"/><path d="m6.937.124-6.606 6.7v24.04l6.606 6.702h22.457v-6.702H6.937V6.825h22.457V.124H6.937Z" fill="#9898A6"/><path d="M80.271 17.554a1.957 1.957 0 0 0-.68-.672c-.282-.168-.622-.251-1.021-.251-1.468-.01-2.204 1.027-2.204 3.112 0 .41.04.804.122 1.182.08.38.207.708.38.988.173.282.4.509.68.682.282.172.622.258 1.022.258 1.469.012 2.203-1.026 2.203-3.11 0-.422-.04-.821-.12-1.2a3.127 3.127 0 0 0-.382-.99Zm-8.997-.875c-.745 0-1.328.246-1.75.736-.422.492-.632 1.278-.632 2.358 0 .444.035.853.106 1.232.07.379.186.703.348.972a1.8 1.8 0 0 0 .64.64c.264.156.585.235.964.235.55 0 .988-.142 1.312-.43.324-.286.544-.72.664-1.304V17.1a1.805 1.805 0 0 0-.664-.324c-.249-.065-.577-.097-.988-.097Zm25.804-.121c-1.669 0-2.398 1.555-2.398 3.03 0 1.718.972 3.013 2.366 3.013 1.361 0 2.382-1.28 2.382-3.046 0-1.328-.664-2.997-2.35-2.997Zm-49.921 2.795c-.487 0-.978.02-1.475.057-.497.038-.85.197-1.061.477-.21.282-.316.557-.316.827 0 .378.135.688.406.932.269.243.615.364 1.037.364.302 0 .61-.04.923-.121.313-.08.556-.184.73-.308a1.945 1.945 0 0 0 .68-.85v-1.346a15.592 15.592 0 0 0-.924-.031Zm13.603 0c-.486 0-.978.02-1.474.057-.498.038-.85.197-1.062.477-.21.281-.316.557-.316.827 0 .378.135.688.406.932.27.243.616.364 1.037.364.302 0 .61-.04.923-.121.314-.08.557-.184.73-.308a1.969 1.969 0 0 0 .68-.85v-1.346c-.152-.01-.306-.019-.461-.024a15.693 15.693 0 0 0-.464-.008Zm44.42-2.746c-1.474 0-2.35 1.296-2.35 3.013 0 1.588.794 2.9 2.317 2.9.957 0 1.83-.648 2.09-1.7a2.48 2.48 0 0 0 .065-.616v-1.362c0-.178-.016-.42-.065-.6-.21-.89-.988-1.635-2.057-1.635Zm19.744-.049c-1.669 0-2.398 1.555-2.398 3.03 0 1.718.972 3.013 2.365 3.013 1.362 0 2.383-1.28 2.383-3.046 0-1.328-.666-2.997-2.35-2.997Zm-8.254.032c-1.36 0-2.333 1.15-2.333 2.965 0 1.54.794 2.82 2.317 2.82.891 0 1.685-.552 1.977-1.459.08-.242.113-.518.113-.762v-1.409c0-.243-.016-.454-.081-.632-.26-.842-.94-1.524-1.993-1.524Z"/><path d="M41.282 22.642a4.936 4.936 0 0 1-1.271.146c-.54 0-1.041-.097-1.5-.291a3.29 3.29 0 0 1-1.199-.875c-.34-.39-.606-.876-.8-1.46-.196-.582-.293-1.263-.293-2.04 0-.865.103-1.594.308-2.188.205-.594.478-1.075.818-1.442a3.02 3.02 0 0 1 1.159-.795 3.706 3.706 0 0 1 1.313-.243c.96 0 1.701.123 2.219.373l.697-1.07a8.525 8.525 0 0 0-1.426-.396c-.41-.07-.94-.106-1.588-.106-.606 0-1.2.108-1.782.325a4.364 4.364 0 0 0-1.58 1.028c-.47.47-.849 1.076-1.135 1.815-.286.74-.429 1.64-.429 2.698 0 1.015.13 1.893.39 2.633.258.739.61 1.347 1.053 1.822.443.476.962.83 1.555 1.061a5.222 5.222 0 0 0 1.913.349c.56 0 1.09-.049 1.588-.146.496-.097 1.03-.367 1.604-.81l-.697-.762c-.25.153-.555.277-.917.374Zm50.44-.301a4.935 4.935 0 0 1-1.271.147c-.541 0-1.04-.097-1.499-.292a3.267 3.267 0 0 1-1.199-.876c-.34-.388-.607-.875-.802-1.458-.194-.583-.291-1.264-.291-2.042 0-.864.102-1.593.307-2.187.205-.594.478-1.075.818-1.443a3.02 3.02 0 0 1 1.159-.794 3.699 3.699 0 0 1 1.312-.243c.962 0 1.701.124 2.22.373l.697-1.07a8.557 8.557 0 0 0-1.426-.396c-.41-.071-.94-.106-1.588-.106-.605 0-1.199.108-1.782.324a4.38 4.38 0 0 0-1.581 1.03c-.469.47-.848 1.074-1.134 1.814-.285.74-.429 1.64-.429 2.697 0 1.015.13 1.894.39 2.633.26.74.61 1.348 1.052 1.823.444.476.962.83 1.556 1.061a5.22 5.22 0 0 0 1.912.348c.562 0 1.092-.048 1.589-.146.496-.097 1.031-.367 1.604-.81l-.697-.761c-.25.153-.554.277-.917.374Zm-42.207.519a3.155 3.155 0 0 1-.22-1.158c0-.551.018-1.134.05-1.75a35.01 35.01 0 0 0 .048-1.896c0-.291-.03-.583-.089-.875a2.017 2.017 0 0 0-.357-.801c-.177-.243-.437-.441-.777-.591-.34-.152-.791-.227-1.353-.227-.594 0-1.164.059-1.71.177a4.68 4.68 0 0 0-1.433.551l.405.973c.151-.086.327-.165.526-.235.2-.07.411-.13.632-.178a7.06 7.06 0 0 1 .649-.113c.21-.027.408-.04.59-.04.628 0 1.06.118 1.297.356.238.238.357.653.357 1.247a8.8 8.8 0 0 1-.049.875 3.178 3.178 0 0 0-.445-.032h-.446c-.745 0-1.453.04-2.122.122-.67.08-1.19.375-1.556.882-.367.509-.55 1-.55 1.475 0 .356.06.675.185.956a2.162 2.162 0 0 0 1.28 1.183c.298.108.619.162.964.162.346 0 .692-.038 1.037-.113.346-.075.62-.17.826-.284.205-.114.381-.243.527-.39a2.64 2.64 0 0 0 .364-.444h.08c.228.755.509 1.133.843 1.133h1.15a2.372 2.372 0 0 1-.703-.964Zm-1.435-1.352a1.928 1.928 0 0 1-.68.85c-.173.124-.416.227-.73.308-.313.082-.62.122-.922.122-.422 0-.768-.122-1.037-.365a1.2 1.2 0 0 1-.406-.932c0-.27.106-.545.316-.826.21-.281.564-.44 1.061-.478.497-.038.988-.056 1.475-.056a14.384 14.384 0 0 1 .923.032v1.345Zm6.896-1.88a4.07 4.07 0 0 0-.94-.47c-.34-.118-.654-.24-.94-.364a3.167 3.167 0 0 1-.72-.422c-.195-.156-.293-.376-.293-.656 0-.4.111-.68.332-.843.222-.162.57-.243 1.045-.243.4 0 .775.046 1.126.138.35.091.65.198.9.316l.306-1.07a5.657 5.657 0 0 0-1.028-.365c-.394-.102-.883-.153-1.466-.153-.788 0-1.405.181-1.848.542-.443.363-.664.931-.664 1.71 0 .475.097.853.292 1.134.194.28.434.51.72.689.286.178.6.324.94.437.34.114.654.232.94.356.286.125.526.278.72.461.195.184.292.438.292.762 0 .477-.151.805-.454.988-.301.185-.686.276-1.15.276a4.24 4.24 0 0 1-1.215-.178 4.77 4.77 0 0 1-.972-.389l-.39 1.102c.293.162.654.303 1.086.421.432.12.957.179 1.572.179.476 0 .889-.062 1.24-.187a2.53 2.53 0 0 0 .882-.51 1.97 1.97 0 0 0 .527-.777c.114-.303.17-.627.17-.972 0-.487-.097-.879-.291-1.175a2.568 2.568 0 0 0-.72-.737Zm8.141 3.232a3.17 3.17 0 0 1-.218-1.158c0-.551.016-1.134.048-1.75a35.46 35.46 0 0 0 .049-1.896c0-.291-.03-.583-.09-.875a2.028 2.028 0 0 0-.356-.801c-.178-.243-.437-.441-.778-.591-.34-.15-.791-.227-1.353-.227a8.05 8.05 0 0 0-1.708.177 4.679 4.679 0 0 0-1.434.551l.404.973c.152-.086.327-.165.528-.235.198-.07.41-.13.63-.178.222-.048.439-.087.649-.113a4.64 4.64 0 0 1 .591-.04c.626 0 1.06.118 1.297.356.237.238.356.653.356 1.247 0 .26-.016.551-.048.875a3.186 3.186 0 0 0-.446-.032h-.446c-.745 0-1.452.04-2.122.122-.67.08-1.189.375-1.556.882-.367.509-.551 1-.551 1.475 0 .356.062.675.187.956a2.15 2.15 0 0 0 1.28 1.183c.296.108.617.162.963.162a4.89 4.89 0 0 0 1.037-.113c.346-.075.621-.17.827-.284a2.35 2.35 0 0 0 .526-.39 2.69 2.69 0 0 0 .364-.444h.082c.227.755.508 1.133.842 1.133h1.15a2.378 2.378 0 0 1-.704-.964Zm-1.433-1.352a1.934 1.934 0 0 1-.68.85c-.173.124-.416.227-.73.308a3.675 3.675 0 0 1-.924.122c-.42 0-.767-.122-1.036-.365a1.197 1.197 0 0 1-.406-.932c0-.27.105-.545.316-.826.211-.281.563-.44 1.061-.478a19.07 19.07 0 0 1 1.936-.048c.156.005.31.013.462.024v1.345Zm12.538-.502V12.45h-1.296v3.37a4.974 4.974 0 0 0-.753-.21 5.448 5.448 0 0 0-.948-.065c-1.144 0-2.044.36-2.698 1.077-.654.72-.98 1.77-.98 3.152 0 1.448.263 2.512.786 3.193.525.68 1.326 1.02 2.406 1.02.551 0 1.031-.124 1.442-.372a2.6 2.6 0 0 0 .94-.94h.065l.324 1.15h.875a7.436 7.436 0 0 1-.146-1.32 58.164 58.164 0 0 1-.017-1.498Zm-1.295.113c-.12.583-.34 1.018-.664 1.305-.325.286-.762.429-1.313.429-.379 0-.7-.078-.964-.235a1.816 1.816 0 0 1-.64-.64 2.86 2.86 0 0 1-.348-.972 6.718 6.718 0 0 1-.105-1.232c0-1.08.21-1.867.631-2.358.422-.491 1.006-.736 1.75-.736.412 0 .74.032.99.097.248.064.47.173.663.324v4.019Zm8.333-4.464a2.878 2.878 0 0 0-1.11-.86c-.448-.2-.975-.299-1.58-.299-1.144 0-2.022.364-2.633 1.094-.61.73-.915 1.78-.915 3.151 0 .638.07 1.218.21 1.742a3.7 3.7 0 0 0 .65 1.345c.292.373.661.658 1.109.859.448.2.975.3 1.58.3 1.144 0 2.022-.365 2.632-1.094.61-.729.916-1.78.916-3.151a6.74 6.74 0 0 0-.21-1.742 3.726 3.726 0 0 0-.65-1.345Zm-2.69 6.198c-.4 0-.74-.087-1.021-.26a2.04 2.04 0 0 1-.68-.68 3.11 3.11 0 0 1-.381-.989 5.61 5.61 0 0 1-.122-1.182c0-2.085.736-3.122 2.204-3.112.4 0 .74.084 1.021.251.281.168.508.392.68.672.173.281.3.61.38.989.081.378.122.777.122 1.199 0 2.085-.734 3.123-2.203 3.112Zm20.614-10.589h-1.571l-1.41 2.317h1.005l1.976-2.317Z" fill="#9898A6"/><path d="M97.111 15.488c-2.156 0-3.89 1.54-3.89 4.148 0 2.48 1.653 4.034 3.76 4.034 1.88 0 3.905-1.263 3.905-4.164 0-2.381-1.523-4.018-3.775-4.018Zm-.065 7.112c-1.394 0-2.366-1.295-2.366-3.013 0-1.475.73-3.03 2.398-3.03 1.686 0 2.35 1.669 2.35 2.997 0 1.767-1.02 3.046-2.382 3.046Zm11.666-10.612h-1.41v4.683h-.032c-.357-.616-1.15-1.183-2.365-1.183-1.896 0-3.533 1.588-3.516 4.197 0 2.382 1.474 3.985 3.37 3.985 1.28 0 2.219-.664 2.64-1.539h.05l.064 1.362h1.264a36.885 36.885 0 0 1-.065-2.026v-9.479Zm-1.41 8.216c0 .226-.016.42-.065.615-.26 1.053-1.133 1.702-2.09 1.702-1.523 0-2.317-1.313-2.317-2.9 0-1.718.876-3.014 2.35-3.014 1.07 0 1.847.745 2.057 1.636.049.178.065.42.065.6v1.36Zm11.62-3.371h-.033c-.355-.649-1.085-1.345-2.446-1.345-1.815 0-3.549 1.491-3.549 4.148 0 2.171 1.394 3.824 3.338 3.824 1.216 0 2.075-.583 2.496-1.313h.032v.86c0 1.992-1.07 2.753-2.528 2.753-.972 0-1.782-.291-2.3-.631l-.358 1.102c.633.42 1.67.648 2.61.648.988 0 2.09-.244 2.868-.94.745-.697 1.118-1.782 1.118-3.597V17.79c0-.94.016-1.588.064-2.14h-1.263l-.049 1.184Zm-.178 3.321c0 .244-.033.52-.113.762a2.056 2.056 0 0 1-1.977 1.458c-1.523 0-2.317-1.28-2.317-2.82 0-1.814.972-2.965 2.333-2.965 1.053 0 1.734.682 1.993 1.524.065.178.08.39.08.632v1.41Zm6.213-4.666c-2.156 0-3.889 1.54-3.889 4.148 0 2.48 1.652 4.034 3.759 4.034 1.879 0 3.905-1.263 3.905-4.164 0-2.381-1.524-4.018-3.775-4.018Zm-.066 7.112c-1.393 0-2.365-1.295-2.365-3.013 0-1.475.73-3.03 2.398-3.03 1.685 0 2.35 1.669 2.35 2.997 0 1.767-1.021 3.046-2.383 3.046ZM110.84 12.555a.869.869 0 0 0-.89.891c0 .486.34.875.858.875.568 0 .908-.389.908-.875 0-.502-.357-.89-.875-.89Zm-.713 3.095h1.426v7.843h-1.426z" fill="#9898A6"/></g></svg>