<svg width="0" height="0" class="hidden">
  <defs>
    <symbol xmlns="http://www.w3.org/2000/svg" viewBox="0 0 47 34" id="plano-24h">
      <path d="M29 27.61h10.683c.427 0 .908-.057 1.39-.057 1.013-.058 2.616-.116 2.99.288a.46.46 0 0 1 .106.29c-.535.693-2.778 2.482-4.487 2.482H6.997c-2.083 0-4.06-1.616-4.166-2.193v-.117c0-.115 0-.404.107-.52.214-.23.802-.288 1.443-.288.373 0 .8.058 1.175.058.48.058.908.058 1.388.058H18c0 .693.533 1.27 1.174 1.27h8.652c.694 0 1.175-.577 1.175-1.27zM5.61 25.01c-1.64-.113-3.323-.158-4.38.927-.587.577-.854 1.385-.854 2.366v.116c0 2.48 3.685 4.79 6.57 4.79h32.74c2.51 0 6.248-2.483 6.782-4.33.053-.173.053-.288.053-.46v-.117c0-.923-.268-1.73-.855-2.308-.975-1.004-2.515-1.048-4.06-1.004V4.237c0-2.943-1.228-4.213-4.005-4.213H9.667c-2.083 0-4.06.52-4.06 4.098v20.89zm2.35.06h31.19V4.237c0-1.443-.053-1.616-1.6-1.616H9.613c-1.656 0-1.656.173-1.656 1.5v20.95zm17.41-2.654c-1.44 0-2.936-.404-4.218-1.327l-1.602-1.04c-.428-.29-.64-.866-.534-1.443.106-.577.587-.923 1.12-.98 2.832-.174 4.86-1.328 6.036-3.464 1.23-2.193 1.282-4.675.16-7.387-.213-.52-.106-1.155.32-1.5.375-.405.963-.405 1.443-.116l1.602 1.04c1.816 1.21 3.098 3.173 3.632 5.424.48 2.25.16 4.617-1.014 6.58-1.55 2.712-4.22 4.212-6.944 4.212zm4.862-5.483c.8-1.385 1.068-3.058.694-4.617a5.844 5.844 0 0 0-1.442-2.828c.213 2.193-.214 4.27-1.282 6.118-1.068 1.79-2.617 3.174-4.54 3.925 2.404.866 5.18-.173 6.57-2.597zm-7.424-9.696c-.32 0-.64-.115-.855-.404a1.416 1.416 0 0 1-.373-.923c0-.346.107-.693.374-.923.428-.462 1.23-.462 1.71 0 .214.23.374.577.374.923 0 .346-.107.693-.374.923-.267.23-.587.404-.854.404z" fill="#FFF" fill-rule="evenodd"></path>
    </symbol>
    <symbol xmlns="http://www.w3.org/2000/svg" viewBox="0 0 24 31" id="plano-acesso">
      <g fill="#FFF" fill-rule="evenodd">
        <path d="M5.203 7.216c-.552 0-1-.484-1-1.08V1.452c0-.597.448-1.08 1-1.08s1 .483 1 1.08v4.682c0 .597-.448 1.08-1 1.08zM18.8 7.216c-.552 0-1-.484-1-1.08V1.452c0-.597.448-1.08 1-1.08s1 .483 1 1.08v4.682c0 .597-.448 1.08-1 1.08zM22.768 11.637H1.232c-.552 0-1-.484-1-1.08 0-.597.448-1.08 1-1.08h21.536c.552 0 1 .483 1 1.08 0 .596-.448 1.08-1 1.08z"></path>
        <path d="M12.526 30.362h-8.96c-1.84 0-3.334-1.615-3.334-3.6V6.455c0-1.987 1.494-3.602 3.333-3.602h16.87c1.838 0 3.333 1.615 3.333 3.602V22.74c0 .596-.448 1.08-1 1.08s-1-.484-1-1.08V6.453c0-.796-.598-1.44-1.333-1.44H3.565c-.736 0-1.333.644-1.333 1.44v20.31c0 .793.597 1.437 1.333 1.437h8.96c.553 0 1 .485 1 1.082 0 .596-.447 1.08-1 1.08z"></path>
        <path d="M9.654 23.543c-.552 0-1-.484-1-1.08v-5.47l-.378.41a.952.952 0 0 1-1.416 0 1.144 1.144 0 0 1 0-1.528l2.085-2.26a.953.953 0 0 1 1.09-.233c.375.166.618.56.618 1v8.08c0 .598-.447 1.08-1 1.08z"></path>
        <path d="M16.272 23.345c.324 0 .567-.06.73-.177.16-.117.242-.316.242-.596 0-.28-.08-.48-.243-.596-.16-.118-.404-.177-.728-.177h-2.66a3 3 0 0 1 .412-.882c.194-.29.47-.614.83-.976l1.12-1.125c.793-.795 1.19-1.667 1.19-2.616 0-.857-.237-1.508-.71-1.95-.472-.444-1.163-.665-2.072-.665-.783 0-1.402.226-1.856.678-.455.452-.682 1.048-.682 1.79 0 .28.06.516.182.71.122.195.335.292.642.292a.84.84 0 0 0 .567-.196c.153-.132.238-.324.256-.577.037-.443.125-.775.264-.997.14-.22.37-.332.696-.332.297 0 .52.11.675.325.153.216.23.515.23.894 0 .38-.08.718-.237 1.017-.158.3-.47.683-.938 1.153l-.635.637c-.35.352-.646.705-.884 1.057a6.19 6.19 0 0 0-.56.997c-.135.31-.23.596-.283.853-.054.258-.08.486-.08.685 0 .515.264.773.796.773h3.74z" stroke="#FFF" stroke-width=".5"></path>
        <path d="M12.525 30.365c-.482 0-.902-.377-.985-.9-.088-.557.24-1.095.748-1.23.048-.014 2.37-.67 3.427-2.693.636-1.22.7-2.738.192-4.514-.108-.38-.016-.79.24-1.075a.95.95 0 0 1 .99-.28l5.907 1.83c.43.133.724.555.724 1.04v.404c0 .05-.002.1-.01.15-.772 6.067-10.71 7.215-11.132 7.263-.034.002-.067.005-.1.005zm5.667-8.12c.18 1.625-.068 3.09-.745 4.377-.075.14-.15.276-.232.405 2.026-.78 3.934-1.975 4.452-3.703l-3.475-1.078z"></path>
      </g>
    </symbol>
    <symbol xmlns="http://www.w3.org/2000/svg" viewBox="0 0 30 25" id="plano-barra-aulas">
      <path d="M26.25 11.25l-6.25 4v-1.5A3.76 3.76 0 0 0 16.25 10H3.75A3.76 3.76 0 0 0 0 13.75v7.5A3.76 3.76 0 0 0 3.75 25h12.5A3.76 3.76 0 0 0 20 21.25v-1.438l6.313 4c.375.188.812.313 1.187.313 1.375 0 2.5-1.125 2.5-2.5v-8.25c0-1.813-1.875-3.188-3.75-2.125zm-8.75 10c0 .688-.563 1.25-1.25 1.25H3.75c-.688 0-1.25-.563-1.25-1.25v-7.5c0-.688.563-1.25 1.25-1.25h12.5c.688 0 1.25.563 1.25 1.25v7.5zm10 .375L21.062 17.5l6.438-4.125v8.25zM10 5c0-2.75-2.25-5-5-5S0 2.25 0 5s2.25 5 5 5 5-2.25 5-5zM5 7.5A2.507 2.507 0 0 1 2.5 5c0-1.375 1.125-2.5 2.5-2.5S7.5 3.625 7.5 5 6.375 7.5 5 7.5zM15 10c2.75 0 5-2.25 5-5s-2.25-5-5-5-5 2.25-5 5 2.25 5 5 5zm0-7.5c1.375 0 2.5 1.125 2.5 2.5S16.375 7.5 15 7.5A2.507 2.507 0 0 1 12.5 5c0-1.375 1.125-2.5 2.5-2.5z" fill="#FBCF36"></path>
    </symbol>
    <symbol xmlns="http://www.w3.org/2000/svg" viewBox="0 0 24 25" id="plano-barra-cursos">
      <path d="M21 0H3C1.35 0 0 1.39 0 3.09v18.546c0 1.7 1.35 3.09 3 3.09h18c1.65 0 3-1.39 3-3.09V3.09C24 1.39 22.65 0 21 0zM10 9.273h4c1.65 0 3-1.39 3-3.09 0-.568-.45-1.03-1-1.03s-1 .462-1 1.03c0 .565-.45 1.03-1 1.03h-4c-.55 0-1-.465-1-1.03 0-.568-.45-1.03-1-1.03s-1 .462-1 1.03c0 1.7 1.35 3.09 3 3.09zm6 7.212c-.55 0-1 .463-1 1.03s-.45 1.03-1 1.03h-4c-.55 0-1-.463-1-1.03s-.45-1.03-1-1.03-1 .463-1 1.03c0 1.7 1.35 3.09 3 3.09h4c1.65 0 3-1.39 3-3.09 0-.567-.45-1.03-1-1.03zM3 2.06h18c.55 0 1 .464 1 1.03v8.243H2V3.09c0-.566.45-1.03 1-1.03zm18 20.607H3c-.55 0-1-.464-1-1.03v-8.243h20v8.242c0 .567-.45 1.03-1 1.03z" fill="#5E9EDC"></path>
    </symbol>
    <symbol xmlns="http://www.w3.org/2000/svg" viewBox="0 0 25 25" id="plano-barra-exercicios">
      <path d="M21.378.56l-8.47 1.583h-.357L4.083.56C2.142.205.46 1.736.46 3.623v16.582c0 1.48 1.07 2.806 2.5 3.06l9.183 1.685c.255.05.408.05.612.05.204 0 .357 0 .56-.05l9.185-1.685c1.43-.255 2.5-1.53 2.5-3.06V3.62c0-1.887-1.684-3.418-3.622-3.06zM2.55 20.205V3.622c0-.56.46-1.07 1.02-1.07h.206l7.96 1.48v18.723l-8.318-1.53c-.51-.052-.867-.51-.867-1.02zm20.41 0c0 .51-.358.97-.868 1.02l-8.316 1.53V4.032l8.01-1.48c.663-.1 1.173.41 1.173 1.02v16.634zM20.713 6.378l-5.102 1.02c-.56.102-.918.663-.816 1.224.102.46.51.817 1.02.817h.204l5.102-1.022c.562-.102.92-.663.817-1.224-.154-.612-.664-.918-1.226-.816zm0 5.204l-5.102 1.02c-.56.102-.918.663-.816 1.225.102.46.51.816 1.02.816h.204l5.102-1.02c.562-.103.92-.664.817-1.225-.154-.612-.664-.918-1.226-.816zm0 5.204l-5.102 1.02c-.56.102-.918.663-.816 1.225.102.46.51.817 1.02.817h.204l5.102-1.02c.562-.103.92-.664.817-1.225-.154-.612-.664-.97-1.226-.816zm-10.816 1.02l-5.102-1.02c-.56-.102-1.072.255-1.225.816-.152.56.257 1.07.818 1.225l5.102 1.02h.204c.46 0 .918-.357 1.02-.816.102-.56-.255-1.122-.816-1.224zm0-5.204l-5.102-1.02c-.56-.102-1.072.255-1.225.816-.152.56.257 1.07.818 1.224l5.102 1.02h.204c.46 0 .918-.356 1.02-.815.102-.562-.255-1.123-.816-1.225zm-5.51-4.235l5.102 1.02h.204c.46 0 .918-.356 1.02-.816.102-.56-.255-1.07-.816-1.223l-5.102-1.02c-.56-.103-1.072.255-1.225.816-.152.56.257 1.122.818 1.224z" fill="#4BB97A"></path>
    </symbol>
    <symbol xmlns="http://www.w3.org/2000/svg" viewBox="0 0 38 42" id="plano-certificado">
      <path d="M19 41.812a4.866 4.866 0 0 1-3.195-1.196l-1.47-1.29c-.474-.413-1.078-.597-1.683-.597l-1.9.09c-2.418.14-4.577-1.564-5.182-4.004l-.518-1.933c-.172-.645-.518-1.15-1.036-1.52L2.418 30.26c-2.03-1.382-2.85-4.097-1.986-6.49l.69-1.888a2.83 2.83 0 0 0 0-1.887l-.69-1.887c-.82-2.394 0-5.11 1.986-6.49l1.598-1.105c.518-.368.864-.875 1.036-1.52l.518-1.978c.605-2.44 2.764-4.143 5.182-4.005l1.9.092c.605.046 1.21-.184 1.684-.598l1.47-1.29a4.866 4.866 0 0 1 6.39 0l1.468 1.29c.475.414 1.08.598 1.684.598l1.9-.092c2.202-.138 4.188 1.243 4.966 3.452.172.507.086 1.105-.26 1.473l-11.227 12.29c-.388.414-.907.736-1.425.828a2.33 2.33 0 0 1-1.986-.736l-3.93-4.28a.773.773 0 0 0-1.122 0l-1.037 1.058a.903.903 0 0 0 0 1.197l6.823 7.41c.518.553 1.382.553 1.857 0L33.034 11.25c.432-.46 1.123-.553 1.64-.185l.82.6c2.03 1.38 2.85 4.095 1.988 6.49l-.69 1.886a2.83 2.83 0 0 0 0 1.888l.69 1.887c.863 2.394.043 5.11-1.987 6.49l-1.51 1.06c-.52.367-.865.92-1.037 1.518l-.518 1.933c-.605 2.348-2.635 4.005-4.923 4.005h-.26l-1.9-.09c-.604-.047-1.208.183-1.683.597l-1.47 1.29c-.905.735-2.028 1.195-3.194 1.195zm-5.614-5.845c.994.138 1.944.598 2.72 1.29l1.383 1.15c.862.736 2.244.736 3.108 0l1.468-1.29a5.06 5.06 0 0 1 3.454-1.196l1.9.093c1.166.046 2.203-.737 2.505-1.933l.518-1.98c.346-1.288 1.08-2.393 2.116-3.13l1.597-1.104c.993-.69 1.382-1.98.95-3.176l-.69-1.887a5.932 5.932 0 0 1 0-3.867l.69-1.887c.345-.968.13-2.026-.518-2.717-.174-.23-.52-.23-.735 0L20.77 28.786c-.388.415-.906.737-1.468.83-.777.09-1.468-.185-1.986-.738l-8.68-9.39c-.906-1.012-.906-2.623.044-3.59l2.418-2.53a2.62 2.62 0 0 1 1.425-.784 2.33 2.33 0 0 1 1.986.737l3.54 3.82c.518.553 1.34.553 1.857 0l8.895-9.71c.346-.415.303-1.06-.172-1.336-.39-.184-.778-.322-1.253-.276l-1.9.092c-1.252.046-2.504-.368-3.454-1.197l-1.468-1.29c-.864-.735-2.246-.735-3.11 0l-1.468 1.29c-.95.83-2.202 1.243-3.454 1.197l-1.9-.092c-1.166-.046-2.203.736-2.505 1.933l-.475 1.934c-.345 1.29-1.08 2.394-2.116 3.13l-1.64 1.105c-.994.69-1.382 1.978-.95 3.175l.69 1.887a5.932 5.932 0 0 1 0 3.867l-.69 1.886c-.432 1.15 0 2.485.95 3.176l1.597 1.104a5.357 5.357 0 0 1 2.116 3.13l.518 1.934c.302 1.196 1.34 2.025 2.505 1.933l1.9-.046c.26-.046.56 0 .863 0z" fill="#FFF"></path>
    </symbol>
    <symbol xmlns="http://www.w3.org/2000/svg" viewBox="0 0 17 13" id="plano-checked">
      <title>Inclui</title>
      <path d="M6.925 12.528c-.545.162-1.16.01-1.565-.442L.387 6.53A1.518 1.518 0 1 1 2.65 4.505L6.52 8.832 13.906.885A1.518 1.518 0 0 1 16.13 2.95l-8.5 9.15a1.51 1.51 0 0 1-.705.428z" fill="#65CF67"></path>
    </symbol>
    <symbol xmlns="http://www.w3.org/2000/svg" viewBox="0 0 34 37" id="plano-cursos">
      <path d="M27.64 10.736c1.297 2.248 1.99 4.847 1.99 7.562 0 3.834-1.38 7.433-3.887 10.14-2.426 2.625-5.654 4.114-9.09 4.198-.868.022-1.557.798-1.54 1.738.02.925.72 1.666 1.576 1.666h.034c4.25-.1 8.246-1.945 11.246-5.194 3.103-3.35 4.81-7.805 4.81-12.547 0-3.69-1.035-7.21-2.978-10.19l2.15.136c.923.066 1.615-.66 1.666-1.6.05-.94-.613-1.742-1.48-1.8l-5.98-.376-.063-.002a1.485 1.485 0 0 0-.73.182 1.544 1.544 0 0 0-.38.28 1.778 1.778 0 0 0-.495 1.242v6.462c0 .94.705 1.702 1.575 1.702s1.575-.763 1.575-1.702v-1.898zM3.886 29.8C-1.344 22.798-.95 12.545 5.03 6.083 8.136 2.733 12.255.89 16.64.89c.974.034 1.626.748 1.624 1.705-.002.94-.708 1.698-1.575 1.698H16.64c-3.543 0-6.874 1.49-9.382 4.197-4.856 5.25-5.155 13.585-.898 19.214v-2.41c0-.94.706-1.7 1.575-1.7.87 0 1.575.76 1.575 1.7v6.468c0 .465-.178.917-.494 1.236-.293.297-.68.466-1.08.466-.032 0-.062 0-.093-.005l-5.98-.378c-.868-.053-1.53-.86-1.48-1.8.05-.94.745-1.648 1.664-1.6l1.84.118z" fill="#FFF"></path>
    </symbol>
    <symbol version="1" xmlns="http://www.w3.org/2000/svg" preserveAspectRatio="none" viewBox="0 225 1442.8 95" id="plano-onda">
      <path d="M1442.8 225H0v50.7c28.6 14.2 79.7 22.3 100.1 25.5 96.5 14.9 169 5.4 254.9-32 186.1-80.9 332.7 47.3 516.2 46.2 102-.6 182.4-18.6 278.9-40 96.7-21.4 201.4-12.5 292.7 26.3V225z" fill="#4dba7a"></path>
    </symbol>
    <symbol xmlns="http://www.w3.org/2000/svg" viewBox="0 0 14 15" id="plano-unchecked">
      <title>Não inclui</title>
      <path d="M4.828 7.437L.744 3.04A1.59 1.59 0 1 1 3.074.876L7 5.1 10.925.874a1.59 1.59 0 1 1 2.33 2.166L9.173 7.438l4.37 4.702a1.59 1.59 0 1 1-2.332 2.165L7 9.775l-4.21 4.53A1.59 1.59 0 1 1 .46 12.14l4.368-4.703z" fill="#E7E7E7"></path>
    </symbol>
  </def>
</svg>