<svg width="0" height="0" class="hidden"><defs><symbol xmlns="http://www.w3.org/2000/svg" viewBox="0 0 50 50" id="curso-design-editorial"><path fill="#87d69b" d="m8.47 38.246 33.06-12.032V3.64a2.622 2.622 0 0 0-2.623-2.62H11.092A2.622 2.622 0 0 0 8.47 3.64v34.606z"/><path fill="#abe2b9" d="M41.53 4.355V3.64a2.622 2.622 0 0 0-2.623-2.62H11.092A2.622 2.622 0 0 0 8.47 3.64v12.747L41.53 4.355z"/><path fill="#444" d="M38.907 0H11.093a3.645 3.645 0 0 0-3.64 3.64v37.354a3.645 3.645 0 0 0 3.64 3.642h18.78V50l6.194-4.307v-6.756c0-.757-.615-1.372-1.37-1.372H18.843V2.04h20.064c.883 0 1.602.718 1.602 1.6v32.322a1.02 1.02 0 0 0 2.038 0V3.642A3.645 3.645 0 0 0 38.908 0zM9.49 3.64c0-.883.72-1.6 1.602-1.6h2.337v35.525H9.49V3.64zm24.538 35.963v5.024L31.913 46.1v-6.497h2.115zm-4.154 2.993h-18.78c-.884 0-1.603-.72-1.603-1.602v-1.39h20.385v2.992zm-12.66-5.03H15.06V2.038h2.153v35.525z"/></symbol><symbol xmlns="http://www.w3.org/2000/svg" viewBox="0 0 50 50" id="curso-fundamentos-http"><path fill="#CFF09E" d="M44.32 11.317C40.11 5.4 33.203 1.534 25.39 1.534 12.568 1.534 2.173 11.93 2.173 24.75c0 .633.032 1.257.082 1.877l42.064-15.31z"/><path fill="#DDF5BB" d="M36.023 4.114a23.102 23.102 0 0 0-10.634-2.58c-9.643 0-17.91 5.88-21.42 14.246L36.023 4.114z"/><g fill="#444"><path d="M2.065 22.65a1.096 1.096 0 0 0 1.246-.924 22.56 22.56 0 0 1 .376-1.905l3.67-.982c-.024.345-.054.687-.066 1.038a1.096 1.096 0 0 0 1.1 1.135c.588 0 1.075-.466 1.095-1.06a27.9 27.9 0 0 1 .115-1.713l5.754-1.542c.042.385.082.768.133 1.165a1.097 1.097 0 0 0 2.176-.28c-.064-.5-.12-.985-.168-1.46l10.377-2.78c.195.435.39.88.584 1.346a1.097 1.097 0 1 0 2.025-.845c-.153-.368-.31-.72-.466-1.074l5.753-1.542c.33.46.65.934.96 1.43a1.098 1.098 0 0 0 1.86-1.163c-.186-.298-.383-.58-.576-.867l3.67-.983c.443.468.873.95 1.28 1.46a1.097 1.097 0 0 0 1.72-1.365 24.555 24.555 0 0 0-1.78-1.98c-.02-.028-.047-.046-.07-.07A24.545 24.545 0 0 0 19.077 1.28 24.542 24.542 0 0 0 1.71 18.694c-.007.036-.022.068-.027.105a24.396 24.396 0 0 0-.548 2.603c-.084.6.33 1.157.93 1.246zm7.88-6.78c.88-4.59 2.953-8.306 5.85-10.536-.674 2.258-.9 5.36-.644 9.142L9.946 15.87zm7.376-1.976c-.366-6.387.777-10.076 2.33-10.494h.002c1.552-.42 4.387 2.206 7.264 7.923l-9.595 2.57zm11.764-3.152c-1.67-3.404-3.42-5.978-5.132-7.596 3.624.482 7.28 2.665 10.338 6.202l-5.206 1.394zm1.36-7.528a22.363 22.363 0 0 1 9.36 4.656l-3.17.85c-1.863-2.328-3.97-4.18-6.19-5.506zM10.21 8.636c-1.26 2.26-2.16 4.916-2.606 7.862l-3.17.85a22.332 22.332 0 0 1 5.776-8.712zm39.7 14.269a1.097 1.097 0 0 0-2.188.19 22.244 22.244 0 0 1-.526 7.082l-3.685.987c.024-.34.06-.673.073-1.017a1.097 1.097 0 0 0-1.058-1.135c-.592-.01-1.114.452-1.135 1.058a26.71 26.71 0 0 1-.12 1.695l-5.748 1.54c-.04-.38-.08-.754-.13-1.144a1.098 1.098 0 0 0-2.177.28c.062.494.116.97.164 1.44L23 36.66c-.193-.43-.385-.87-.577-1.328a1.098 1.098 0 0 0-2.026.847c.15.36.303.707.456 1.055l-5.752 1.54a27.51 27.51 0 0 1-.947-1.41 1.097 1.097 0 0 0-1.862 1.165c.182.29.37.57.56.85l-3.664.98a23.559 23.559 0 0 1-1.27-1.45 1.1 1.1 0 0 0-1.54-.177 1.096 1.096 0 0 0-.177 1.542A24.564 24.564 0 0 0 31.79 48.72c.002 0 .003 0 .004-.002 3.035-.813 4.443-5.663 3.93-13.197l5.207-1.394a22.76 22.76 0 0 1-.88 3.295 1.097 1.097 0 1 0 2.07.734c.52-1.47.89-3.03 1.136-4.652L49 31.962l.163-.61a24.468 24.468 0 0 0 .746-8.447zm-28.116 16.35c1.67 3.405 3.42 5.98 5.132 7.598-3.625-.482-7.28-2.665-10.34-6.203l5.208-1.395zm-1.37 7.526a22.334 22.334 0 0 1-9.35-4.652l3.176-.85c1.857 2.32 3.955 4.177 6.173 5.503zm10.802-.18c-1.55.41-4.386-2.21-7.264-7.926l9.593-2.57c.366 6.39-.777 10.08-2.33 10.495z"/><path d="m42.055 13.34-3.897 1.044 3.603 13.448 2.503-.67-1.268-4.734 1.88-.503c.873-.234 1.123-.417 1.716-.81.594-.39 1.055-.84 1.385-1.346.33-.508.53-1.062.6-1.662.073-.6.02-1.227-.153-1.877a4.92 4.92 0 0 0-.77-1.647 3.59 3.59 0 0 0-1.313-1.104c-.53-.264-1.152-.414-1.865-.448-.715-.036-1.52.067-2.42.308zm3.435 2.628c.19.262.333.572.43.932.1.378.136.735.107 1.072a2.1 2.1 0 0 1-.293.916 2.318 2.318 0 0 1-.714.72c-.31.206-.695.37-1.154.493l-1.395.375-1.292-4.827 1.395-.374a4.08 4.08 0 0 1 1.243-.158c.37.017.694.098.972.243.28.143.512.347.702.608zM4.55 31.503l4.63-1.24 1.575 5.877 2.52-.675-3.603-13.448-2.52.675 1.55 5.785-4.632 1.24-1.55-5.784L0 24.61l3.603 13.446 2.52-.675zM36 14.962l-10.61 2.844.55 2.055 4.064-1.088 3.053 11.392 2.502-.67L32.505 18.1l4.045-1.083zm-13.934 3.734L11.454 21.54l.55 2.055 4.065-1.09L19.12 33.9l2.502-.67-3.053-11.393 4.047-1.084z"/></g></symbol><symbol xmlns="http://www.w3.org/2000/svg" viewBox="0 0 50 50" id="curso-html-e-css"><path fill="#F799FF" d="M45.2 23.3 46.3 5c.1-2-1.5-3.6-3.4-3.6H7.1C5.1 1.4 3.6 3 3.7 5l2 32.7 39.5-14.4z"/><path fill="#E589EF" d="m46.2 7.6.2-2.5c.1-2-1.5-3.6-3.4-3.6H7.1c-2 0-3.5 1.6-3.4 3.6l1.1 17.6L46.2 7.6z"/><path fill="#444" d="M25.6 49.6c-.5 0-1.1-.1-1.6-.3L7.6 43.2c-1.7-.6-2.8-2.2-2.9-4L2.6 5.1c0-1.2.4-2.4 1.3-3.3S5.9.4 7.2.4H43c1.2 0 2.4.5 3.3 1.4s1.3 2.1 1.2 3.3l-2.1 34.2c0 .6-.5 1-1.1 1s-1-.5-1-1.1L45.2 5c0-.6-.2-1.3-.6-1.7-.5-.5-1.1-.7-1.7-.7H7.1c-.7 0-1.3.3-1.7.7-.5.4-.7 1-.6 1.7l2.1 34.1c0 1 .7 1.8 1.5 2.1l16.4 6.1c.5.2 1.2.2 1.7 0l4.4-1.6c.5-.2 1.2.1 1.4.6.2.6-.1 1.2-.6 1.4l-4.4 1.6c-.6.2-1.2.3-1.7.3z"/><path fill="#444" d="M18.8 32.4c-.3 0-.5-.1-.8-.3l-5.4-5.4c-.9-.9-.9-2.5 0-3.4l5.4-5.4c.4-.4 1.1-.4 1.5 0s.4 1.1 0 1.5l-5.4 5.4c-.1.1-.1.3 0 .4l5.4 5.4c.4.4.4 1.1 0 1.5-.2.2-.5.3-.7.3zm12.4 0c-.3 0-.5-.1-.8-.3-.4-.4-.4-1.1 0-1.5l5.4-5.4c.1-.1.1-.2.1-.2 0-.1 0-.1-.1-.2l-5.4-5.4c-.4-.4-.4-1.1 0-1.5s1.1-.4 1.5 0l5.4 5.4c.9.9.9 2.5 0 3.4L32 32.1c-.2.2-.5.3-.8.3zm-9 4.1h-.3c-.6-.2-.9-.7-.8-1.3l5.6-20.9c.2-.6.7-.9 1.3-.8.6.2.9.7.8 1.3l-5.6 20.9c-.1.5-.5.8-1 .8z"/></symbol><symbol xmlns="http://www.w3.org/2000/svg" viewBox="0 0 50 50" id="curso-ingles-para-entrevistas"><path fill="#A6C1C2" d="m9.53 15.602 4.368 3.06 6.22 4.36h.002a5.44 5.44 0 0 0-.595 2.47v4.642c0 1.29.458 2.467 1.206 3.402l19.987-7.275 1.077-1.536c.265-.38.47-.777.63-1.183a5.432 5.432 0 0 0-1.96-6.384l-4.368-3.06-12.753-8.924-4.367-3.06a5.414 5.414 0 0 0-6.658.347h-.008c-.33.28-.63.62-.893.992l-1.605 2.29-1.613 2.3a5.435 5.435 0 0 0 1.33 7.56z"/><path fill="#B9D7D9" d="m26.53 7.406-3.19-2.234-4.368-3.06a5.413 5.413 0 0 0-6.658.348h-.008c-.33.28-.63.62-.893.992l-1.605 2.29-1.613 2.3c-.264.38-.47.778-.628 1.19a5.43 5.43 0 0 0 .54 4.88L26.53 7.406z"/><path fill="#444" d="m41.09 16.263-3.474-2.433v-.002l-8.014-5.61-10-7a6.5 6.5 0 0 0-7.67.15l-.33.26a6.623 6.623 0 0 0-1.08 1.198L7.303 7.42c-.307.442-.56.922-.752 1.426a6.514 6.514 0 0 0 2.354 7.65l3.473 2.433 6.4 4.483a6.508 6.508 0 0 0-.344 2.08v4.64c0 2.592 1.513 4.83 3.697 5.896v6.475h-5.888c-1.058 0-1.92.86-1.92 1.918v3.62c0 1.057.862 1.917 1.92 1.917h17.504c1.058 0 1.92-.86 1.92-1.918v-3.62a1.921 1.921 0 0 0-1.92-1.917h-1.52a1.092 1.092 0 0 0 0 2.184h1.255v3.087H16.51V44.69h10.26a1.093 1.093 0 0 0 0-2.185h-2.453v-5.808h1.362v2.078a1.092 1.092 0 1 0 2.182 0V36.03a6.592 6.592 0 0 0 3.41-3.97 6.54 6.54 0 0 0 2.86.66 6.502 6.502 0 0 0 3.933-1.32l.34-.27a6.85 6.85 0 0 0 1.07-1.188l3.22-4.594c.303-.437.555-.91.75-1.416a6.51 6.51 0 0 0-2.353-7.67zm-16.095 2.67a6.55 6.55 0 0 0-5.178 2.545l-4.4-3.083 8.194-11.702 4.67 3.267 6.294 4.407-4.716 6.737a6.54 6.54 0 0 0-4.863-2.172zm-14.837-4.225a4.32 4.32 0 0 1-1.825-3.878l3.347 2.344a.87.87 0 0 0 1.216-.214.875.875 0 0 0-.215-1.217L8.856 9.06c.074-.133.15-.264.24-.39L10.2 7.09l3.852 2.696a.87.87 0 0 0 1.216-.214.875.875 0 0 0-.215-1.217l-3.85-2.697 1.102-1.573c.094-.132.19-.254.29-.368l3.828 2.68a.866.866 0 0 0 1.216-.213.875.875 0 0 0-.214-1.217L14.08 2.624a4.314 4.314 0 0 1 4.27.382l3.473 2.432L13.63 17.14l-3.472-2.432zm19.216 15.427c0 2.414-1.964 4.378-4.378 4.378s-4.378-1.964-4.378-4.378v-4.642c0-2.414 1.964-4.378 4.378-4.378s4.378 1.964 4.378 4.378v4.642zm2.263-.383-.08-.056v-4.203c0-.835-.163-1.632-.45-2.368l5.256-7.507 3.475 2.433a4.326 4.326 0 0 1 1.828 3.89l-3.015-2.112a.875.875 0 0 0-1.001 1.432l3.49 2.445a4.559 4.559 0 0 1-.238.393l-1.107 1.58-3.515-2.462a.874.874 0 1 0-1.002 1.433l3.515 2.46-1.103 1.575c-.092.13-.203.237-.306.355l-3.475-2.434a.874.874 0 1 0-1.003 1.431l3.006 2.105a4.349 4.349 0 0 1-4.276-.388z"/></symbol><symbol xmlns="http://www.w3.org/2000/svg" viewBox="0 0 50 50" id="curso-introducao-html-css"><path fill="#fe4365" d="M45.2 23.3 46.3 5c.1-2-1.5-3.6-3.4-3.6H7.1C5.1 1.4 3.6 3 3.7 5l2 32.7 39.5-14.4z"/><path fill="#e43c5a" d="m46.2 7.6.2-2.5c.1-2-1.5-3.6-3.4-3.6H7.1c-2 0-3.5 1.6-3.4 3.6l1.1 17.6L46.2 7.6z"/><path fill="#444" d="M25.6 49.6c-.5 0-1.1-.1-1.6-.3L7.6 43.2c-1.7-.6-2.8-2.2-2.9-4L2.6 5.1c0-1.2.4-2.4 1.3-3.3S5.9.4 7.2.4H43c1.2 0 2.4.5 3.3 1.4s1.3 2.1 1.2 3.3l-2.1 34.2c0 .6-.5 1-1.1 1-.6 0-1-.5-1-1.1L45.2 5c0-.6-.2-1.3-.6-1.7-.5-.5-1.1-.7-1.7-.7H7.1c-.7 0-1.3.3-1.7.7-.5.4-.7 1-.6 1.7l2.1 34.1c0 1 .7 1.8 1.5 2.1l16.4 6.1c.5.2 1.2.2 1.7 0l4.4-1.6c.5-.2 1.2.1 1.4.6.2.6-.1 1.2-.6 1.4l-4.4 1.6c-.6.2-1.2.3-1.7.3z"/><path fill="#444" d="M18.8 32.4c-.3 0-.5-.1-.8-.3l-5.4-5.4c-.9-.9-.9-2.5 0-3.4l5.4-5.4c.4-.4 1.1-.4 1.5 0s.4 1.1 0 1.5l-5.4 5.4c-.1.1-.1.3 0 .4l5.4 5.4c.4.4.4 1.1 0 1.5-.2.2-.5.3-.7.3zm12.4 0c-.3 0-.5-.1-.8-.3-.4-.4-.4-1.1 0-1.5l5.4-5.4c.1-.1.1-.2.1-.2 0-.1 0-.1-.1-.2l-5.4-5.4c-.4-.4-.4-1.1 0-1.5s1.1-.4 1.5 0l5.4 5.4c.9.9.9 2.5 0 3.4L32 32.1c-.2.2-.5.3-.8.3zm-9 4.1h-.3c-.6-.2-.9-.7-.8-1.3l5.6-20.9c.2-.6.7-.9 1.3-.8.6.2.9.7.8 1.3l-5.6 20.9c-.1.5-.5.8-1 .8z"/></symbol><symbol xmlns="http://www.w3.org/2000/svg" viewBox="0 0 50 50" id="curso-java-e-orientacao-a-objetos"><path fill="#C3FF68" d="M12.573 18.512h2.422c-.842 0-1.58.737-1.58 1.58l1.474 14.112 20.85-7.582V26.2l.633-6.108c0-.842-.737-1.58-1.58-1.58h2.422c1.474 0 2.527-1.158 1.896-2.212l-1.895-2.95c-.316-.526-1.053-.84-1.896-.84H14.47c-.843 0-1.58.315-1.897.84l-1.895 2.95c-.632 1.053.316 2.212 1.895 2.212z"/><path fill="#B2DB59" d="M12.573 18.512h2.422c-.842 0-1.58.737-1.58 1.58l.42 4.212 24.855-9.057-1.264-1.896c-.316-.526-1.053-.84-1.896-.84H14.47c-.843 0-1.58.315-1.897.84l-1.895 2.95c-.632 1.053.316 2.212 1.895 2.212z"/><path d="M25.785 7.377c-.382.306-.46.765-.153 1.147.153.23.382.306.688.306.153 0 .382-.076.46-.153.076-.077 1.834-1.377 1.834-4.282 0-2.83-1.76-4.206-1.835-4.206-.383-.307-.842-.23-1.148.152s-.23.918.153 1.147c.076 0 1.147.917 1.147 2.905.077 2.064-1.07 2.905-1.147 2.982zm14.38 8.397-1.896-2.95c-.528-.84-1.58-1.368-2.74-1.368H14.47c-1.16 0-2.213.527-2.74 1.37l-1.895 2.948c-.42.632-.42 1.474-.105 2.212.527.948 1.58 1.474 2.843 1.474h.105c0 .21-.105.42-.105.527l2.843 27.592c0 1.368.948 2.42 2.106 2.42h14.954c1.158 0 2.106-1.052 2.106-2.42l1.053-10.11c.105-.528-.316-.95-.842-1.054-.527-.105-.948.316-1.053.842l-1.053 10.11v.105c0 .316-.105.527-.21.527H17.522c-.105 0-.21-.21-.21-.632l-.95-9.162H25c.527 0 .948-.42.948-.948A.944.944 0 0 0 25 36.31h-8.74l-.95-9.373h20.537c.527.105.948-.316 1.053-.842l.632-6.108v-.105c0-.21 0-.42-.105-.527h.105c1.264 0 2.317-.527 2.738-1.474.316-.632.316-1.37-.105-2.106zm-4.634 4.212-.526 5.16h-20.01l-.526-5.16c0-.316.316-.527.527-.527h20.01c.316 0 .526.21.526.526zm3.055-2.95c-.105.212-.527.422-1.053.422H12.68c-.528 0-.95-.21-1.054-.42v-.212l1.896-2.95c.105-.21.527-.42 1.053-.42h20.957c.527 0 .948.21 1.053.42l1.896 2.95a.33.33 0 0 1 .105.21z" fill="#444"/></symbol><symbol xmlns="http://www.w3.org/2000/svg" viewBox="0 0 50 50" id="curso-jpa-avancado"><path fill="#E589EF" d="M41.555 25.873V3.22a1.96 1.96 0 0 0-1.96-1.96H10.406a1.962 1.962 0 0 0-1.962 1.96v34.704l33.11-12.05z"/><path fill="#F799FF" d="M41.362 2.387a1.957 1.957 0 0 0-1.77-1.127H10.408a1.962 1.962 0 0 0-1.962 1.96v11.15L41.363 2.39z"/><g fill="#444"><path d="M39.593.034H10.407A3.191 3.191 0 0 0 7.22 3.222V46.78a3.19 3.19 0 0 0 3.187 3.187h23.177a1.227 1.227 0 0 0 0-2.451H10.407a.736.736 0 0 1-.735-.735v-5.034h27.76a1.227 1.227 0 1 0 0-2.452H9.67v-5.77h30.66v2.885a1.227 1.227 0 0 0 2.452-.001V3.22A3.19 3.19 0 0 0 39.595.034zm.736 31.036H9.67V25.3h30.66v5.77zM9.67 22.847V3.22c0-.404.33-.734.736-.734h29.187c.405 0 .735.33.735.735v19.627H9.67z"/><path d="M13.717 29.166H25a.98.98 0 0 0 0-1.962H13.717a.98.98 0 0 0 0 1.962zm0 6.26a.98.98 0 0 0 0 1.962H25a.98.98 0 0 0 0-1.962H13.717zm0 8.222a.98.98 0 0 0 0 1.962H25a.98.98 0 0 0 0-1.962H13.717z"/><circle cx="33.584" cy="28.185" r="1.509"/><circle cx="33.584" cy="36.407" r="1.509"/><circle cx="33.584" cy="44.629" r="1.509"/></g></symbol><symbol xmlns="http://www.w3.org/2000/svg" viewBox="0 0 50 50" id="curso-jsf-cdi"><path fill="#E589EF" d="M43.943 22.196C42.423 13.18 34.583 6.31 25.136 6.31c-10.537 0-19.08 8.543-19.08 19.08 0 3.52.958 6.813 2.62 9.643l35.267-12.837z"/><path fill="#F799FF" d="M34.71 9.4a18.979 18.979 0 0 0-10.4-3.09c-8.603 0-15.873 5.695-18.254 13.52L34.71 9.4z"/><path fill="#444" d="M48.94 23.94h-3.844C44.56 13.685 36.313 5.44 26.06 4.906V1.06a1.06 1.06 0 1 0-2.12 0v3.846a20.04 20.04 0 0 0-12.39 5.143L7.243 5.743a1.061 1.061 0 0 0-1.5 1.5l4.306 4.304a20.04 20.04 0 0 0-5.143 12.39H1.06a1.06 1.06 0 0 0 0 2.123h3.846c.535 10.253 8.78 18.5 19.033 19.035v3.845a1.06 1.06 0 1 0 2.12 0v-5.938H25c-9.926 0-18.002-8.076-18.002-18.002 0-4.582 1.735-8.757 4.565-11.938l2.535 2.535a14.291 14.291 0 0 0-3.507 9.402c0 7.945 6.465 14.408 14.41 14.408S39.41 32.945 39.41 25c0-3.298-1.086-6.402-3.138-8.976a.849.849 0 0 0-1.327 1.055 12.585 12.585 0 0 1 2.768 7.92c0 7.01-5.703 12.713-12.713 12.713S12.288 32.01 12.288 25c0-3.04 1.066-5.91 3.01-8.203l2.578 2.578A9.01 9.01 0 0 0 15.918 25c0 5.008 4.075 9.083 9.083 9.083s9.084-4.075 9.084-9.083a.637.637 0 0 0-1.272 0c0 4.307-3.504 7.81-7.81 7.81S17.19 29.307 17.19 25a7.74 7.74 0 0 1 1.595-4.716l4.194 4.194c-.044.168-.075.34-.075.523a2.096 2.096 0 1 0 2.097-2.094c-.18 0-.353.03-.52.074L13.06 11.562c3.18-2.83 7.356-4.565 11.938-4.565 9.926 0 18.002 8.075 18.002 18v1.06h5.938a1.06 1.06 0 1 0 0-2.12z"/></symbol><symbol xmlns="http://www.w3.org/2000/svg" viewBox="0 0 50 50" id="curso-jsf-primefaces"><path fill="#AFE55D" d="M43.943 22.196C42.423 13.18 34.583 6.31 25.136 6.31c-10.537 0-19.08 8.543-19.08 19.08 0 3.52.958 6.813 2.62 9.643l35.267-12.837z"/><path fill="#C3FF68" d="M34.71 9.4a18.979 18.979 0 0 0-10.4-3.09c-8.603 0-15.873 5.695-18.254 13.52L34.71 9.4z"/><path fill="#444" d="M48.94 23.94h-3.844C44.56 13.685 36.313 5.44 26.06 4.906V1.06a1.06 1.06 0 1 0-2.12 0v3.846a20.04 20.04 0 0 0-12.39 5.143L7.243 5.743a1.061 1.061 0 0 0-1.5 1.5l4.306 4.304a20.04 20.04 0 0 0-5.143 12.39H1.06a1.06 1.06 0 0 0 0 2.123h3.846c.535 10.253 8.78 18.5 19.033 19.035v3.845a1.06 1.06 0 1 0 2.12 0v-5.938H25c-9.926 0-18.002-8.076-18.002-18.002 0-4.582 1.735-8.757 4.565-11.938l2.535 2.535a14.291 14.291 0 0 0-3.507 9.402c0 7.945 6.465 14.408 14.41 14.408S39.41 32.945 39.41 25c0-3.298-1.086-6.402-3.138-8.976a.849.849 0 0 0-1.327 1.055 12.585 12.585 0 0 1 2.768 7.92c0 7.01-5.703 12.713-12.713 12.713S12.288 32.01 12.288 25c0-3.04 1.066-5.91 3.01-8.203l2.578 2.578A9.01 9.01 0 0 0 15.918 25c0 5.008 4.075 9.083 9.083 9.083s9.084-4.075 9.084-9.083a.637.637 0 0 0-1.272 0c0 4.307-3.504 7.81-7.81 7.81S17.19 29.307 17.19 25a7.74 7.74 0 0 1 1.595-4.716l4.194 4.194c-.044.168-.075.34-.075.523a2.096 2.096 0 1 0 2.097-2.094c-.18 0-.353.03-.52.074L13.06 11.562c3.18-2.83 7.356-4.565 11.938-4.565 9.926 0 18.002 8.075 18.002 18v1.06h5.938a1.06 1.06 0 1 0 0-2.12z"/></symbol><symbol xmlns="http://www.w3.org/2000/svg" viewBox="0 0 50 50" id="curso-logica-de-programacao"><path fill="#c7f464" d="M41.1 23.3c-.1-.4-.6-.5-.9-.3-.5.3-.9.5-1.5.7-1.8.7-3.7.6-5.4 0L10.7 32l2.7 7.3c.4 1 1.5 1.6 2.5 1.2l6.5-2.4c.5-.2.9.3.8.7-.6 2-.4 4.3.9 6.3 1.6 2.7 4.8 4.2 7.9 3.7 5.1-.8 8-6 6.3-10.6-.6-1.6-1.7-2.9-3-3.9-.4-.3-.3-.9.1-1l6.5-2.4c1-.4 1.6-1.5 1.2-2.5l-2-5.1z"/><path fill="#b2db59" d="m36 34.8-12.8 4.7c-.3 1.8-.1 3.8 1 5.6 1.6 2.7 4.8 4.2 7.9 3.7 5.1-.8 8-6 6.3-10.6-.5-1.4-1.4-2.5-2.4-3.4z"/><path fill="#444" d="M30.7 50c-3.1 0-6.1-1.6-7.7-4.4-1.1-1.9-1.6-4.1-1.2-6.2l-5.6 2c-1.6.6-3.4-.2-4-1.8L5.8 21.9c-.2-.6.1-1.2.7-1.4.6-.2 1.2.1 1.4.7l6.4 17.7c.2.4.7.7 1.1.5L22 37c.6-.2 1.3-.1 1.7.3.5.4.7 1.1.5 1.7-.5 1.8-.3 3.8.7 5.4 1.4 2.3 4.1 3.6 6.8 3.2 2.1-.3 3.8-1.5 4.9-3.3 1-1.8 1.2-3.9.5-5.8-.5-1.4-1.4-2.5-2.6-3.3-.5-.4-.8-1-.7-1.6.1-.6.5-1.2 1.1-1.4l6.5-2.4c.4-.2.7-.7.5-1.1l-1.7-4.6c-.4.2-.7.4-1.1.5-2.3.8-4.8.7-7-.3s-3.9-2.9-4.7-5.2c-1.6-4.6.9-9.9 5.5-11.5l1.2-.3-1.7-4.6c-.2-.4-.6-.7-1.1-.5L13.2 8.9c-.6.2-1.2-.1-1.4-.7-.2-.6.1-1.2.7-1.4L30.7.2c1.6-.6 3.4.2 4 1.8l1.9 5.2c.2.5.1 1-.1 1.4-.3.4-.7.7-1.2.8-.5.1-.9.2-1.3.3-3.4 1.2-5.3 5.2-4.1 8.7.6 1.7 1.9 3.1 3.5 3.9 1.7.8 3.5.9 5.2.2.4-.2.9-.4 1.3-.6.5-.3 1-.3 1.5-.2.5.2.9.5 1 1l1.9 5.2c.3.8.2 1.6-.1 2.4-.3.7-1 1.3-1.7 1.6l-5.6 2c1.2 1 2.1 2.3 2.6 3.8.9 2.6.7 5.4-.7 7.7s-3.7 3.9-6.5 4.4c-.7.2-1.1.2-1.6.2zM22 38.5z"/></symbol><symbol xmlns="http://www.w3.org/2000/svg" viewBox="0 0 50 50" id="curso-marketing-digital-canais-nao-pagos"><path fill="#AFE55D" d="m34.332 30.57 5.45-20.343a4.272 4.272 0 0 0-3.022-5.235l-11.904-3.19a4.275 4.275 0 0 0-5.235 3.023l-9.233 34.46 23.945-8.716z"/><path fill="#C3FF68" d="M39.61 7.817a4.261 4.261 0 0 0-2.956-2.825L24.75 1.802a4.275 4.275 0 0 0-5.235 3.022l-3.06 11.42L39.61 7.818z"/><path fill="#444" d="M25.145 49.414c-.092 0-.185-.012-.277-.037l-11.904-3.19a5.298 5.298 0 0 1-3.245-2.49 5.3 5.3 0 0 1-.535-4.053L18.59 4.548a5.302 5.302 0 0 1 2.49-3.244A5.325 5.325 0 0 1 25.134.77l11.904 3.19a5.313 5.313 0 0 1 3.244 2.49 5.31 5.31 0 0 1 .534 4.055l-5.45 20.34a1.07 1.07 0 0 1-2.065-.553l5.45-20.34a3.17 3.17 0 0 0-.32-2.432 3.191 3.191 0 0 0-1.946-1.494L24.58 2.836a3.183 3.183 0 0 0-2.432.32 3.193 3.193 0 0 0-1.494 1.947L11.25 40.198a3.184 3.184 0 0 0 .32 2.433 3.184 3.184 0 0 0 1.947 1.495l11.904 3.19a1.067 1.067 0 0 1-.275 2.099z"/><path fill="#444" d="M19.09 29.593a1.569 1.569 0 1 1-.405 3.083 1.56 1.56 0 0 1-.952-.73 1.57 1.57 0 0 1 1.356-2.353m0-1.71a3.279 3.279 0 0 0 .002 6.556 3.28 3.28 0 0 0-.003-6.557zm1.918-5.447a1.57 1.57 0 0 1 1.516 1.974 1.57 1.57 0 0 1-1.919 1.108 1.566 1.566 0 0 1-1.108-1.92 1.57 1.57 0 0 1 1.513-1.162m0-1.71a3.279 3.279 0 0 0 .002 6.556 3.279 3.279 0 0 0-.004-6.556zm1.915-5.446a1.568 1.568 0 1 1 .003 3.135 1.568 1.568 0 0 1-.002-3.134m0-1.71a3.278 3.278 0 0 0 .003 6.555c1.447 0 2.77-.966 3.164-2.43a3.276 3.276 0 0 0-3.166-4.124zm7.982 3.847a1.569 1.569 0 1 1-.403 3.083 1.561 1.561 0 0 1-1.108-1.918 1.57 1.57 0 0 1 1.513-1.164m0-1.71a3.279 3.279 0 0 0 .003 6.556 3.279 3.279 0 0 0-.003-6.556zm-1.919 8.866c.135 0 .272.018.407.054a1.561 1.561 0 0 1 1.108 1.918l-1.918 7.157a1.568 1.568 0 0 1-3.03-.812l1.92-7.156a1.568 1.568 0 0 1 1.51-1.162m0-1.71a3.28 3.28 0 0 0-3.163 2.43l-1.918 7.157a3.279 3.279 0 0 0 6.332 1.696l1.917-7.157a3.278 3.278 0 0 0-3.167-4.125zm2.591-14.909-3.716-.996a.785.785 0 0 1 .406-1.515l3.716.996a.785.785 0 0 1-.406 1.515z"/></symbol><symbol xmlns="http://www.w3.org/2000/svg" viewBox="0 0 50 50" id="curso-marketing-digital-canais-pagos"><path fill="#00C8E2" d="m34.332 30.57 5.45-20.343a4.272 4.272 0 0 0-3.022-5.235l-11.904-3.19a4.275 4.275 0 0 0-5.235 3.023l-9.233 34.46 23.945-8.716z"/><path fill="#00DFFC" d="M39.61 7.817a4.261 4.261 0 0 0-2.956-2.825L24.75 1.802a4.275 4.275 0 0 0-5.235 3.022l-3.06 11.42L39.61 7.818z"/><path fill="#444" d="M25.145 49.414c-.092 0-.185-.012-.277-.037l-11.904-3.19a5.298 5.298 0 0 1-3.245-2.49 5.3 5.3 0 0 1-.535-4.053L18.59 4.548a5.302 5.302 0 0 1 2.49-3.244A5.325 5.325 0 0 1 25.134.77l11.904 3.19a5.313 5.313 0 0 1 3.244 2.49 5.31 5.31 0 0 1 .534 4.055l-5.45 20.34a1.07 1.07 0 0 1-2.065-.553l5.45-20.34a3.17 3.17 0 0 0-.32-2.432 3.191 3.191 0 0 0-1.946-1.494L24.58 2.836a3.183 3.183 0 0 0-2.432.32 3.193 3.193 0 0 0-1.494 1.947L11.25 40.198a3.184 3.184 0 0 0 .32 2.433 3.184 3.184 0 0 0 1.947 1.495l11.904 3.19a1.067 1.067 0 0 1-.275 2.099z"/><path fill="#444" d="M19.09 29.593a1.569 1.569 0 1 1-.405 3.083 1.56 1.56 0 0 1-.952-.73 1.57 1.57 0 0 1 1.356-2.353m0-1.71a3.279 3.279 0 0 0 .002 6.556 3.28 3.28 0 0 0-.003-6.557zm1.918-5.447a1.57 1.57 0 0 1 1.516 1.974 1.57 1.57 0 0 1-1.919 1.108 1.566 1.566 0 0 1-1.108-1.92 1.57 1.57 0 0 1 1.513-1.162m0-1.71a3.279 3.279 0 0 0 .002 6.556 3.279 3.279 0 0 0-.004-6.556zm1.915-5.446a1.568 1.568 0 1 1 .003 3.135 1.568 1.568 0 0 1-.002-3.134m0-1.71a3.278 3.278 0 0 0 .003 6.555c1.447 0 2.77-.966 3.164-2.43a3.276 3.276 0 0 0-3.166-4.124zm7.982 3.847a1.569 1.569 0 1 1-.403 3.083 1.561 1.561 0 0 1-1.108-1.918 1.57 1.57 0 0 1 1.513-1.164m0-1.71a3.279 3.279 0 0 0 .003 6.556 3.279 3.279 0 0 0-.003-6.556zm-1.919 8.866c.135 0 .272.018.407.054a1.561 1.561 0 0 1 1.108 1.918l-1.918 7.157a1.568 1.568 0 0 1-3.03-.812l1.92-7.156a1.568 1.568 0 0 1 1.51-1.162m0-1.71a3.28 3.28 0 0 0-3.163 2.43l-1.918 7.157a3.279 3.279 0 0 0 6.332 1.696l1.917-7.157a3.278 3.278 0 0 0-3.167-4.125zm2.591-14.909-3.716-.996a.785.785 0 0 1 .406-1.515l3.716.996a.785.785 0 0 1-.406 1.515z"/></symbol><symbol xmlns="http://www.w3.org/2000/svg" viewBox="0 0 50 50" id="curso-primeiros-passos-com-java"><path fill="#E56060" d="M12.573 18.512h2.422c-.842 0-1.58.737-1.58 1.58l1.474 14.112 20.85-7.582V26.2l.633-6.108c0-.842-.737-1.58-1.58-1.58h2.422c1.474 0 2.527-1.158 1.896-2.212l-1.895-2.95c-.316-.526-1.053-.84-1.896-.84H14.47c-.843 0-1.58.315-1.897.84l-1.895 2.95c-.632 1.053.316 2.212 1.895 2.212z"/><path fill="#FF6B6B" d="M12.573 18.512h2.422c-.842 0-1.58.737-1.58 1.58l.42 4.212 24.855-9.057-1.264-1.896c-.316-.526-1.053-.84-1.896-.84H14.47c-.843 0-1.58.315-1.897.84l-1.895 2.95c-.632 1.053.316 2.212 1.895 2.212z"/><path d="M25.785 7.377c-.382.306-.46.765-.153 1.147.153.23.382.306.688.306.153 0 .382-.076.46-.153.076-.077 1.834-1.377 1.834-4.282 0-2.83-1.76-4.206-1.835-4.206-.383-.307-.842-.23-1.148.152s-.23.918.153 1.147c.076 0 1.147.917 1.147 2.905.077 2.064-1.07 2.905-1.147 2.982zm14.38 8.397-1.896-2.95c-.528-.84-1.58-1.368-2.74-1.368H14.47c-1.16 0-2.213.527-2.74 1.37l-1.895 2.948c-.42.632-.42 1.474-.105 2.212.527.948 1.58 1.474 2.843 1.474h.105c0 .21-.105.42-.105.527l2.843 27.592c0 1.368.948 2.42 2.106 2.42h14.954c1.158 0 2.106-1.052 2.106-2.42l1.053-10.11c.105-.528-.316-.95-.842-1.054-.527-.105-.948.316-1.053.842l-1.053 10.11v.105c0 .316-.105.527-.21.527H17.522c-.105 0-.21-.21-.21-.632l-.95-9.162H25c.527 0 .948-.42.948-.948A.944.944 0 0 0 25 36.31h-8.74l-.95-9.373h20.537c.527.105.948-.316 1.053-.842l.632-6.108v-.105c0-.21 0-.42-.105-.527h.105c1.264 0 2.317-.527 2.738-1.474.316-.632.316-1.37-.105-2.106zm-4.634 4.212-.526 5.16h-20.01l-.526-5.16c0-.316.316-.527.527-.527h20.01c.316 0 .526.21.526.526zm3.055-2.95c-.105.212-.527.422-1.053.422H12.68c-.528 0-.95-.21-1.054-.42v-.212l1.896-2.95c.105-.21.527-.42 1.053-.42h20.957c.527 0 .948.21 1.053.42l1.896 2.95a.33.33 0 0 1 .105.21z" fill="#444"/></symbol><symbol xmlns="http://www.w3.org/2000/svg" viewBox="0 0 50 50" id="curso-android-studio-ii-integracoes-e-recursos"><path d="m41.866 16.777-.09-.405h-1.465c-.57 0-1.016.453-1.057 1.02-.008.12-.028.233-.04.35l2.653-.965zm-23 .433-5.998 10.12 7.62-2.772 1.986-3.353.35.387a2.77 2.77 0 0 0 4.11 0l.346-.384.428.722 4.916-1.79-1.735-2.927.96-1.063c.37-.41.575-.945.575-1.498V9.126a2.918 2.918 0 0 0-2.918-2.918h-1.574V2.16c0-.584-.475-1.06-1.06-1.06h-3.99a1.06 1.06 0 0 0-1.06 1.06v4.047h-1.575a2.917 2.917 0 0 0-2.918 2.918v5.525c0 .554.205 1.087.577 1.498l.96 1.06z" fill="#46B8B0"/><path fill="#4ECDC4" d="m18.55 16.86 13.877-5.05V9.125a2.918 2.918 0 0 0-2.918-2.918h-1.575V2.16a1.06 1.06 0 0 0-1.06-1.06h-3.99a1.06 1.06 0 0 0-1.06 1.06v4.047h-1.573a2.917 2.917 0 0 0-2.918 2.918v5.525c0 .554.205 1.087.576 1.498l.64.712z"/><g fill="#444"><path d="M46.762 44.907c-.56 0-1.014.454-1.014 1.014v1.62l-2.645-1.83-6.577-11.098c.884-.548 1.73-1.16 2.53-1.835l3.38 5.705a1.015 1.015 0 0 0 1.746-1.035l-4.27-7.206a20.004 20.004 0 0 0 4.36-7.053 1.014 1.014 0 1 0-1.911-.684c-1.318 3.68-3.79 6.814-7.146 9.065a17.245 17.245 0 0 1-6.116 2.553c-4.502.914-9.096.18-12.94-2.065l-.87-.51L6.896 45.71l-2.645 1.83v-3.473l15.99-26.984-1.458-1.614a1.225 1.225 0 0 1-.315-.82V9.126c0-1.05.853-1.904 1.903-1.904h2.588l.046-5.105 4.036.045v5.06h2.588c1.05 0 1.904.854 1.904 1.904v5.525c0 .304-.112.595-.315.82l-1.462 1.616 6.067 10.238.922-1.067a15.011 15.011 0 0 0 3.64-8.79c.003-.043.025-.08.046-.08h1.465a1.014 1.014 0 0 0 0-2.028h-1.465c-1.1 0-1.988.843-2.07 1.962a12.972 12.972 0 0 1-2.27 6.472l-3.826-6.455.46-.51c.54-.598.837-1.372.837-2.178V9.126a3.936 3.936 0 0 0-3.932-3.933h-.56v-3.03c0-1.145-.93-2.075-2.074-2.075h-3.99c-1.145 0-2.075.93-2.075 2.074v3.03h-.56a3.938 3.938 0 0 0-3.932 3.934v5.525c0 .807.298 1.58.84 2.18l.455.505L2.223 43.51v4.748a1.651 1.651 0 0 0 2.592 1.358l3.6-2.492L16.02 34.29c4.085 2.113 8.832 2.76 13.483 1.817 1.587-.322 3.15-.86 4.617-1.58l7.464 12.597 3.6 2.492a1.64 1.64 0 0 0 1.707.106c.547-.285.887-.846.887-1.464V45.92c0-.56-.454-1.013-1.015-1.013z"/><path d="M26.304 20.912c-.674.747-1.93.746-2.604 0l-1.273-1.41-5.607 9.462.885.514a15.117 15.117 0 0 0 14.7.255l.934-.5-5.766-9.728-1.27 1.407zm-6.674 7.29 3.187-5.378c1.267.895 3.1.896 4.367.002l3.306 5.58c-3.425 1.486-7.5 1.407-10.86-.204z"/></g></symbol><symbol xmlns="http://www.w3.org/2000/svg" viewBox="0 0 50 50" id="curso-angularjs-mvc"><path fill="#FF6B6B" d="m45.7 24.94 1.74-12.614a.506.506 0 0 0-.28-.525L25.22 1.19a.502.502 0 0 0-.44 0L2.84 11.8a.506.506 0 0 0-.28.526l3.716 26.96L45.7 24.94z"/><path fill="#E56060" d="M37.947 7.345 25.22 1.19a.502.502 0 0 0-.44 0L2.84 11.8a.506.506 0 0 0-.28.526l1.036 7.52 34.35-12.5z"/><g fill="#444"><path d="m30.01 30.367-5.22-10.852-4.672 10.852h9.89zm-5.136-6.778 2.448 5.088h-4.638l2.19-5.09z"/><path d="M47.618 10.85 25.682.24c-.433-.21-.93-.21-1.362-.002L2.383 10.85a1.557 1.557 0 0 0-.868 1.62L5.43 40.872c.074.54.432 1.01.934 1.223l18.022 7.698a1.56 1.56 0 0 0 1.245-.007l12.823-5.744c.207-.093.353-.254.46-.435.014-.006.028-.003.042-.01.42-.2.602-.702.403-1.123l-14.646-31.01-12.588 27.984h6.123l2.22-5.75h9.15l2.205 5.233a.845.845 0 0 0 1.557-.655l-2.64-6.267H19.308l-2.22 5.75h-2.352L24.75 15.5l12.617 26.717-12.372 5.542-17.516-7.48-3.82-27.7L25 2.256l21.34 10.323-2.133 15.46a1.056 1.056 0 0 0 2.09.29l2.188-15.858a1.558 1.558 0 0 0-.867-1.62z"/></g></symbol><symbol xmlns="http://www.w3.org/2000/svg" viewBox="0 0 50 50" id="curso-cordova-phonegap"><path fill="#A6C1C2" d="M1.594 20.233c-.002.002-.002.007 0 .01v.01c.177 5.02.658 9.965 1.422 14.814.035.228.54 3.21.786 4.462.068.346.15.69.22 1.036l44.126-16.06c.1-1.413.18-2.83.23-4.256v-.01c.002-.002.002-.007 0-.01.002 0 .002 0 0-.003.013-.333-.044-1.153-.044-1.153-.512-1.007-2.985-5.505-3.72-6.74h-.003a122.22 122.22 0 0 0-5.2-8.032v-.004a160.87 160.87 0 0 0-1.684-2.312c-.477-.05-3.938-.348-5.205-.423a242.6 242.6 0 0 0-5.026-.203c-.83-.016-4.184-.016-5.014 0-.433.01-3.787.128-5.028.203-1.267.075-4.728.372-5.205.423 0 0-1.188 1.604-1.683 2.31l-.002.005a122.51 122.51 0 0 0-5.202 8.034c-.736 1.236-3.21 5.734-3.722 6.74 0 0-.057.82-.044 1.154-.002 0-.002 0 0 .003z"/><path fill="#B9D7D9" d="M1.594 20.233c-.002.002-.002.007 0 .01v.01c.016.466.05.93.07 1.394l39.7-14.45c-.644-.97-1.286-1.94-1.956-2.892l-.002-.004a160.87 160.87 0 0 0-1.683-2.31 230.55 230.55 0 0 0-5.205-.42 242.6 242.6 0 0 0-5.026-.204c-.83-.016-4.184-.016-5.014 0-.43.01-3.785.128-5.026.203-1.267.074-4.728.37-5.205.422 0 0-1.188 1.605-1.683 2.31l-.002.006a122.743 122.743 0 0 0-5.2 8.03H5.36c-.737 1.236-3.21 5.734-3.723 6.74 0 0-.057.82-.044 1.154-.002 0-.002 0 0 .003z"/><path fill="#444" d="m24.997 38.3-.066-.003s-7.463-.512-9.124-.633a204.696 204.696 0 0 1-4.196-.382l-.71-.095-.12-.708a124.063 124.063 0 0 1-1.64-16.22l-.04-1.24.102-.21c.11-.23 3.88-7.053 4.518-8.103l.257-.422.492-.042c.556-.047 4.876-.325 6.543-.378l1.124-.036-.127 1.115a115.3 115.3 0 0 0-.235 2.283c1.063-.028 2.136-.04 3.2-.04.007 0 1.773.014 3.223.044-.07-.764-.15-1.527-.235-2.288l-.125-1.117 1.124.035c1.67.053 5.988.33 6.546.378l.492.042.257.422c.638 1.05 4.41 7.874 4.518 8.103l.1.212-.037 1.17a124.51 124.51 0 0 1-1.64 16.288l-.12.71-.712.095c-.143.02-2.934.29-4.195.382-.39.028-1.02.078-1.77.138-2.514.196-6.315.495-7.4.495zm-12.422-2.876c.92.088 2.496.236 3.37.3 1.594.116 8.534.59 9.084.63 1.055-.008 4.904-.31 7.214-.492.76-.06 1.392-.11 1.783-.138.872-.065 2.448-.21 3.37-.3a122.41 122.41 0 0 0 1.49-15.23l.025-.736c-.555-1.013-3.117-5.66-4.07-7.312-1.01-.07-3.24-.21-4.826-.29.078.765.15 1.53.213 2.298l.09 1.09-1.094-.037c-1.407-.048-4.26-.072-4.262-.072-1.403 0-2.827.024-4.225.072l-1.095.038.09-1.09c.064-.77.135-1.534.214-2.298-1.587.08-3.817.22-4.826.29-.948 1.64-3.478 6.23-4.07 7.313l.024.768c.18 5.078.68 10.196 1.49 15.196z"/><path fill="#444" d="M24.987 49.622c-.993 0-1.987-.004-2.39-.01-1.664-.03-3.37-.098-5.064-.2l-.752-.045-.142-.74c-.43-2.2-.806-4.436-1.118-6.66-.57-.044-1.135-.09-1.7-.142l1.474 6.155.304 1.266-1.3-.067c-.21-.014-5.176-.28-8.96-1.1l-.58-.127-.153-.577a121.995 121.995 0 0 1-1.756-7.66 228.35 228.35 0 0 1-.794-4.5A124.185 124.185 0 0 1 .636 20.66l-.01-.834c.01-.345.036-.718.043-.816l.01-.197.09-.175c.53-1.046 3.015-5.56 3.75-6.798A124.508 124.508 0 0 1 9.593 4v-.1l.226-.227c.523-.743 1.648-2.263 1.648-2.263l.254-.343.425-.045c.477-.05 3.977-.35 5.25-.427C18.648.52 22.015.4 22.46.39c.853-.015 4.204-.015 5.053 0 .45.01 3.816.13 5.067.205 1.307.077 4.76.374 5.25.427l.424.045.254.343s1.133 1.53 1.654 2.27l.044.062a124.3 124.3 0 0 1 4.96 7.62l.284.475c.737 1.24 3.22 5.752 3.752 6.798l.09.176.013.2c.007.098.032.47.043.814l.027.788v.01l-.04.04a124.27 124.27 0 0 1-1.418 14.56.973.973 0 0 1-1.92-.303 122.95 122.95 0 0 0 1.393-14.23l.014-.854c-.007-.17-.017-.356-.026-.49a261.83 261.83 0 0 0-3.47-6.29l-.133-.223a121.952 121.952 0 0 0-5.112-7.9l-.053-.073a125.925 125.925 0 0 0-1.41-1.94 233.752 233.752 0 0 0-4.738-.38 226.6 226.6 0 0 0-4.988-.2c-.812-.017-4.162-.017-4.977 0-.437.007-3.753.125-4.984.2a231.65 231.65 0 0 0-4.74.38c-.324.44-.885 1.2-1.254 1.72l-.16.226a121.023 121.023 0 0 0-5.164 7.967c-.67 1.124-2.94 5.246-3.602 6.513-.01.134-.02.318-.026.49l.013.854c.186 4.738.654 9.53 1.394 14.23.04.25.54 3.207.78 4.425.456 2.334.986 4.67 1.576 6.957 2.38.464 5.164.725 6.76.847-.528-2.207-1.456-6.08-1.485-6.22l-.31-1.466 1.465.314c1.175.11 2.424.217 3.68.304l.79.056.106.786c.293 2.194.65 4.408 1.063 6.59 1.42.075 2.84.126 4.232.15.77.016 3.932.016 4.7 0a119.45 119.45 0 0 0 4.234-.15c.412-2.182.77-4.396 1.063-6.59l.104-.786.79-.056c1.257-.087 2.506-.193 3.75-.317l1.472-.327-.385 1.49c-.03.137-.927 3.892-1.482 6.208.776-.065 1.817-.158 2.906-.277A.973.973 0 0 1 40 48.793c-2.245.245-4.293.383-4.313.385l-1.32.085.308-1.285c.47-1.958 1.1-4.596 1.474-6.155a118 118 0 0 1-1.7.14 126.242 126.242 0 0 1-1.12 6.663l-.144.738-.752.045c-1.695.104-3.4.17-5.066.2-.4.007-1.394.01-2.386.01z"/></symbol></defs></svg>