<svg width="26" height="32" viewBox="0 0 26 32" fill="none" xmlns="http://www.w3.org/2000/svg">
<path d="M22.5002 6.50033H19.3335C19.3335 3.00116 16.4993 0.166992 13.0002 0.166992C9.501 0.166992 6.66683 3.00116 6.66683 6.50033H3.50016C1.7585 6.50033 0.333496 7.92533 0.333496 9.66699V28.667C0.333496 30.4087 1.7585 31.8337 3.50016 31.8337H22.5002C24.2418 31.8337 25.6668 30.4087 25.6668 28.667V9.66699C25.6668 7.92533 24.2418 6.50033 22.5002 6.50033ZM13.0002 3.33366C14.7418 3.33366 16.1668 4.75866 16.1668 6.50033H9.8335C9.8335 4.75866 11.2585 3.33366 13.0002 3.33366ZM22.5002 28.667H3.50016V9.66699H6.66683V12.8337C6.66683 13.7045 7.37933 14.417 8.25016 14.417C9.121 14.417 9.8335 13.7045 9.8335 12.8337V9.66699H16.1668V12.8337C16.1668 13.7045 16.8793 14.417 17.7502 14.417C18.621 14.417 19.3335 13.7045 19.3335 12.8337V9.66699H22.5002V28.667Z" fill="#002F52"/>
</svg>
