<svg width="0" height="0" class="hidden">
  <defs>
    <symbol xmlns="http://www.w3.org/2000/svg" viewBox="0 0 178 80" id="logo-alura">
      <path d="M46.53 0v79.1h9.2V0h-9.2zm84.3 21.1c-4.5.1-8.5.8-10.9 1.9-2.5 1.1-4.3 2.3-5.6 3.8-2.167 2.586-2.58 4.822-2.7 7.8v44.5h9.3V36.4c.05-3.45 1.89-5 4.4-6.1 2.6-1.2 8.1-.9 9-.9l2.1-8c-1-.1-4.3-.3-5.6-.3zm-112.2.2c-3.3 0-6.1.3-8.4 1-2.3.7-4.3 1.6-5.8 2.8-1.5 1.2-2.6 2.6-3.3 4.2-1.07 2.734-1 4.873-1 7.7h9.3c0-2.1.6-3.9 1.9-5.4 1.3-1.5 3.7-2.2 7.4-2.2 1.8 0 3.3.2 4.5.6 2.106.66 3.4 1.94 4.4 3.7.564 2.34.62 4.873-.1 6.6-.71 1.678-1.695 2.375-3.6 3.4-3.844 1.404-7.667 2.75-11.2 4-1.7.6-3.2 1.1-4.5 1.5-2.6.9-4.6 2.5-6.1 4.8-1.4 2.3-2.1 4.8-2.1 7.5-.05 3.19-.136 6.884.7 9.6.5 1.6 1.4 3 2.8 4.3 1.4 1.3 3.3 2.4 5.7 3.3 2.4.9 5.5 1.3 9.4 1.3 3.9 0 7-.4 9.4-1.3 2.4-.9 4.3-2 5.7-3.3 2.44-2.13 3.405-5.318 3.5-8.6V34.5c-.1-3.8-1.5-6.9-4.5-9.4s-7.7-3.8-14.1-3.8zm140.6 0c-3.3 0-6.1.3-8.4 1-2.3.7-4.3 1.6-5.8 2.8-1.5 1.2-2.6 2.6-3.3 4.2-1.07 2.734-1 4.873-1 7.7h9.3c0-2.1.6-3.9 1.9-5.4 1.3-1.5 3.7-2.2 7.4-2.2 1.8 0 3.3.2 4.5.6 2.106.66 3.4 1.94 4.4 3.7.563 2.34.62 4.873-.1 6.6-.71 1.678-1.69 2.375-3.6 3.4-3.84 1.404-7.667 2.75-11.2 4-1.7.6-3.2 1.1-4.5 1.5-2.6.9-4.6 2.5-6.1 4.8-1.4 2.3-2.1 4.8-2.1 7.5-.054 3.19-.136 6.884.7 9.6.5 1.6 1.4 3 2.8 4.3 1.4 1.3 3.3 2.4 5.7 3.3 2.4.9 5.5 1.3 9.4 1.3 3.9 0 7-.4 9.4-1.3 2.4-.9 4.3-2 5.7-3.3 2.44-2.13 3.404-5.318 3.5-8.6V34.5c-.1-3.8-1.5-6.9-4.5-9.4s-7.7-3.8-14.1-3.8zm-94.1.8v44.6c.046 2.91.61 5.426 2.7 7.8 1.2 1.5 3.1 2.7 5.6 3.8 2.5 1.1 5.9 1.6 10.2 1.6 4.4 0 7.8-.5 10.2-1.6 2.5-1.1 4.3-2.3 5.6-3.8 2.052-2.406 2.686-4.94 2.7-7.9V22.1h-9.2l.1 41.7c-.046 1-.21 2.338-.4 3.3-.68 1.99-2.47 3.113-4.1 3.8-1.99.922-7.85.846-9.9 0-1.707-.652-3.355-1.907-3.9-3.9-.224-1.085-.28-2.14-.4-3.2V22.1h-9.2zm-37.3 28.1l.2 13.4c0 2.6-.7 4.6-2 6.1-1.3 1.4-3.8 2.1-7.4 2.1-3.6 0-6-.7-7.3-2-1.3-1.3-2-3.4-2-6.2.05-3.652 2.064-5.677 5.1-7.1 3.595-1.3 7.43-2.607 10.7-3.9 1.166-.363 2.44-1.044 2.7-2.4zm140.6 0l.2 13.4c0 2.6-.7 4.6-2 6.1-1.3 1.4-3.8 2.1-7.4 2.1-3.6 0-6-.7-7.3-2-1.3-1.3-2-3.4-2-6.2.05-3.652 2.066-5.677 5.1-7.1 3.6-1.3 7.43-2.607 10.7-3.9 1.165-.363 2.44-1.044 2.7-2.4z" fill="#191919"></path>
    </symbol>
    <symbol version="1.1" xmlns="http://www.w3.org/2000/svg" xmlns:xlink="http://www.w3.org/1999/xlink" xmlnsSketch="http://www.bohemiancoding.com/sketch/ns" viewBox="0 0 101 21" id="logo-caelum">
      <title>Caelum Logo</title>
      <desc>Created with sketchtool.</desc>
      <defs></defs>
      <g id="Page-1" stroke="none" stroke-width="1" fill="none" fill-rule="evenodd" sketchType="MSPage">
        <g id="Desktop-HD" sketchType="MSArtboardGroup" transform="translate(-794.000000, -4854.000000)" fill="#000000">
          <g id="Group" sketchType="MSLayerGroup" transform="translate(0.000000, 4840.000000)">
            <path d="M839.45021,26.40974 L839.45,29.35625 C838.833058,29.90561 838.227058,30.32981 837.635367,30.62948 C837.043465,30.92894 836.341094,31.07573 835.524677,31.07573 C834.10731,31.07573 833.400731,30.39302 833.400731,29.02823 C833.400731,28.16345 833.742658,27.56012 834.426513,27.21047 C834.776856,27.02798 835.109104,26.87405 835.425992,26.75771 C836.02631,26.52482 837.365612,26.40995 839.45,26.40995 L839.45021,26.40974 Z M850.043427,21.34349 C852.044069,21.34349 853.041865,22.71101 853.041865,25.34 L846.538727,25.34 C846.722,22.71101 847.892758,21.34349 850.043427,21.34349 L850.043427,21.34349 Z M878.797917,19.65026 C878.081658,19.65026 877.745833,19.82897 877.745833,20.195 L877.745833,32.34875 C877.745833,32.71499 878.081448,32.9 878.797917,32.9 C879.514385,32.9 879.85021,32.7152 879.85,32.34875 L879.85,23.19401 L880.224962,22.7675 C880.458315,22.46804 880.827596,22.17803 881.336173,21.89474 C881.84496,21.61208 882.426762,21.46823 883.085367,21.46823 C883.74376,21.46823 884.274852,21.68516 884.683271,22.11797 C885.091479,22.55099 885.320833,23.14067 885.320833,23.88995 L885.320833,32.34896 C885.320833,32.7152 885.656448,32.9 886.372917,32.9 C887.089385,32.9 887.425,32.71541 887.425,32.34896 C887.400381,29.3069 887.458246,26.22116 887.425,23.19422 C888.441733,22.04636 889.415752,21.46823 890.44995,21.46823 C891.233331,21.46823 891.829442,21.68516 892.238492,22.11797 C892.6467,22.55099 892.895833,23.14067 892.895833,23.88995 L892.895833,32.34896 C892.895833,32.7152 893.182421,32.9 893.902046,32.9 C894.621671,32.9 895,32.71541 895,32.34896 L895,23.69297 C895,22.89455 894.829352,22.21142 894.579377,21.64547 C894.329192,21.08015 893.99021,20.65574 893.573375,20.37224 C892.82324,19.88966 891.979258,19.65026 891.028596,19.65026 C889.544737,19.65026 888.217219,20.33654 887.050458,21.7175 C886.483385,20.33654 885.290533,19.65026 883.473375,19.65026 C882.099985,19.65026 880.894087,20.20508 879.85,21.32375 L879.85,20.195 C879.85,19.82897 879.514175,19.65026 878.797917,19.65026 L878.797917,19.65026 Z M865.33146,19.63052 C864.615202,19.63052 864.279167,19.81616 864.279167,20.18177 L864.279167,28.84427 C864.279167,30.10931 864.849606,31.09568 865.574702,31.81052 C866.300008,32.52641 867.355458,32.88677 868.730952,32.88677 C870.03806,32.88677 871.201454,32.3204 872.275,31.19354 L872.275,32.34854 C872.275,32.71415 872.629342,32.9 873.327083,32.9 C874.024825,32.9 874.379167,32.73599 874.379167,32.40755 L874.379167,20.18156 C874.379167,19.81595 874.057019,19.63031 873.34034,19.63031 C872.623871,19.63031 872.275,19.81595 872.275,20.18156 L872.275,29.31656 C871.374837,30.48185 870.338956,31.06229 869.138529,31.06229 C868.321481,31.06229 867.692756,30.84998 867.251302,30.42578 C866.809427,30.00137 866.383333,29.40665 866.383333,28.64078 L866.383333,20.18177 C866.383333,19.81616 866.047508,19.63052 865.33125,19.63052 L865.33146,19.63052 Z M849.964521,19.54526 C848.146942,19.54526 846.746198,20.12318 845.76271,21.27125 C844.778802,22.41932 844.289583,24.10331 844.289583,26.32448 C844.289583,28.54565 844.788692,30.19772 845.789013,31.27922 C846.789333,32.36114 848.334002,32.89979 850.418179,32.9 C851.601773,32.9 852.64586,32.7152 853.55465,32.34896 C854.463229,31.98314 854.915835,31.63853 854.915835,31.30547 C854.915835,31.13915 854.815046,30.88379 854.606733,30.55073 C854.398,30.21809 854.207573,30.05198 854.041133,30.05198 C854.007467,30.05198 853.831558,30.13535 853.515092,30.30146 C852.56485,30.83423 851.525181,31.10219 850.391667,31.10219 C849.157573,31.10219 848.233423,30.77984 847.616692,30.13094 C846.99954,29.48204 846.638465,28.61159 846.538306,27.23 L854.442187,27.23 C855.026304,27.03932 855.237562,26.67854 855.270808,26.06198 C855.270808,21.71918 853.498679,19.54547 849.96431,19.54547 L849.964521,19.54526 Z M836.898908,19.54526 C835.531831,19.54526 834.362967,19.72544 833.387475,20.08349 C832.411983,20.44133 831.921081,20.79749 831.921081,21.14672 C831.921081,21.31283 832.027763,21.56168 832.236706,21.89495 C832.444808,22.22801 832.628502,22.3937 832.795573,22.3937 C832.828819,22.3937 833.024085,22.30109 833.374219,22.11797 C834.390952,21.60242 835.5009,21.34349 836.701538,21.34349 C838.535319,21.34349 839.45,22.03943 839.45,23.43698 L839.45,24.61172 C837.999598,24.64511 836.704483,24.7331 835.570548,24.87422 C834.436613,25.01597 833.421773,25.41812 832.512983,26.07521 C831.604194,26.73272 831.145275,27.71405 831.145275,29.02844 C831.145275,30.34325 831.538544,31.3166 832.322346,31.9487 C833.105727,32.58164 834.14224,32.9 835.425992,32.9 C837.008325,32.9 838.347838,32.33846 839.45,31.2137 L839.45,32.34896 C839.45,32.71478 839.785825,32.90147 840.502083,32.9 C841.218342,32.89853 841.554377,32.71499 841.554167,32.34896 L841.554167,23.46323 C841.554377,22.23179 841.119235,21.27272 840.252319,20.58224 C839.385192,19.89197 838.265775,19.54526 836.898698,19.54526 L836.898908,19.54526 Z M824.753869,19.54526 C823.169852,19.54526 821.830129,19.98878 820.72965,20.87099 C820.145954,21.35399 819.683669,22.04636 819.342162,22.94474 C819.000446,23.84333 818.829167,24.91244 818.829167,26.16047 C818.829167,28.52339 819.337744,30.24056 820.354687,31.30547 C821.371421,32.37038 822.91651,32.9 824.983854,32.9 C826.034044,32.9 826.948725,32.7614 827.732527,32.48672 C828.515908,32.21225 828.909598,31.92644 828.909598,31.62698 C828.909598,31.42727 828.807335,31.16393 828.607019,30.83948 C828.406912,30.51482 828.221115,30.35375 828.054675,30.35375 C828.037842,30.35375 828.001229,30.36824 827.942944,30.39323 C827.884448,30.41801 827.83521,30.43586 827.785131,30.45224 C826.918215,30.88505 825.974496,31.10198 824.957552,31.10198 C823.557019,31.10198 822.557329,30.70949 821.965637,29.92724 C821.373525,29.14541 820.933333,27.87848 820.933333,26.11448 C820.933333,22.93655 822.28989,21.34349 824.707787,21.34349 C825.624573,21.34349 826.529785,21.54152 827.430158,21.94073 C827.463404,21.95774 827.497281,21.9716 827.522321,21.98021 L827.621006,22.01969 C827.662458,22.03649 827.689602,22.04594 827.706435,22.04594 C827.856463,22.04594 828.02711,21.87521 828.219431,21.53396 C828.41091,21.19292 828.508754,20.91026 828.508754,20.69396 C828.508754,20.3945 828.124744,20.13305 827.357985,19.89995 C826.590806,19.66727 825.720733,19.54547 824.754079,19.54547 L824.753869,19.54526 Z M811.10961,16.1 C812.347281,16.1 812.9375,16.77494 812.9375,18.00974 L812.9375,30.99047 C812.9375,32.22527 812.347702,32.9 811.10961,32.9 L798.103125,32.9 C796.865665,32.9 796.104167,32.22527 796.104167,30.99047 C796.126892,23.40506 803.2112,16.0769 811.10961,16.10021 L811.10961,16.1 Z M798.096602,16.1 L798.622644,17.465 L800.089038,17.54375 L798.951525,18.46901 L799.326277,19.88 L798.096602,19.08599 L796.866927,19.88 L797.241679,18.46901 L796.104167,17.54375 L797.57056,17.465 L798.096602,16.1 Z M858.597917,14 C857.881658,14 857.545833,14.18543 857.545833,14.55125 L857.545833,29.45474 C857.545833,30.73637 857.873662,31.63139 858.532267,32.13875 C859.19066,32.64653 859.940585,32.9 860.774467,32.9 C861.991096,32.9 862.595833,32.65115 862.595833,32.15177 C862.595833,31.98566 862.544702,31.75109 862.444544,31.44302 C862.344385,31.13516 862.219819,30.97703 862.069792,30.97703 C862.036335,30.97703 861.921448,31.00118 861.721342,31.04276 C861.521235,31.08455 861.28136,31.10177 860.997929,31.10177 C860.097767,31.10177 859.65,30.48941 859.65,29.25776 L859.65,14.55125 C859.65,14.18543 859.313965,14 858.597917,14 L858.597917,14 Z M797.366667,14 C795.505531,14 794,15.50276 794,17.36 L794,31.64 C794,33.49745 795.505531,35 797.366667,35 L811.675,35 C813.535925,35 815.041667,33.49745 815.041667,31.64 L815.041667,17.36 C815.041667,15.50255 813.535925,14 811.675,14 L797.366667,14 Z" id="Caelum-Logo" sketchType="MSShapeGroup"></path>
          </g>
        </g>
      </g>
    </symbol>
    <symbol version="1.1" xmlns="http://www.w3.org/2000/svg" xmlns:xlink="http://www.w3.org/1999/xlink" xmlnsSketch="http://www.bohemiancoding.com/sketch/ns" viewBox="0 0 69 31" id="logo-cdc">
      <title>CDC Logo</title>
      <desc>Created with sketchtool.</desc>
      <defs>
        <path id="path-1" d="M0,0.0189673673 L68.9116269,0.0189673673 L68.9116269,30.1875 L0,30.1875 L0,0.0189673673 Z"></path>
      </defs>
      <g id="Page-1" stroke="none" stroke-width="1" fill="none" fill-rule="evenodd" sketchType="MSPage">
        <g id="Desktop-HD" sketchType="MSArtboardGroup" transform="translate(-1101.000000, -4850.000000)">
          <g id="Group" sketchType="MSLayerGroup" transform="translate(0.000000, 4840.000000)">
            <g id="CDC-Logo" transform="translate(1101.000000, 10.000000)">
              <path d="M36.3877604,14.2401383 C35.9206835,14.6039912 35.4843912,14.8251881 35.0794142,14.9053319 C34.6739065,14.9849414 34.2421258,15.0250133 33.7838065,15.0250133 C33.2288873,15.0250133 32.7089988,14.9296422 32.2244065,14.7391671 C31.7395488,14.5481577 31.3167912,14.2580371 30.9553373,13.8674696 C30.5941488,13.4774364 30.3080642,12.9781405 30.0965527,12.3709176 C29.8850412,11.7634276 29.7794181,11.0424005 29.7794181,10.2086378 C29.7794181,9.33961178 29.8959219,8.60122019 30.1294604,7.99319585 C30.3629988,7.38597295 30.6713758,6.88908136 31.0545912,6.50332251 C31.4380719,6.11756366 31.8677296,5.83599176 32.3435642,5.65833966 C32.8193988,5.4809547 33.3037258,5.39226222 33.7970758,5.39226222 C34.3257219,5.39226222 34.7575027,5.42138114 35.0924181,5.47881753 C35.4273335,5.53678822 35.8150604,5.6452495 36.2555988,5.80500282 L35.687145,6.68311178 C35.2646527,6.47901222 34.6606373,6.37696244 33.8766912,6.37696244 C33.5152373,6.37696244 33.158295,6.4434818 32.8058642,6.57652052 C32.4534335,6.70955924 32.1384219,6.92728324 31.8608296,7.2283568 C31.5832373,7.5302318 31.360845,7.92480647 31.1933873,8.4126151 C31.0259296,8.90069087 30.9423335,9.4993651 30.9423335,10.2086378 C30.9423335,10.8473839 31.0216835,11.4062534 31.1803835,11.8852462 C31.3390835,12.364239 31.5569642,12.7633551 31.8345565,13.0825946 C32.1121488,13.4018341 32.4377758,13.6414641 32.8124988,13.8009503 C33.1866912,13.9607036 33.5945873,14.0405803 34.0353912,14.0405803 C34.4316104,14.0405803 34.7774065,14.0007755 35.0727796,13.9206317 C35.3676219,13.8410222 35.6165527,13.7389724 35.8193065,13.6147495 L36.3877604,14.2401383 Z" id="Fill-1" fill="#373435" sketchType="MSShapeGroup"></path>
              <path d="M36.3877604,25.0775577 C35.9206835,25.4411434 35.4843912,25.6626075 35.0791488,25.7427513 C34.6736412,25.8223608 34.2421258,25.8624327 33.7838065,25.8624327 C33.2288873,25.8624327 32.7089988,25.7670616 32.2244065,25.5765864 C31.7395488,25.385577 31.3167912,25.0954565 30.9553373,24.704889 C30.5941488,24.3148558 30.3077988,23.8155599 30.0965527,23.2080699 C29.8850412,22.600847 29.7791527,21.8795527 29.7791527,21.0460571 C29.7791527,20.1770311 29.8959219,19.4386395 30.129195,18.8306152 C30.3627335,18.2233923 30.6713758,17.7262336 31.0543258,17.3407419 C31.4380719,16.954983 31.8674642,16.6734111 32.3432988,16.495759 C32.8191335,16.3183741 33.3034604,16.2296816 33.7970758,16.2296816 C34.3257219,16.2296816 34.7575027,16.2585334 35.0924181,16.3162369 C35.4273335,16.3739404 35.8150604,16.4824017 36.2555988,16.642155 L35.6868796,17.520264 C35.2643873,17.3161644 34.6606373,17.2141147 33.8764258,17.2141147 C33.5149719,17.2141147 33.158295,17.280634 32.8058642,17.4139399 C32.4534335,17.5469786 32.1381565,17.7644355 31.8608296,18.0657762 C31.5832373,18.3676512 31.360845,18.7619587 31.1933873,19.2500345 C31.0259296,19.7378431 30.9420681,20.3367845 30.9420681,21.0460571 C30.9420681,21.6848033 31.0214181,22.2434056 31.1803835,22.7223984 C31.3388181,23.2013912 31.5566988,23.6007745 31.8345565,23.920014 C32.1118835,24.2392535 32.4377758,24.4788835 32.8124988,24.6383696 C33.1866912,24.798123 33.5943219,24.8779996 34.0351258,24.8779996 C34.4316104,24.8779996 34.7774065,24.8381949 35.0725142,24.7580511 C35.3676219,24.6784415 35.6165527,24.5763918 35.8190412,24.4521689 L36.3877604,25.0775577 Z" id="Fill-3" fill="#373435" sketchType="MSShapeGroup"></path>
              <path d="M38.71452,14.0405535 C38.9613277,14.0405535 39.2121162,14.0071603 39.4679469,13.9409081 C39.7232469,13.8741216 39.9217546,13.7902377 40.0626738,13.6879208 C40.2035931,13.5861382 40.3203623,13.4728683 40.4129815,13.3486454 C40.5053354,13.2244225 40.5738046,13.104741 40.6178585,12.989334 L40.6178585,11.8852195 C40.4944546,11.8761365 40.3686623,11.869725 40.2410123,11.8651835 C40.1133623,11.8609092 39.98757,11.8585049 39.8644315,11.8585049 C39.4679469,11.8585049 39.0669508,11.8742665 38.6617085,11.9049883 C38.2562008,11.9362444 37.9679931,12.0671459 37.7960238,12.2976929 C37.62432,12.5282399 37.5383354,12.7547798 37.5383354,12.9762438 C37.5383354,13.2869346 37.6482046,13.5417919 37.8684738,13.7410829 C38.0890085,13.9409081 38.3708469,14.0405535 38.71452,14.0405535 L38.71452,14.0405535 Z M37.0226931,8.70538042 C37.3576085,8.50154801 37.7471931,8.35061051 38.1925085,8.25283507 C38.6372931,8.15559392 39.1022469,8.10643905 39.5868392,8.10643905 C40.0451585,8.10643905 40.4129815,8.16895122 40.6903085,8.29263982 C40.9681662,8.41712987 41.1796777,8.57902035 41.3248431,8.77857843 C41.4705392,8.9781365 41.5671392,9.19746338 41.6157046,9.43709336 C41.6640046,9.67645619 41.68842,9.91608617 41.68842,10.155449 C41.68842,10.6876039 41.6751508,11.2069357 41.6488777,11.712376 C41.6223392,12.2175491 41.60907,12.6968091 41.60907,13.1493544 C41.60907,13.4774097 41.6685162,13.7942449 41.7876738,14.1006614 C41.9063008,14.4062764 42.0981738,14.6702167 42.3624969,14.892215 L41.4240969,14.892215 C41.1507508,14.892215 40.9217238,14.5815242 40.7367508,13.9606769 L40.67067,13.9606769 C40.59132,14.0848998 40.4923315,14.2069855 40.3731738,14.3263998 C40.2545469,14.4466155 40.1109738,14.5526725 39.9437815,14.6459064 C39.7760585,14.7391404 39.5515431,14.8168799 39.2697046,14.8788577 C38.9876008,14.9405685 38.7057623,14.9718246 38.4236585,14.9718246 C38.14182,14.9718246 37.87962,14.9274783 37.6373238,14.8387858 C37.3947623,14.7500934 37.1856392,14.6240004 37.0096892,14.4594385 C36.8332085,14.295678 36.6946777,14.0982571 36.5933008,13.8677101 C36.4919238,13.6371631 36.4412354,13.37536 36.4412354,13.0825679 C36.4412354,12.6922676 36.5909123,12.2888771 36.8905315,11.8718622 C37.1901508,11.4551144 37.6131738,11.2133472 38.1593354,11.1468279 C38.7057623,11.0803085 39.2829738,11.0471824 39.89097,11.0471824 L40.2545469,11.0471824 C40.3731738,11.0471824 40.4944546,11.0559982 40.6178585,11.073897 C40.6441315,10.8075524 40.6574008,10.5679225 40.6574008,10.3550071 C40.6574008,9.8674656 40.56027,9.52578584 40.3668046,9.3305021 C40.1725431,9.13548551 39.8201123,9.03771007 39.3092469,9.03771007 C39.1593046,9.03771007 38.9987469,9.04919735 38.8270431,9.07110332 C38.6548085,9.09327644 38.4785931,9.12453252 38.2983969,9.16433728 C38.1174046,9.20414204 37.9459662,9.25302976 37.7824892,9.3107333 C37.6195431,9.36843684 37.4765008,9.43281903 37.3533623,9.50387987 L37.0226931,8.70538042 Z" id="Fill-5" fill="#373435" sketchType="MSShapeGroup"></path>
              <path d="M46.0105269,13.0559869 C46.0105269,12.7899095 45.9311769,12.5818027 45.7727423,12.4305981 C45.6140423,12.2799277 45.4181885,12.1535676 45.18465,12.0512507 C44.9511115,11.9497352 44.6955462,11.8516926 44.4179538,11.758993 C44.1403615,11.6654919 43.8847962,11.5460776 43.6512577,11.3994144 C43.4177192,11.2532856 43.2218654,11.0649476 43.0634308,10.8341335 C42.9047308,10.6035864 42.8253808,10.2931628 42.8253808,9.90286244 C42.8253808,9.26438346 43.0058423,8.79634364 43.3672962,8.49901012 C43.7282192,8.20194375 44.2305923,8.05314342 44.8738846,8.05314342 C45.3497192,8.05314342 45.7483269,8.09561963 46.0702385,8.17977063 C46.3916192,8.26418877 46.6713346,8.36383424 46.9093846,8.47897417 L46.6583308,9.35708313 C46.4553115,9.25957483 46.2111577,9.17301952 45.9248077,9.09795149 C45.6384577,9.02261632 45.3319385,8.98468158 45.0060462,8.98468158 C44.6183192,8.98468158 44.3343577,9.05120094 44.1536308,9.1845068 C43.9729038,9.31754552 43.8826731,9.54809253 43.8826731,9.87641499 C43.8826731,10.106962 43.9620231,10.2864841 44.1207231,10.4149814 C44.2794231,10.5437457 44.4752769,10.6588857 44.7088154,10.7606683 C44.9423538,10.8629852 45.1976538,10.9626307 45.4752462,11.060139 C45.7528385,11.1579144 46.0084038,11.2864117 46.2419423,11.4464321 C46.4752154,11.6059183 46.6713346,11.8073464 46.8300346,12.0512507 C46.9887346,12.295155 47.0678192,12.6165317 47.0678192,13.0164493 C47.0678192,13.3001584 47.0219077,13.5662358 46.9290231,13.8146816 C46.8366692,14.0631274 46.6933615,14.2755085 46.4996308,14.4528934 C46.3056346,14.6305455 46.0654615,14.7702629 45.7793769,14.8723127 C45.4927615,14.9740953 45.1557231,15.0251202 44.7679962,15.0251202 C44.2658885,15.0251202 43.8383538,14.9759653 43.4861885,14.8787242 C43.1334923,14.7812159 42.8383846,14.6658088 42.6003346,14.5327701 L42.9177346,13.6282137 C43.1202231,13.7433536 43.3845462,13.8499449 43.7107038,13.9477203 C44.0368615,14.0452286 44.3672654,14.0938492 44.7021808,14.0938492 C45.0806192,14.0938492 45.3937731,14.0187811 45.6403154,13.8675765 C45.8871231,13.7169061 46.0105269,13.4462872 46.0105269,13.0559869" id="Fill-7" fill="#373435" sketchType="MSShapeGroup"></path>
              <path d="M49.8098792,14.0405535 C50.0564215,14.0405535 50.3074754,14.0071603 50.5630408,13.9409081 C50.8186062,13.8741216 51.0171138,13.7902377 51.1580331,13.6879208 C51.2986869,13.5861382 51.4157215,13.4728683 51.5080754,13.3486454 C51.6006946,13.2244225 51.6691638,13.104741 51.7132177,12.989334 L51.7132177,11.8852195 C51.5898138,11.8761365 51.4637562,11.869725 51.3363715,11.8651835 C51.2087215,11.8609092 51.0829292,11.8585049 50.9595254,11.8585049 C50.5630408,11.8585049 50.16231,11.8742665 49.7570677,11.9049883 C49.35156,11.9362444 49.0630869,12.0671459 48.8913831,12.2976929 C48.7194138,12.5282399 48.6334292,12.7547798 48.6334292,12.9762438 C48.6334292,13.2869346 48.7435638,13.5417919 48.9638331,13.7410829 C49.1843677,13.9409081 49.4662062,14.0405535 49.8098792,14.0405535 L49.8098792,14.0405535 Z M48.1180523,8.70538042 C48.4529677,8.50154801 48.8425523,8.35061051 49.2878677,8.25283507 C49.7326523,8.15559392 50.1976062,8.10643905 50.6821985,8.10643905 C51.1405177,8.10643905 51.5080754,8.16895122 51.7856677,8.29263982 C52.0635254,8.41712987 52.2747715,8.57902035 52.4202023,8.77857843 C52.5656331,8.9781365 52.6624985,9.19746338 52.7110638,9.43709336 C52.7590985,9.67645619 52.7835138,9.91608617 52.7835138,10.155449 C52.7835138,10.6876039 52.77051,11.2069357 52.7442369,11.712376 C52.7176985,12.2175491 52.7041638,12.6968091 52.7041638,13.1493544 C52.7041638,13.4774097 52.7638754,13.7942449 52.8827677,14.1006614 C53.00166,14.4062764 53.1935331,14.6702167 53.4578562,14.892215 L52.5191908,14.892215 C52.24611,14.892215 52.0168177,14.5815242 51.8318446,13.9606769 L51.7660292,13.9606769 C51.6866792,14.0848998 51.5874254,14.2069855 51.4685331,14.3263998 C51.3499062,14.4466155 51.2063331,14.5526725 51.0388754,14.6459064 C50.8714177,14.7391404 50.6469023,14.8168799 50.3650638,14.8788577 C50.08296,14.9405685 49.8011215,14.9718246 49.5190177,14.9718246 C49.2371792,14.9718246 48.9749792,14.9274783 48.7326831,14.8387858 C48.4901215,14.7500934 48.2809985,14.6240004 48.1047831,14.4594385 C47.9283023,14.295678 47.7897715,14.0982571 47.6883946,13.8677101 C47.5872831,13.6371631 47.5365946,13.37536 47.5365946,13.0825679 C47.5365946,12.6922676 47.6862715,12.2888771 47.9858908,11.8718622 C48.28551,11.4551144 48.7085331,11.2133472 49.2546946,11.1468279 C49.8011215,11.0803085 50.3780677,11.0471824 50.9863292,11.0471824 L51.3499062,11.0471824 C51.4685331,11.0471824 51.5898138,11.0559982 51.7132177,11.073897 C51.7394908,10.8075524 51.7524946,10.5679225 51.7524946,10.3550071 C51.7524946,9.8674656 51.6556292,9.52578584 51.4618985,9.3305021 C51.2679023,9.13548551 50.9154715,9.03771007 50.4046062,9.03771007 C50.2546638,9.03771007 50.0938408,9.04919735 49.9224023,9.07110332 C49.7501677,9.09327644 49.5739523,9.12453252 49.3937562,9.16433728 C49.2127638,9.20414204 49.04106,9.25302976 48.8778485,9.3107333 C48.7149023,9.36843684 48.5715946,9.43281903 48.4484562,9.50387987 L48.1180523,8.70538042 Z" id="Fill-9" fill="#373435" sketchType="MSShapeGroup"></path>
              <path d="M59.8017162,14.0937957 C60.2510123,14.0937957 60.6076892,13.9765186 60.8720123,13.741163 C61.1363354,13.5063416 61.3170623,13.1494346 61.4139277,12.6701746 L61.4139277,9.37065415 C61.2557585,9.24643125 61.0747662,9.15747163 60.8720123,9.10457671 C60.6695238,9.05114751 60.4009546,9.02443291 60.0660392,9.02443291 C59.4580431,9.02443291 58.9822085,9.2263953 58.6385354,9.63005293 C58.2948623,10.0337106 58.1231585,10.6791353 58.1231585,11.565793 C58.1231585,11.9293787 58.1512892,12.266517 58.2088777,12.5769407 C58.2664662,12.8876315 58.3606777,13.1537089 58.4928392,13.3754401 C58.6250008,13.5971713 58.7993585,13.7724191 59.0153815,13.9006492 C59.2311392,14.0296807 59.4933392,14.0937957 59.8017162,14.0937957 L59.8017162,14.0937957 Z M62.4714854,12.5769407 C62.4714854,13.029486 62.4757315,13.4398223 62.4844892,13.8079495 C62.4935123,14.1758096 62.53332,14.5372581 62.6036469,14.892028 L61.8900277,14.892028 L61.6257046,13.9476669 L61.5728931,13.9476669 C61.3964123,14.2580905 61.1411123,14.515085 60.8059315,14.7189174 C60.4712815,14.9232841 60.0790431,15.0250668 59.6297469,15.0250668 C58.7484046,15.0250668 58.0942315,14.745632 57.6669623,14.1867626 C57.2396931,13.6281602 57.0260585,12.7545928 57.0260585,11.565793 C57.0260585,10.4304224 57.2925046,9.56807506 57.8259277,8.97821665 C58.35882,8.38835824 59.0920777,8.09316189 60.0262315,8.09316189 C60.3521238,8.09316189 60.6098123,8.11106067 60.7995623,8.1465911 C60.9887815,8.18212152 61.1939238,8.23955791 61.4139277,8.31943457 L61.4139277,5.55206897 L62.4714854,5.55206897 L62.4714854,12.5769407 Z" id="Fill-11" fill="#373435" sketchType="MSShapeGroup"></path>
              <path d="M64.2194412,11.5392119 C64.2194412,11.8763502 64.2526142,12.2003983 64.318695,12.510822 C64.3847758,12.8212457 64.4882758,13.0915975 64.6289296,13.3221445 C64.7701142,13.5526915 64.9548219,13.7388923 65.1841142,13.8810139 C65.4134065,14.0228685 65.6904681,14.0939293 66.0166258,14.0939293 C67.2153681,14.1027451 67.8143412,13.2510836 67.8143412,11.5392119 C67.8143412,11.1932579 67.7814335,10.8652025 67.7150873,10.5545117 C67.6492719,10.2440881 67.5455065,9.97400343 67.4045873,9.74318927 C67.2636681,9.51264226 67.078695,9.32857865 66.8496681,9.19073131 C66.6203758,9.05341825 66.3430488,8.98449458 66.0166258,8.98449458 C64.8186796,8.97594591 64.2194412,9.82760741 64.2194412,11.5392119 M63.1220758,11.5392119 C63.1220758,10.4129243 63.3712719,9.55030985 63.8691335,8.95110133 C64.3667296,8.35269425 65.0830027,8.05322356 66.0166258,8.05322356 C66.5102412,8.05322356 66.9396335,8.13577168 67.3055988,8.29953219 C67.6710335,8.46355985 67.9733065,8.69864834 68.2108258,9.00479768 C68.4491412,9.31067987 68.6250912,9.67880708 68.7394719,10.1089122 C68.8541181,10.5392844 68.9117065,11.0158729 68.9117065,11.5392119 C68.9117065,12.6657667 68.662245,13.528114 68.1643835,14.1273226 C67.6667873,14.7257296 66.951045,15.0252003 66.0166258,15.0252003 C65.5232758,15.0252003 65.0938835,14.9429194 64.7279181,14.7788917 C64.3624835,14.6151312 64.0607412,14.3800427 63.8229565,14.0738934 C63.5849065,13.767744 63.4084258,13.399884 63.294045,12.9695117 C63.1793988,12.5394066 63.1220758,12.062551 63.1220758,11.5392119" id="Fill-13" fill="#373435" sketchType="MSShapeGroup"></path>
              <path d="M41.1589777,16.483497 L39.5465008,18.3858438 L38.7272585,18.3858438 L39.87717,16.483497 L41.1589777,16.483497 Z M37.4849931,22.4966867 C37.4849931,23.9069506 38.2776969,24.9709931 39.4143392,24.9709931 C40.5244431,24.9709931 41.3569546,23.9200407 41.3569546,22.4699721 C41.3569546,21.3792149 40.8153046,20.009023 39.4406123,20.009023 C38.0794546,20.009023 37.4849931,21.285981 37.4849931,22.4966867 L37.4849931,22.4966867 Z M42.5466738,22.4301674 C42.5466738,24.811507 40.8946546,25.8493692 39.3615277,25.8493692 C37.6436931,25.8493692 36.2955392,24.5721441 36.2955392,22.5364915 C36.2955392,20.3947819 37.7095085,19.130914 39.4671508,19.130914 C41.3041431,19.130914 42.5466738,20.4743914 42.5466738,22.4301674 L42.5466738,22.4301674 Z" id="Fill-16" fill="#373435" sketchType="MSShapeGroup"></path>
              <path d="M47.7806158,21.8848422 C47.7806158,21.738179 47.7670812,21.5388881 47.7275388,21.3924921 C47.5555696,20.6607791 46.9213004,20.0487476 46.0492465,20.0487476 C44.8462581,20.0487476 44.1329042,21.1130574 44.1329042,22.5233212 C44.1329042,23.8272609 44.7804427,24.9046608 46.0227081,24.9046608 C46.8024081,24.9046608 47.5162927,24.3727731 47.7275388,23.5077543 C47.7670812,23.3480009 47.7806158,23.1885148 47.7806158,23.0020468 L47.7806158,21.8848422 Z M48.9299965,16.2574113 L48.9299965,24.0399091 C48.9299965,24.6118688 48.9568004,25.263705 48.9830735,25.7028931 L47.9520542,25.7028931 L47.8992427,24.5851541 L47.8597004,24.5851541 C47.5162927,25.3037769 46.7495965,25.8492891 45.7055735,25.8492891 C44.1594427,25.8492891 42.9564542,24.5319921 42.9564542,22.5762161 C42.9434504,20.4345065 44.278335,19.1308339 45.8244658,19.1308339 C46.8154119,19.1308339 47.4634812,19.5964694 47.7540773,20.1019097 L47.7806158,20.1019097 L47.7806158,16.2574113 L48.9299965,16.2574113 Z" id="Fill-18" fill="#373435" sketchType="MSShapeGroup"></path>
              <path d="M57.1131577,21.805019 C57.1131577,21.6051937 57.0996231,21.4320831 57.0468115,21.2859543 C56.8353,20.5943132 56.2803808,20.0354437 55.4213308,20.0354437 C54.3112269,20.0354437 53.5182577,20.9800721 53.5182577,22.4699454 C53.5182577,23.7338132 54.1660615,24.7847657 55.4080615,24.7847657 C56.13495,24.7847657 56.7824885,24.3327546 57.0202731,23.5876843 C57.0866192,23.3883934 57.1131577,23.1618536 57.1131577,22.9622955 L57.1131577,21.805019 Z M58.2758077,24.7585853 C58.2758077,26.2481915 57.9719423,27.1396578 57.3639462,27.7116174 C56.7299423,28.283577 55.8308192,28.4834023 55.0248462,28.4834023 C54.2584154,28.4834023 53.4129,28.2972015 52.8972577,27.9512474 L53.1878538,27.0464238 C53.6108769,27.3255914 54.2716846,27.5649543 55.0646538,27.5649543 C56.2538423,27.5649543 57.1261615,26.9400997 57.1261615,25.3038304 L57.1261615,24.598832 L57.0996231,24.598832 C56.75595,25.1972391 56.0558654,25.6762319 55.0646538,25.6762319 C53.4787154,25.6762319 52.3420731,24.3191301 52.3420731,22.5364648 C52.3420731,20.3546832 53.7560423,19.1308873 55.2363577,19.1308873 C56.3464615,19.1308873 56.9411885,19.702847 57.2317846,20.2350018 L57.2583231,20.2350018 L57.2978654,19.2639261 L58.3288846,19.2639261 C58.2893423,19.7164714 58.2758077,20.2486263 58.2758077,21.0198768 L58.2758077,24.7585853 Z" id="Fill-20" fill="#373435" sketchType="MSShapeGroup"></path>
              <path d="M60.1974577,22.4966333 C60.1974577,23.9068971 60.9904269,24.9712069 62.1270692,24.9712069 C63.2371731,24.9712069 64.0696846,23.9199873 64.0696846,22.4699187 C64.0696846,21.3791615 63.5280346,20.0089696 62.1533423,20.0089696 C60.7921846,20.0089696 60.1974577,21.2859275 60.1974577,22.4966333 M65.2588731,22.4301139 C65.2588731,24.8114535 63.6073846,25.8493158 62.0739923,25.8493158 C60.3561577,25.8493158 59.0082692,24.5723579 59.0082692,22.5364381 C59.0082692,20.3947284 60.4222385,19.1308606 62.1798808,19.1308606 C64.0171385,19.1308606 65.2588731,20.4746051 65.2588731,22.4301139" id="Fill-22" fill="#373435" sketchType="MSShapeGroup"></path>
              <mask id="mask-2" sketchName="Clip 25" fill="white">
                <use xlink:href="#path-1"></use>
              </mask>
              <g id="Clip-25"></g>
              <path d="M50.0852423,19.2638993 L51.2484231,19.2638993 L51.2484231,25.7026527 L50.0852423,25.7026527 L50.0852423,19.2638993 Z M51.3803192,17.4545194 C51.3803192,17.8536355 51.1027269,18.172875 50.6401615,18.172875 C50.2174038,18.172875 49.9400769,17.8536355 49.9400769,17.4545194 C49.9400769,17.0554032 50.2304077,16.7230736 50.6667,16.7230736 C51.0894577,16.7230736 51.3803192,17.0423131 51.3803192,17.4545194 L51.3803192,17.4545194 Z" id="Fill-24" fill="#373435" sketchType="MSShapeGroup" mask="url(#mask-2)"></path>
              <path d="M23.2631377,10.9023893 L23.2631377,5.26667688 L23.2628723,5.26667688 L23.2628723,5.41841582 L10.7863454,5.41841582 L5.28837231,5.41841582 L5.28837231,10.9528799 L5.28837231,19.2531066 L5.28837231,24.7875707 L10.7863454,24.7875707 L23.2628723,24.7875707 L23.2628723,24.9903345 L23.2631377,24.9903345 L23.2631377,19.3548893 L10.6560415,19.3548893 L10.6560415,10.9023893 L23.2631377,10.9023893 Z" id="Fill-26" fill="#FFCE2B" sketchType="MSShapeGroup" mask="url(#mask-2)"></path>
              <path d="M10.7862923,24.7874638 L5.28831923,24.7874638 L5.28831923,19.2529998 L5.28831923,10.9530402 L5.28831923,5.41830896 L10.7862923,5.41830896 L23.2628192,5.41830896 L23.2628192,5.26683717 L23.2628192,0.0190207965 L5.28831923,0.0190207965 L0,5.41830896 L0,24.7874638 L5.28831923,30.1875534 L23.2628192,30.1875534 L23.2628192,24.9904948 L23.2628192,24.7874638 L10.7862923,24.7874638 Z" id="Fill-27" fill="#F58635" sketchType="MSShapeGroup" mask="url(#mask-2)"></path>
            </g>
          </g>
        </g>
      </g>
    </symbol>
    <symbol version="1.1" xmlns="http://www.w3.org/2000/svg" xmlns:xlink="http://www.w3.org/1999/xlink" xmlnsSketch="http://www.bohemiancoding.com/sketch/ns" viewBox="0 0 129 38" id="logo-cdc-cinza">
      <title>logo-casadocodigo</title>
      <desc>Created with sketchtool.</desc>
      <defs></defs>
      <g id="Page-1" stroke="none" stroke-width="1" fill="none" fill-rule="evenodd" sketchType="MSPage">
        <g id="Desktop-HD" sketchType="MSArtboardGroup" transform="translate(-684.000000, -3989.000000)">
          <g id="Footer" sketchType="MSLayerGroup" transform="translate(0.000000, 3808.000000)">
            <g id="logo-casadocodigo" transform="translate(683.581325, 180.566960)" sketchType="MSShapeGroup">
              <path d="M7.35592169,7.25760612 L7.35592169,14.1264676 L7.35592169,24.4285941 L7.35592169,31.2974555 L14.2247831,31.2974555 L29.8124127,31.2974555 L29.8124127,24.5544856 L14.0623675,24.5544856 L14.0623675,14.0642989 L29.8124127,14.0642989 L29.8124127,7.25760612 L14.2247831,7.25760612 L7.35592169,7.25760612 Z" id="Shape" fill="#F5F7F8"></path>
              <path d="M7.35592169,0.556600093 L0.749334337,7.25760612 L0.749334337,31.2974555 L7.35592169,37.9992386 L29.8124127,37.9992386 L29.8124127,31.5484615 L29.8124127,31.2974555 L14.2247831,31.2974555 L7.35592169,31.2974555 L7.35592169,24.4285941 L7.35592169,14.1264676 L7.35592169,7.25760612 L14.2247831,7.25760612 L29.8124127,7.25760612 L29.8124127,7.06954588 L29.8124127,0.556600093 L7.35592169,0.556600093 Z" id="Shape" fill="#9898A6"></path>
              <path d="M80.6897018,17.9868434 C80.5179608,17.7059187 80.2910452,17.4821114 80.0097319,17.3150331 C79.7280301,17.1467892 79.3880452,17.0640271 78.9882229,17.0640271 C77.5202651,17.0535361 76.7851205,18.0909759 76.7851205,20.1755693 C76.7851205,20.5866596 76.8255301,20.9798765 76.9063494,21.3579398 C76.9875572,21.7371687 77.1134488,22.0658855 77.286744,22.3460331 C77.4596506,22.6281235 77.6865663,22.8550392 77.967491,23.0275572 C78.2488042,23.1996867 78.5887892,23.2863343 78.9882229,23.2863343 C80.4573464,23.2976024 81.1921024,22.2601627 81.1921024,20.1755693 C81.1921024,19.7535994 81.1516928,19.3549428 81.0708735,18.976491 C80.9892771,18.597262 80.8626084,18.2677681 80.6897018,17.9868434 L80.6897018,17.9868434 Z" id="Shape"></path>
              <path d="M71.6923404,17.1118193 C70.9478705,17.1118193 70.364262,17.3577741 69.9422922,17.8485181 C69.5210994,18.3404277 69.3108916,19.1260843 69.3108916,20.2058765 C69.3108916,20.6496054 69.3458614,21.0595301 69.4161898,21.4383705 C69.4861295,21.8168223 69.6023072,22.1408765 69.7643343,22.409756 C69.9259729,22.6805783 70.1392892,22.8938946 70.4038946,23.0500934 C70.6685,23.2059036 70.9898343,23.2847801 71.3682861,23.2847801 C71.919256,23.2847801 72.3563795,23.1425693 72.6804337,22.8558163 C73.004488,22.5690633 73.2247982,22.1342711 73.3444729,21.5514398 L73.3444729,17.533012 C73.1509729,17.3818645 72.9287199,17.2734578 72.6804337,17.2089578 C72.4321476,17.1444578 72.1034307,17.1118193 71.6923404,17.1118193 L71.6923404,17.1118193 Z" id="Shape"></path>
              <path d="M97.497003,16.9909789 C95.8277741,16.9909789 95.0984578,18.5459729 95.0984578,20.0205361 C95.0984578,21.7387229 96.0706205,23.0341627 97.4643645,23.0341627 C98.8258584,23.0341627 99.8465904,21.7538765 99.8465904,19.9878976 C99.8465904,18.6598193 99.1825512,16.9909789 97.497003,16.9909789 L97.497003,16.9909789 Z" id="Shape"></path>
              <path d="M47.5755572,19.786238 C47.0890873,19.786238 46.5979548,19.8052771 46.100994,19.8429669 C45.6040331,19.8806566 45.2504488,20.0403524 45.0394639,20.3205 C44.829256,20.6018133 44.7239578,20.8772982 44.7239578,21.1469548 C44.7239578,21.5254066 44.8591747,21.8350843 45.1292199,22.0787078 C45.398488,22.3215542 45.7446898,22.4431717 46.1666596,22.4431717 C46.4685663,22.4431717 46.7759127,22.402762 47.0894759,22.3219428 C47.4030392,22.2411235 47.6458855,22.1377681 47.8187922,22.0138193 C47.9916988,21.890259 48.1350753,21.7519337 48.2481446,21.6011747 C48.361991,21.4500271 48.4455301,21.3035422 48.4991506,21.1632741 L48.4991506,19.8177108 C48.348003,19.8083855 48.1941355,19.7994488 48.0375482,19.794009 C47.8805723,19.7893464 47.7267048,19.786238 47.5755572,19.786238 L47.5755572,19.786238 Z" id="Shape"></path>
              <path d="M61.1780633,19.786238 C60.6923705,19.786238 60.2004608,19.8052771 59.7042771,19.8429669 C59.2065392,19.8810452 58.8541205,20.0403524 58.6431355,20.3205 C58.4321506,20.6014247 58.3268524,20.8772982 58.3268524,21.1469548 C58.3268524,21.5254066 58.4620693,21.8350843 58.7328916,22.0787078 C59.0021596,22.3215542 59.3483614,22.4431717 59.7695542,22.4431717 C60.0714608,22.4431717 60.3795843,22.402762 60.6931476,22.3219428 C61.0070994,22.2411235 61.2499458,22.1377681 61.4224639,22.0138193 C61.5945934,21.890259 61.7379699,21.7519337 61.8514277,21.6011747 C61.9652741,21.4500271 62.0488133,21.3035422 62.1028223,21.1632741 L62.1028223,19.8177108 C61.9508976,19.8083855 61.7970301,19.7994488 61.6412199,19.794009 C61.4830783,19.7893464 61.329988,19.786238 61.1780633,19.786238 L61.1780633,19.786238 Z" id="Shape"></path>
              <path d="M105.598747,17.0395482 C104.124184,17.0395482 103.24916,18.3357651 103.24916,20.0531747 C103.24916,21.6408072 104.042976,22.9537319 105.566108,22.9537319 C106.52234,22.9537319 107.396587,22.3048464 107.656142,21.252253 C107.704711,21.0579759 107.720642,20.8629217 107.720642,20.6367831 L107.720642,19.2752892 C107.720642,19.0969428 107.704711,18.8540964 107.656142,18.67575 C107.445934,17.7847952 106.668048,17.0395482 105.598747,17.0395482 L105.598747,17.0395482 Z" id="Shape"></path>
              <path d="M125.342741,16.9909789 C123.673901,16.9909789 122.944584,18.5459729 122.944584,20.0205361 C122.944584,21.7387229 123.916747,23.0341627 125.310102,23.0341627 C126.671596,23.0341627 127.692328,21.7538765 127.692328,19.9878976 C127.69194,18.6598193 127.027123,16.9909789 125.342741,16.9909789 L125.342741,16.9909789 Z" id="Shape"></path>
              <path d="M117.088684,17.0224518 C115.727967,17.0224518 114.755804,18.1733494 114.755804,19.9878976 C114.755804,21.527738 115.54962,22.807247 117.072753,22.807247 C117.963708,22.807247 118.757524,22.2562771 119.049717,21.3493916 C119.130148,21.1065452 119.162786,20.8310602 119.162786,20.5874367 L119.162786,19.1781506 C119.162786,18.9353042 119.146855,18.7243193 119.081578,18.5459729 C118.822413,17.7035873 118.142054,17.0224518 117.088684,17.0224518 L117.088684,17.0224518 Z" id="Shape"></path>
              <path d="M41.701006,23.0753494 C41.3388735,23.172488 40.9153494,23.2210572 40.4296566,23.2210572 C39.8887892,23.2210572 39.3887199,23.1239187 38.9302259,22.9296416 C38.4709548,22.7345873 38.0719096,22.4431717 37.7311476,22.0546175 C37.3911627,21.6652861 37.1242259,21.1788163 36.9299488,20.5952078 C36.7348946,20.0131536 36.637756,19.3324066 36.637756,18.5545211 C36.637756,17.689988 36.7407229,16.9606717 36.9458795,16.3665723 C37.1506476,15.77325 37.4238012,15.2918313 37.7637861,14.9246476 C38.1045482,14.5574639 38.489994,14.2924699 38.9224548,14.1300542 C39.35375,13.9684157 39.7916506,13.8872078 40.2353795,13.8872078 C41.1962741,13.8872078 41.9368584,14.0103795 42.4544127,14.2598313 L43.1518675,13.1905301 C42.611,12.996253 42.1365753,12.8633675 41.7258735,12.7938163 C41.3147831,12.7230994 40.7863494,12.6885181 40.1374639,12.6885181 C39.5320964,12.6885181 38.9383855,12.795759 38.3555542,13.0125723 C37.7715572,13.228997 37.2454548,13.5713133 36.7756928,14.0410753 C36.3051536,14.5108373 35.9270904,15.1169819 35.6411145,15.8556235 C35.3551386,16.5962078 35.211762,17.4960994 35.211762,18.5541325 C35.211762,19.5686476 35.3415392,20.4467801 35.6010934,21.1865873 C35.8598705,21.926006 36.2111235,22.5344819 36.6544639,23.0089066 C37.0974157,23.4852741 37.6165241,23.8388584 38.2094578,24.0704367 C38.8035572,24.3020151 39.4415633,24.4185813 40.1223102,24.4185813 C40.6833825,24.4185813 41.2129819,24.370012 41.7107199,24.2728735 C42.2065151,24.1757349 42.7415542,23.9060783 43.3150602,23.4623494 L42.6176054,22.7011717 C42.3681536,22.854262 42.0631386,22.9782108 41.701006,23.0753494 L41.701006,23.0753494 Z" id="Shape" fill="#9898A6"></path>
              <path d="M92.1411717,22.7742199 C91.7786506,22.8713584 91.3559036,22.9207048 90.8694337,22.9207048 C90.3281777,22.9207048 89.8288855,22.8235663 89.3711687,22.6292892 C88.9107319,22.4342349 88.5120753,22.1428193 88.1720904,21.753488 C87.8313283,21.3649337 87.5643916,20.8784639 87.3701145,20.2948554 C87.1758373,19.7120241 87.0786988,19.0312771 87.0786988,18.2533916 C87.0786988,17.389247 87.1805,16.6599307 87.3860452,16.0658313 C87.5908133,15.4721205 87.8639669,14.9910904 88.2039518,14.6231295 C88.5439367,14.2571114 88.9297711,13.9909518 89.3622319,13.8293133 C89.7939157,13.6668976 90.2310392,13.5864669 90.6751566,13.5864669 C91.6364398,13.5864669 92.3758584,13.7100271 92.8949669,13.9590904 L93.5916446,12.889012 C93.0511657,12.6947349 92.5759639,12.5626265 92.1656506,12.4926867 C91.7549488,12.4215813 91.2261265,12.3873886 90.5780181,12.3873886 C89.972262,12.3873886 89.3789398,12.4950181 88.7953313,12.7114428 C88.2117229,12.928256 87.6856205,13.2701837 87.2146928,13.7403343 C86.7457078,14.2100964 86.3668675,14.8150753 86.0808916,15.5548825 C85.7953042,16.2946898 85.6519277,17.1949699 85.6519277,18.2522259 C85.6519277,19.2675181 85.7817048,20.1456506 86.041259,20.8854578 C86.3008133,21.6252651 86.6512892,22.2333524 87.0938524,22.7081657 C87.5371928,23.1841446 88.0555241,23.5377289 88.6496235,23.7693072 C89.2437229,24.0008855 89.8813404,24.1174518 90.5620873,24.1174518 C91.1235482,24.1174518 91.6539247,24.0688825 92.150497,23.9709669 C92.6466807,23.8738283 93.1817199,23.6037831 93.7548373,23.1612199 L93.0573825,22.4000422 C92.8083193,22.5531325 92.5033042,22.6770813 92.1411717,22.7742199 L92.1411717,22.7742199 Z" id="Shape" fill="#9898A6"></path>
              <path d="M49.9336928,23.2937169 C49.7879849,22.9210934 49.7145482,22.5348705 49.7145482,22.1350482 C49.7145482,21.5840783 49.731256,21.001247 49.7631175,20.385 C49.7965331,19.7695301 49.8116867,19.1373524 49.8116867,18.489244 C49.8116867,18.1978283 49.7821566,17.9064127 49.7227078,17.6142199 C49.6636476,17.3228042 49.5443614,17.0554789 49.3660151,16.8126325 C49.1884458,16.5697861 48.9288916,16.372012 48.5889066,16.2216416 C48.2481446,16.070494 47.7974217,15.9947259 47.2359608,15.9947259 C46.6418614,15.9947259 46.0718524,16.0537861 45.5263223,16.1722952 C44.9811807,16.2915813 44.5024819,16.4749789 44.0925572,16.7232651 L44.4978193,17.6962048 C44.6489669,17.6095572 44.8242048,17.5314578 45.0239217,17.4615181 C45.2236386,17.3915783 45.435012,17.331741 45.6560994,17.2831717 C45.8775753,17.2346024 46.0932229,17.1961355 46.3045964,17.1701024 C46.5144157,17.1429036 46.7121898,17.1296928 46.8955873,17.1296928 C47.5223253,17.1296928 47.9543976,17.2482018 48.1918042,17.4856084 C48.4292108,17.7237922 48.548497,18.1391566 48.548497,18.733256 C48.548497,18.9928102 48.5325663,19.2842259 48.4999277,19.6082801 C48.3487801,19.5869096 48.2003524,19.5764187 48.0546446,19.5764187 L47.6085843,19.5764187 C46.8633373,19.5764187 46.1561687,19.6168283 45.4866898,19.6976476 C44.8164337,19.7788554 44.2973253,20.0726024 43.9309187,20.5800542 C43.5637349,21.0890602 43.3799488,21.5801928 43.3799488,22.0553946 C43.3799488,22.4113102 43.4413404,22.7299247 43.5660663,23.0108494 C43.6907922,23.2921627 43.8609789,23.5326777 44.0766265,23.7323946 C44.2922741,23.9328886 44.549497,24.0859789 44.8455753,24.193997 C45.1435964,24.3016265 45.4645422,24.3564127 45.8099669,24.3564127 C46.1553916,24.3564127 46.5012048,24.3175572 46.8466295,24.2425663 C47.1928313,24.1679639 47.4675392,24.0723795 47.6730843,23.9593102 C47.8778524,23.8454639 48.0538675,23.7156867 48.1995753,23.5699789 C48.3452831,23.4242711 48.4669006,23.2762319 48.5640392,23.1246958 L48.6444699,23.1246958 C48.8713855,23.8804337 49.1523102,24.258497 49.4868554,24.258497 L50.6373645,24.258497 C50.3144759,23.9884518 50.0794006,23.6663404 49.9336928,23.2937169 L49.9336928,23.2937169 L49.9336928,23.2937169 Z M48.4991506,21.9407711 C48.4451416,22.0810392 48.3616024,22.2275241 48.2481446,22.3786717 C48.1350753,22.5302078 47.9916988,22.667756 47.8187922,22.7913163 C47.6458855,22.9152651 47.4030392,23.0182319 47.0894759,23.0994398 C46.7759127,23.1806476 46.4685663,23.2206687 46.1666596,23.2206687 C45.7446898,23.2206687 45.398488,23.0994398 45.1292199,22.8562048 C44.8591747,22.6125813 44.7239578,22.3021265 44.7239578,21.9244518 C44.7239578,21.6547952 44.829256,21.3793102 45.0394639,21.097997 C45.2504488,20.8170723 45.6040331,20.6577651 46.100994,20.6204639 C46.5979548,20.5823855 47.0890873,20.5637349 47.5755572,20.5637349 C47.7267048,20.5637349 47.8805723,20.5668434 48.0375482,20.5718946 C48.1933584,20.5773343 48.348003,20.585494 48.4991506,20.5955964 L48.4991506,21.9407711 L48.4991506,21.9407711 L48.4991506,21.9407711 Z" id="Shape" fill="#9898A6"></path>
              <path d="M55.3944337,20.0609458 C55.1076807,19.8666687 54.7948946,19.7108584 54.4541325,19.5911837 C54.1141476,19.4726747 53.8005843,19.3506687 53.5146084,19.2267199 C53.2286325,19.1023825 52.9881175,18.9613373 52.7938404,18.8055271 C52.5995633,18.6493283 52.5016476,18.4294066 52.5016476,18.149259 C52.5016476,17.7494367 52.6131627,17.468512 52.8338614,17.3060964 C53.0553373,17.1444578 53.4038705,17.06325 53.8782952,17.06325 C54.2781175,17.06325 54.6538494,17.109488 55.0043253,17.2011867 C55.3555783,17.292497 55.6555422,17.3985723 55.9038283,17.5166928 L56.2111747,16.4473916 C55.919759,16.3071235 55.5766657,16.1847289 55.1830602,16.0825392 C54.7882892,15.9799608 54.2998765,15.9286717 53.7162681,15.9286717 C52.9282801,15.9286717 52.3120331,16.1101265 51.8690813,16.4714819 C51.425741,16.834003 51.2042651,17.4024578 51.2042651,18.1803434 C51.2042651,18.6563223 51.3014036,19.033997 51.4964578,19.3149217 C51.6907349,19.5958464 51.9304729,19.8247048 52.2172259,20.0038283 C52.5028133,20.1821747 52.8167651,20.3278825 53.15675,20.4409518 C53.497512,20.5547982 53.8110753,20.6733072 54.0970512,20.7968675 C54.3830271,20.9215934 54.6231536,21.0754608 54.8174307,21.2584699 C55.0117078,21.442256 55.1088464,21.6963705 55.1088464,22.0204247 C55.1088464,22.4967922 54.9576988,22.8247319 54.6550151,23.0085181 C54.353497,23.1926928 53.9688283,23.284003 53.504506,23.284003 C53.0938042,23.284003 52.6893193,23.2253313 52.289497,23.1056566 C51.8900633,22.9871476 51.566009,22.8573705 51.3173343,22.7171024 L50.928003,23.8190422 C51.2201958,23.9814578 51.5819398,24.1217259 52.014012,24.2402349 C52.4456958,24.3599096 52.970244,24.4185813 53.5857139,24.4185813 C54.0613042,24.4185813 54.4743373,24.3568012 54.8255904,24.2324639 C55.1760663,24.1089036 55.4705904,23.9387169 55.707997,23.7226807 C55.9454036,23.5066446 56.1214187,23.2474789 56.234488,22.9447952 C56.3483343,22.6425 56.4046747,22.3184458 56.4046747,21.9726325 C56.4046747,21.4861627 56.3075361,21.0945 56.113259,20.7976446 C55.9213133,20.5011777 55.6807982,20.2552229 55.3944337,20.0609458 L55.3944337,20.0609458 Z" id="Shape" fill="#9898A6"></path>
              <path d="M63.5358102,23.2937169 C63.3908795,22.9210934 63.3174428,22.5348705 63.3174428,22.1350482 C63.3174428,21.5840783 63.3333735,21.001247 63.366012,20.385 C63.3986506,19.7695301 63.4145813,19.1373524 63.4145813,18.489244 C63.4145813,18.1978283 63.3854398,17.9064127 63.3256024,17.6142199 C63.2657651,17.3228042 63.147256,17.0554789 62.9689096,16.8126325 C62.7905633,16.5697861 62.5317861,16.372012 62.1910241,16.2216416 C61.850262,16.0712711 61.3995392,15.9947259 60.8380783,15.9947259 C60.2443675,15.9947259 59.6739699,16.0537861 59.1296054,16.1722952 C58.5840753,16.2915813 58.1053765,16.4749789 57.6954518,16.7232651 L58.0999367,17.6962048 C58.2518614,17.6095572 58.4270994,17.5314578 58.6272048,17.4615181 C58.8261446,17.3911898 59.0379066,17.331741 59.2586054,17.2831717 C59.4796928,17.2346024 59.696506,17.1961355 59.9067139,17.1701024 C60.1176988,17.1429036 60.3150843,17.1296928 60.4980934,17.1296928 C61.1240542,17.1296928 61.5572922,17.2482018 61.7943102,17.4856084 C62.0317169,17.7237922 62.151003,18.1391566 62.151003,18.733256 C62.151003,18.9928102 62.1342952,19.2842259 62.1024337,19.6082801 C61.950509,19.5869096 61.8028584,19.5764187 61.6571506,19.5764187 L61.2110904,19.5764187 C60.4658434,19.5764187 59.7582861,19.6168283 59.0884187,19.6976476 C58.4181627,19.7788554 57.8998313,20.0726024 57.5326476,20.5800542 C57.1654639,21.0890602 56.9816777,21.5801928 56.9816777,22.0553946 C56.9816777,22.4113102 57.0438464,22.7299247 57.1681837,23.0108494 C57.2913554,23.2921627 57.4627078,23.5326777 57.6779669,23.7323946 C57.8943916,23.9328886 58.1508373,24.0859789 58.4480813,24.193997 C58.7449367,24.3016265 59.0658825,24.3564127 59.4113072,24.3564127 C59.7567319,24.3564127 60.1025452,24.3175572 60.448747,24.2425663 C60.7945602,24.1679639 61.0700452,24.0723795 61.2752018,23.9593102 C61.4799699,23.8454639 61.6559849,23.7156867 61.8016928,23.5699789 C61.9466235,23.4242711 62.0690181,23.2762319 62.1661566,23.1246958 L62.2473645,23.1246958 C62.4742801,23.8804337 62.7555934,24.258497 63.08975,24.258497 L64.240259,24.258497 C63.9169819,23.9884518 63.6822952,23.6663404 63.5358102,23.2937169 L63.5358102,23.2937169 L63.5358102,23.2937169 Z M62.1024337,21.9407711 C62.0476476,22.0810392 61.9648855,22.2275241 61.8510392,22.3786717 C61.7379699,22.5302078 61.5945934,22.667756 61.4220753,22.7913163 C61.2495572,22.9152651 61.0067108,23.0182319 60.692759,23.0994398 C60.3791958,23.1806476 60.0710723,23.2206687 59.7691657,23.2206687 C59.3479729,23.2206687 59.0017711,23.0994398 58.732503,22.8562048 C58.4616807,22.6125813 58.3264639,22.3021265 58.3264639,21.9244518 C58.3264639,21.6547952 58.431762,21.3793102 58.642747,21.097997 C58.8537319,20.8170723 59.2061506,20.6577651 59.7038886,20.6204639 C60.2000723,20.581997 60.6919819,20.5637349 61.1776747,20.5637349 C61.329988,20.5637349 61.4826898,20.5668434 61.6396657,20.5718946 C61.7954759,20.5773343 61.9501205,20.585494 62.1012681,20.5955964 L62.1012681,21.9411596 L62.1024337,21.9411596 L62.1024337,21.9407711 L62.1024337,21.9407711 Z" id="Shape" fill="#9898A6"></path>
              <path d="M74.6410783,21.4391476 L74.6410783,12.8824066 L73.3448614,12.8824066 L73.3448614,16.2527259 C73.0748163,16.1563645 72.8234217,16.0856476 72.5918434,16.0425181 C72.3587108,15.9993886 72.0432048,15.977241 71.6437711,15.977241 C70.4994789,15.977241 69.5995873,16.3370422 68.9460392,17.0543133 C68.2917139,17.7735271 67.966494,18.8245663 67.966494,20.2058765 C67.966494,21.6544066 68.2283795,22.7178795 68.751762,23.3986265 C69.2763102,24.0793735 70.077509,24.4193584 71.1580783,24.4193584 C71.7090482,24.4193584 72.1889127,24.2954096 72.600003,24.0467349 C73.0107048,23.7984488 73.323491,23.4856627 73.5395271,23.1064337 L73.6048042,23.1064337 L73.9288584,24.2569428 L74.8038825,24.2569428 C74.7168464,23.8264247 74.6675,23.3854157 74.6581747,22.9370241 C74.6465181,22.4894096 74.6410783,21.9893404 74.6410783,21.4391476 L74.6410783,21.4391476 L74.6410783,21.4391476 Z M73.34525,21.5522169 C73.2255753,22.1350482 73.0052651,22.5698404 72.6812108,22.8565934 C72.3571566,23.1425693 71.9200331,23.2855572 71.3690633,23.2855572 C70.9898343,23.2855572 70.6688886,23.2078464 70.4046717,23.0508705 C70.1404548,22.8938946 69.9271386,22.6813554 69.7651114,22.4105331 C69.6026958,22.1416536 69.4861295,21.8175994 69.4169669,21.4391476 C69.34625,21.0603072 69.3116687,20.6503825 69.3116687,20.2066536 C69.3116687,19.1268614 69.5218765,18.3404277 69.9430693,17.8492952 C70.3650392,17.3577741 70.9486476,17.1125964 71.6931175,17.1125964 C72.1045964,17.1125964 72.4333133,17.1452349 72.681988,17.2097349 C72.9302741,17.2742349 73.1525271,17.3826416 73.3460271,17.5337892 L73.3460271,21.5526054 L73.34525,21.5526054 L73.34525,21.5522169 L73.34525,21.5522169 Z" id="Shape" fill="#9898A6"></path>
              <path d="M81.6777952,17.0881175 C81.3863795,16.715494 81.0164759,16.4295181 80.5688614,16.2286355 C80.1204699,16.0289187 79.5935904,15.9290602 78.989,15.9290602 C77.8450964,15.9290602 76.9665753,16.2935241 76.3561566,17.0232289 C75.7461265,17.7525452 75.4411114,18.8024187 75.4411114,20.1744036 C75.4411114,20.8124096 75.5114398,21.391744 75.6513193,21.9159036 C75.7915873,22.4400633 76.008012,22.8880663 76.3002048,23.2606898 C76.5923976,23.6340904 76.9619127,23.9192892 77.4095271,24.1197831 C77.8575301,24.3195 78.3847982,24.4193584 78.989,24.4193584 C80.1340693,24.4193584 81.0114247,24.0548946 81.6214548,23.3263554 C82.232262,22.5970392 82.5380542,21.5467771 82.5380542,20.1747922 C82.5380542,19.5371747 82.4669488,18.9566747 82.3270693,18.4329036 C82.185247,17.908744 81.969988,17.460741 81.6777952,17.0881175 L81.6777952,17.0881175 L81.6777952,17.0881175 Z M78.9882229,23.2855572 C78.5887892,23.2855572 78.2488042,23.1989096 77.967491,23.0267801 C77.6865663,22.854262 77.4596506,22.6273464 77.286744,22.345256 C77.1142259,22.0651084 76.9875572,21.7363916 76.9063494,21.3571627 C76.8251416,20.9790994 76.7851205,20.5858825 76.7851205,20.1747922 C76.7851205,18.0901988 77.5202651,17.052759 78.9882229,17.06325 C79.3880452,17.06325 79.7280301,17.1467892 80.0097319,17.314256 C80.2910452,17.4821114 80.5179608,17.7059187 80.6897018,17.9860663 C80.8626084,18.266991 80.9892771,18.5960964 81.0704849,18.9749367 C81.1509157,19.353 81.1917139,19.7520452 81.1917139,20.1740151 C81.1921024,22.2593855 80.4573464,23.2968253 78.9882229,23.2855572 L78.9882229,23.2855572 L78.9882229,23.2855572 Z" id="Shape" fill="#9898A6"></path>
              <path d="M99.6029669,12.6966777 L98.0312651,12.6966777 L96.6223675,15.0136265 L97.6267801,15.0136265 L99.6029669,12.6966777 Z" id="Shape" fill="#9898A6"></path>
              <path d="M97.5296416,15.9212892 C95.3739428,15.9212892 93.6406024,17.460741 93.6406024,20.0691054 C93.6406024,22.5484699 95.2927349,24.1034639 97.3998645,24.1034639 C99.2789127,24.1034639 101.304446,22.8398855 101.304446,19.9393283 C101.304446,17.5578795 99.7813133,15.9212892 97.5296416,15.9212892 L97.5296416,15.9212892 L97.5296416,15.9212892 Z M97.4643645,23.0333855 C96.0706205,23.0333855 95.0984578,21.7379458 95.0984578,20.019759 C95.0984578,18.5451958 95.8277741,16.9898133 97.497003,16.9898133 C99.1825512,16.9898133 99.8465904,18.6590422 99.8465904,19.9871205 C99.8465904,21.7538765 98.8258584,23.0333855 97.4643645,23.0333855 L97.4643645,23.0333855 L97.4643645,23.0333855 Z" id="Shape" fill="#9898A6"></path>
              <path d="M109.130705,12.4211928 L107.720642,12.4211928 L107.720642,17.1040482 L107.68878,17.1040482 C107.332087,16.4881898 106.538271,15.9212892 105.323262,15.9212892 C103.427506,15.9212892 101.790527,17.5093102 101.807235,20.1176747 C101.807235,22.4999006 103.281798,24.1034639 105.176777,24.1034639 C106.457063,24.1034639 107.396587,23.4394247 107.81778,22.5644006 L107.867127,22.5644006 L107.931627,23.9258946 L109.195205,23.9258946 C109.163343,23.3908554 109.130705,22.5970392 109.130705,21.9003614 L109.130705,12.4211928 L109.130705,12.4211928 L109.130705,12.4211928 Z M107.720642,20.6367831 C107.720642,20.8629217 107.704711,21.0579759 107.656142,21.252253 C107.396587,22.3048464 106.52234,22.9537319 105.566108,22.9537319 C104.042976,22.9537319 103.24916,21.6408072 103.24916,20.0531747 C103.24916,18.3357651 104.124184,17.0395482 105.598747,17.0395482 C106.668048,17.0395482 107.445934,17.7847952 107.656142,18.67575 C107.704711,18.8540964 107.720642,19.0969428 107.720642,19.2752892 L107.720642,20.6367831 L107.720642,20.6367831 L107.720642,20.6367831 Z" id="Shape" fill="#9898A6"></path>
              <path d="M119.340744,17.2664639 L119.308105,17.2664639 C118.95219,16.6171898 118.222873,15.9212892 116.86138,15.9212892 C115.046831,15.9212892 113.313102,17.4121717 113.313102,20.0691054 C113.313102,22.2403464 114.706846,23.893256 116.651172,23.893256 C117.866181,23.893256 118.725274,23.3096476 119.146467,22.5803313 L119.178328,22.5803313 L119.178328,23.4394247 C119.178328,25.4319307 118.109027,26.1931084 116.651172,26.1931084 C115.679009,26.1931084 114.868485,25.9016928 114.350154,25.5617078 L113.993072,26.6636476 C114.625639,27.0848404 115.662301,27.311756 116.602602,27.311756 C117.590696,27.311756 118.692636,27.0681325 119.470521,26.3722319 C120.215768,25.6747771 120.588392,24.5895452 120.588392,22.7753855 L120.588392,18.2219187 C120.588392,17.2823946 120.604322,16.6338976 120.652892,16.0829277 L119.389313,16.0829277 L119.340744,17.2664639 L119.340744,17.2664639 L119.340744,17.2664639 Z M119.162398,20.5874367 C119.162398,20.8310602 119.129759,21.1065452 119.049328,21.3493916 C118.757136,22.2562771 117.963319,22.807247 117.072364,22.807247 C115.549232,22.807247 114.755416,21.527738 114.755416,19.9878976 C114.755416,18.1733494 115.727578,17.0224518 117.088295,17.0224518 C118.141666,17.0224518 118.822413,17.7035873 119.08119,18.5459729 C119.146467,18.7243193 119.162398,18.9353042 119.162398,19.1781506 L119.162398,20.5874367 L119.162398,20.5874367 L119.162398,20.5874367 Z" id="Shape" fill="#9898A6"></path>
              <path d="M125.37538,15.9212892 C123.220069,15.9212892 121.486729,17.460741 121.486729,20.0691054 C121.486729,22.5484699 123.138861,24.1034639 125.245602,24.1034639 C127.124651,24.1034639 129.150184,22.8398855 129.150184,19.9393283 C129.149795,17.5578795 127.626663,15.9212892 125.37538,15.9212892 L125.37538,15.9212892 L125.37538,15.9212892 Z M125.310102,23.0333855 C123.916747,23.0333855 122.944584,21.7379458 122.944584,20.019759 C122.944584,18.5451958 123.673901,16.9898133 125.342741,16.9898133 C127.027512,16.9898133 127.692328,18.6590422 127.692328,19.9871205 C127.69194,21.7538765 126.671208,23.0333855 125.310102,23.0333855 L125.310102,23.0333855 L125.310102,23.0333855 Z" id="Shape" fill="#9898A6"></path>
              <path d="M111.259593,12.9880934 C110.725331,12.9880934 110.368639,13.3933554 110.368639,13.8790482 C110.368639,14.3655181 110.708623,14.7540723 111.226955,14.7540723 C111.794633,14.7540723 112.134617,14.3655181 112.134617,13.8790482 C112.134617,13.3774247 111.777925,12.9880934 111.259593,12.9880934 L111.259593,12.9880934 Z" id="Shape" fill="#9898A6"></path>
              <rect id="Rectangle-path" fill="#9898A6" x="110.546208" y="16.0829277" width="1.42599398" height="7.84296687"></rect>
            </g>
          </g>
        </g>
      </g>
    </symbol>
    <symbol version="1.1" xmlns="http://www.w3.org/2000/svg" xmlns:xlink="http://www.w3.org/1999/xlink" xmlnsSketch="http://www.bohemiancoding.com/sketch/ns" viewBox="0 0 131 35" id="logo-galandra-cinza">
      <title>logo-galandra</title>
      <desc>Created with sketchtool.</desc>
      <defs></defs>
      <g id="Page-1" stroke="none" stroke-width="1" fill="none" fill-rule="evenodd" sketchType="MSPage">
        <g id="Desktop-HD" sketchType="MSArtboardGroup" transform="translate(-532.000000, -3993.000000)" fill="#9898A6">
          <g id="Footer" sketchType="MSLayerGroup" transform="translate(0.000000, 3808.000000)">
            <g id="caelum-logo-logo" transform="translate(132.000000, 140.000000)" sketchType="MSShapeGroup">
              <path d="M528.8,59.9 C528.3,59.9 528,60.5 528,60.5 C526.3,63.7 524.5,65.9 523.3,65.9 C523,65.9 522.7,65.6 522.7,65.3 C522.7,62.4 525.1,56.7 525.1,55.4 C525.1,54.5 523,54.1 521.7,54.1 C521.7,54.1 519.8,52.1 517,52.1 C513.7,52.1 510.2,58.1 509.4,62.7 C508.2,64.6 507.1,65.8 506.1,65.8 C506,65.8 505.8,65.7 505.8,65.3 C505.8,63.3 507.8,57.1 507.8,55.9 C507.8,54.4 503.3,53.8 503.3,53.2 C503.3,52.3 503.8,51.7 503.8,50.9 C503.8,50.1 501.6,48.7 500.6,48.7 C499.2,48.7 497.9,51.5 497.9,52.7 C497.9,53.9 499.6,55.1 499.6,55.1 C499.6,55.1 498.4,58 497.2,60.3 C497.1,60.4 497.1,60.5 497.1,60.5 C495.3,63.7 493.6,65.8 492.3,65.8 C492.1,65.8 491.7,65.3 491.7,65.2 C491.7,63.7 493.2,58.6 494.3,54.9 C495.8,49.7 496.2,48.4 496.2,47.6 C496.2,47 493.5,45.4 492.5,45.4 C491.9,45.4 491.7,45.6 491.5,46.1 C491,47.8 489.5,52.9 489.5,52.9 C489.5,52.9 487.9,51.9 486.3,51.9 C483.2,51.9 480.2,56.6 478.9,61 C477.2,64 475.5,65.9 474.4,65.9 C474.2,65.9 474.1,65.7 474.1,65.5 C474.1,63.6 476.3,56.8 476.3,55.1 C476.3,53.8 474,52.2 472.6,52.2 C470.6,52.2 467.3,53.9 467.3,53.9 C467.3,53.9 465.7,52.2 464.9,52.2 C464.4,52.2 463.7,52.4 463.4,52.9 C463,54.3 462,58.2 461.1,61.6 C459.6,64.2 458.1,65.9 457,65.9 C456.7,65.9 456.4,65.6 456.4,65.3 C456.4,62.4 458.8,56.7 458.8,55.4 C458.8,54.5 456.7,54.1 455.4,54.1 C455.4,54.1 453.5,52.1 450.7,52.1 C447.2,52.1 443.5,58.8 442.9,63.5 C441.9,64.9 440.9,65.8 440.1,65.8 C439.9,65.8 439.5,65.6 439.5,65.4 C439.5,63.7 443.7,49.7 444,48.6 C444.1,48.3 444.1,48 444.1,47.7 C444.1,47.1 441.2,45.3 440.4,45.3 C439.9,45.3 439.5,45.5 439.3,46 C438.5,48.4 436.3,55.9 435.1,60.9 C433.5,63.8 431.8,65.8 430.7,65.8 C430.4,65.8 430.1,65.5 430.1,65.2 C430.1,62.3 432.5,56.6 432.5,55.3 C432.5,54.4 430.4,54 429.1,54 C429.1,54 427.2,52 424.4,52 C421.2,52 417.8,57.7 416.8,62.2 C415.8,63.6 414.6,64.5 413.1,65.6 C414.6,60.4 415.7,55.9 415.7,55.3 C415.7,54.4 413.7,53.9 412.3,53.9 C412.3,53.9 410.4,52 407.6,52 C404.2,52.2 400,59.9 400,64.6 C400,66.5 403,68.9 405,68.9 C406.4,68.9 408,67.4 408,67.4 C408,67.4 407.8,68.1 407.2,69.6 C404.8,71.2 403.4,72 402,73.1 C400.9,73.9 400.5,74.8 400.5,76.1 C400.5,77.3 403,79.6 405.2,79.6 C406.6,79.6 408.7,79.1 409.4,77.9 C410.1,76.7 411.3,72.9 412.5,68.9 C414.1,67.9 415.7,67 417.1,65.6 C417.9,67.3 420.4,68.9 421.8,68.9 C423.7,68.9 425.8,66.8 425.8,66.8 C426.3,67.8 429,68.9 430.6,68.9 C432.1,68.9 433.4,67.9 434.6,66.3 C435.3,67.7 438.3,68.9 440,68.9 C441.4,68.9 442.7,67.9 443.9,66.5 C445,67.8 447,68.9 448.1,68.9 C450,68.9 452.1,66.8 452.1,66.8 C452.6,67.8 455.3,68.9 456.9,68.9 C458.1,68.9 459.2,68.2 460.2,67.1 C460.3,68 462.8,68.9 463.6,68.9 C464.2,68.9 464.8,68.5 465,68.1 C465.2,67.1 466.8,59.9 467.8,57.5 C468.3,56.4 469.7,55.8 470.4,55.8 C470.8,55.8 471.1,56.2 471.1,56.5 C471.1,57.9 469.1,63.6 469.1,65.8 C469.1,67.4 472.7,68.9 474.3,68.9 C475.9,68.9 477.4,67.6 478.7,65.8 C479.4,67.2 481.7,68.9 483.5,68.9 C485.1,68.9 487.7,66.7 487.7,66.7 C488.2,67.4 490.7,68.9 492.3,68.9 C494.8,68.9 496.9,65.8 498.8,62.3 C499,62.1 499.1,61.8 499.1,61.8 C500.8,58.6 501.8,56.2 501.8,56.2 C501.8,56.2 502.6,56.4 502.6,56.6 C502.6,58.4 500.8,63.2 500.8,65.9 C500.8,67.3 504,68.9 505.9,68.9 C507.4,68.9 508.7,67.8 510,66.2 C511,67.7 513.2,68.9 514.4,68.9 C516.3,68.9 518.4,66.8 518.4,66.8 C518.9,67.8 521.6,68.9 523.2,68.9 C525.8,68.9 527.9,65.7 529.8,62.1 C529.8,62.1 530.3,61.3 530.3,60.9 C530,60.4 529.3,59.9 528.8,59.9 L528.8,59.9 Z M405.1,75.6 C404.8,76 404.3,76.3 403.9,76.3 C403.7,76.3 403.3,76 403.3,75.8 C403.3,75.2 403.8,74.4 406.2,72.8 C405.7,74.4 405.3,75.3 405.1,75.6 L405.1,75.6 Z M408.6,62.9 C407.6,64.9 406.6,65.6 406,65.6 C405.6,65.6 405.3,65.2 405.3,64.8 C405.3,61.7 407.7,55.7 409.2,55.7 C409.8,55.7 410.4,56.1 410.4,56.3 C410.4,57.3 409.3,61.4 408.6,62.9 L408.6,62.9 Z M425.3,62.9 C424.3,65 422.9,65.6 422.5,65.6 C422.2,65.6 421.8,65.2 421.8,64.8 C421.8,61.7 424.7,55.7 425.9,55.7 C426.5,55.7 427.2,56.1 427.2,56.6 C427.2,57.6 426,61.4 425.3,62.9 L425.3,62.9 Z M451.5,62.9 C450.5,65 449.1,65.6 448.7,65.6 C448.4,65.6 448,65.2 448,64.8 C448,61.7 450.9,55.7 452.1,55.7 C452.7,55.7 453.4,56.1 453.4,56.6 C453.4,57.6 452.3,61.4 451.5,62.9 L451.5,62.9 Z M486.7,62.6 C486.3,63.8 484.8,65.5 484,65.5 C483.8,65.5 483.4,65.1 483.4,64.4 C483.4,61.8 486,55.5 487.4,55.5 C488,55.5 488.7,56.1 488.7,56.1 C488.1,58.5 487.5,60.3 486.7,62.6 L486.7,62.6 Z M517.7,62.9 C516.7,65 515.3,65.6 514.9,65.6 C514.6,65.6 514.2,65.2 514.2,64.8 C514.2,61.7 517.1,55.7 518.3,55.7 C518.9,55.7 519.6,56.1 519.6,56.6 C519.6,57.6 518.4,61.4 517.7,62.9 L517.7,62.9 Z" id="logo-galandra"></path>
            </g>
          </g>
        </g>
      </g>
    </symbol>
    <symbol version="1.1" xmlns="http://www.w3.org/2000/svg" xmlns:xlink="http://www.w3.org/1999/xlink" xmlnsSketch="http://www.bohemiancoding.com/sketch/ns" viewBox="0 0 65 28" id="logo-guj">
      <title>GUJ Logo</title>
      <desc>Created with sketchtool.</desc>
      <defs></defs>
      <g id="Page-1" stroke="none" stroke-width="1" fill="none" fill-rule="evenodd" sketchType="MSPage">
        <g id="Desktop-HD" sketchType="MSArtboardGroup" transform="translate(-1245.000000, -4851.000000)">
          <g id="Group" sketchType="MSLayerGroup" transform="translate(0.000000, 4840.000000)">
            <g id="GUJ-Logo" transform="translate(1245.000000, 11.000000)" sketchType="MSShapeGroup">
              <path d="M33.3405825,8.46552144 C33.7480947,8.04184942 34.3368811,7.82977583 35.1066262,7.83040936 C35.589551,7.83072612 35.9781311,7.89930556 36.272682,8.0358309 C36.5669175,8.17251462 36.8005704,8.34721004 36.9741141,8.55944201 C37.1470267,8.77167398 37.2677184,9.01051413 37.3354005,9.27548733 C37.4033981,9.54077729 37.4445752,9.80955166 37.4597209,10.0822856 C37.4742354,10.4308845 37.6249029,10.6733674 37.9118811,10.8100512 C38.1980704,10.9467349 38.5377427,11.0151559 38.9305825,11.0154727 C39.4133495,11.0159479 39.7795267,10.9253533 40.0287985,10.7433723 C40.2775971,10.5618665 40.4027063,10.1833333 40.4031796,9.60745614 C40.4036529,8.92530458 40.2681311,8.31569201 39.9969296,7.77750975 C39.7257282,7.23964425 39.3485073,6.78065302 38.8657403,6.40148635 C38.3831311,6.02247807 37.8134345,5.73406433 37.1572816,5.53656189 C36.5008131,5.33905945 35.7801335,5.23991228 34.9955583,5.23927875 C34.2709345,5.23880361 33.5953762,5.33304094 32.9687257,5.52183236 C32.3425485,5.71078216 31.7913107,6.00964912 31.3156432,6.41843324 C30.8396602,6.82721735 30.466068,7.36080653 30.1936044,8.01999269 C29.9214563,8.67854532 29.7851456,9.48550195 29.7843568,10.4400707 L29.7797816,16.7812135 C29.7789927,17.7354654 29.914199,18.5422636 30.1852427,19.2016082 C30.4567597,19.8611111 30.8295631,20.3954922 31.304915,20.8049098 C31.7799515,21.2140107 32.3378155,21.5143031 32.9796117,21.7037281 C33.6206189,21.8936282 34.3184223,21.9889742 35.0731796,21.9894493 C35.8127913,21.9900828 36.5074393,21.8960039 37.1564927,21.7070541 C37.8053883,21.5185794 38.3717718,21.2192373 38.8550121,20.81077 C39.3382524,20.4019859 39.7164199,19.8682383 39.988568,19.2092105 C40.2605583,18.5503411 40.3971845,17.7437013 40.3979733,16.7894493 L40.4000243,14.0849172 C40.400182,13.8272295 40.320983,13.6037524 40.1627427,13.4140107 C40.0043447,13.2245858 39.7738471,13.1295565 39.4723544,13.1293981 L35.6234709,13.1263889 C35.3216626,13.1262305 35.0946359,13.2475512 34.9441262,13.489559 C34.7928277,13.7317251 34.7172573,13.9973319 34.7172573,14.2849537 C34.7169417,14.5882554 34.7921966,14.8568713 34.9430218,15.0917519 C35.093216,15.3269493 35.320085,15.4444688 35.6218932,15.4446272 L37.4559345,15.4460526 L37.4549879,16.787232 C37.454199,17.6814571 37.2420024,18.3404849 36.8195024,18.7638402 C36.3962136,19.1879873 35.815,19.3994274 35.0753883,19.3989522 C34.3207888,19.3983187 33.7398908,19.1859284 33.3330097,18.761306 C32.9256553,18.3371589 32.7226092,17.6778143 32.7233981,16.7837476 L32.7279733,10.4426048 C32.7286044,9.54869639 32.9325971,8.88951023 33.3405825,8.46552144" id="Fill-1" fill="#35495E"></path>
              <path d="M52.2902913,5.46069688 C51.9809102,5.31672758 51.6453398,5.2441886 51.2831068,5.24387183 C50.9054126,5.24355507 50.5660558,5.31561891 50.2642476,5.45911306 C49.9618083,5.60324074 49.810983,5.83368665 49.8106675,6.1520346 L49.8027791,16.7889742 C49.8019903,17.6831993 49.5825364,18.3420687 49.1448908,18.7655824 C48.7067718,19.1897295 48.0951092,19.4011696 47.310534,19.4005361 C46.5254854,19.3999025 45.9142961,19.1875122 45.4772816,18.7628899 C45.0396359,18.3385843 44.8214442,17.6793981 44.822233,16.7853314 L44.8301214,6.14823343 C44.8304369,5.83004386 44.6756675,5.59928119 44.3664442,5.45467836 C44.0573786,5.31070906 43.7214927,5.23817008 43.3591019,5.23785331 C42.9818811,5.23769493 42.642051,5.30960039 42.3405583,5.45325292 C42.0382767,5.59722222 41.8872937,5.82766813 41.8869782,6.1458577 L41.8790898,16.7829557 C41.878301,17.7372076 42.0169782,18.5441642 42.296068,19.2033504 C42.575,19.8630117 42.9591626,20.3973928 43.4495024,20.8068104 C43.9395267,21.2159113 44.5133252,21.5160453 45.1694782,21.7056287 C45.8257888,21.8955288 46.5387379,21.9908748 47.3087985,21.9915083 C48.0632403,21.9921418 48.7727184,21.8979045 49.4369175,21.7089547 C50.1011165,21.52048 50.6788592,21.2211379 51.1695146,20.8128289 C51.6601699,20.4040448 52.0455947,19.8702973 52.3253155,19.2111111 C52.6048786,18.5524001 52.7452913,17.7454435 52.7459223,16.7913499 L52.7539684,6.15441033 C52.754284,5.835904 52.5996723,5.60529971 52.2902913,5.46069688" id="Fill-3" fill="#35495E"></path>
              <path d="M64.3924393,5.44533382 C64.083216,5.3015229 63.7474879,5.22898392 63.3854126,5.22866715 C63.0077184,5.22850877 62.6680461,5.30041423 62.3665534,5.44375 C62.0641141,5.58787768 61.9134466,5.81848197 61.9131311,6.13667154 L61.9120267,7.59061891 L61.9113956,7.59061891 L61.905085,16.7973684 C61.9044539,17.6917519 61.6962015,18.3506213 61.2809587,18.7742934 C60.8655583,19.1984405 60.2729854,19.4098806 59.5030825,19.4092471 C59.050449,19.4089303 58.6730704,19.3368665 58.3712621,19.1927388 C58.0691383,19.0484527 57.831699,18.8588694 57.6586286,18.6235136 C57.485085,18.3889498 57.3647087,18.1273026 57.2968689,17.8395224 C57.2293447,17.5517422 57.1878519,17.2634868 57.1730218,16.975865 C57.1428883,16.6120614 56.98875,16.3657773 56.7095024,16.2366959 C56.4300971,16.1079313 56.0946845,16.043153 55.702318,16.0428363 C55.2040898,16.0423611 54.834284,16.1369152 54.5929005,16.325865 C54.3508859,16.5154483 54.2300364,16.897941 54.2295631,17.4735015 C54.2290898,18.185904 54.3642961,18.8183236 54.6358131,19.3713938 C54.9068568,19.9250975 55.2801335,20.3985015 55.7551699,20.7928728 C56.2302063,21.1874025 56.7995874,21.4865863 57.4637864,21.6918494 C58.1276699,21.8971126 58.8519782,21.9997442 59.6370267,22.0003777 C60.3461893,22.0008528 61.0178034,21.9064571 61.6518689,21.7178241 C62.2860922,21.5290327 62.8409587,21.2300073 63.316784,20.8212232 C63.7926092,20.4125975 64.1663592,19.8788499 64.4385073,19.2198221 C64.7106553,18.5609527 64.8474393,17.7543129 64.8480704,16.7997442 L64.8532767,9.95621345 L64.8550121,7.59299464 L64.8561165,6.13904727 C64.8567476,5.82101608 64.7018204,5.59009503 64.3924393,5.44533382" id="Fill-5" fill="#35495E"></path>
              <path d="M13.4163471,0.146028265 C20.8260316,0.146028265 26.8326942,6.17610867 26.8326942,13.6146808 C26.8326942,21.0532529 20.8260316,27.0833333 13.4163471,27.0833333 C6.00666262,27.0833333 0,21.0532529 0,13.6146808 C0,6.17610867 6.00666262,0.146028265 13.4163471,0.146028265" id="Fill-8" fill="#35495E"></path>
              <path d="M10.9618083,6.84321394 C10.9618083,6.84321394 10.7742233,6.99668616 10.7739078,7.38614766 C10.7735922,7.77560916 10.9614927,7.92908138 10.9614927,7.92908138 C10.9614927,7.92908138 11.0949636,8.0526194 11.1771602,8.28338207 C11.2853883,8.58636696 11.2505218,8.93496589 11.073665,9.3190424 C10.4181432,10.7417885 11.0900728,11.643616 11.5368689,11.9217349 C11.6310558,11.9804946 11.7356553,12.0085283 11.8389927,12.0086866 C12.031784,12.008845 12.22,11.9117568 12.3288592,11.7351608 C12.4964078,11.4640107 12.4131068,11.1081262 12.1430097,10.9399245 C12.1389078,10.937232 11.727767,10.6510356 12.1180825,9.80400828 C12.6070024,8.74284844 12.3422694,7.88505117 12.0025971,7.38678119 C12.3427427,6.88866959 12.6081068,6.03166423 12.1212379,4.970346 C11.7323422,4.12268519 12.1436408,3.83712232 12.1479005,3.83442982 C12.4184709,3.66701998 12.5020874,3.3109771 12.3351699,3.03951023 C12.2264684,2.86291423 12.0382524,2.76550926 11.8454612,2.76535088 C11.7421238,2.7651925 11.6373665,2.79322612 11.5431796,2.85151072 C11.0957524,3.1289961 10.4224029,4.02987329 11.0760316,5.45356969 C11.2522573,5.83796296 11.2868083,6.18640351 11.1781068,6.4893884 C11.0952791,6.71999269 10.9618083,6.84321394 10.9618083,6.84321394" id="Fill-10" fill="#3B97D3"></path>
              <path d="M14.6840049,10.941825 C14.4135922,11.1095517 14.3299757,11.4652778 14.4968932,11.7367446 C14.6054369,11.913499 14.7938107,12.010904 14.9866019,12.010904 C15.0899393,12.0110624 15.1945388,11.9831871 15.2888835,11.9247442 C15.7361529,11.6472588 16.4095024,10.74654 15.7560316,9.32268519 C15.5796481,8.93829191 15.5452549,8.58969298 15.6539563,8.28686647 C15.7366262,8.05626218 15.8700971,7.93304094 15.8700971,7.93304094 C15.8700971,7.93304094 16.0584709,7.7797271 16.0587864,7.39026559 C16.0591019,7.00096248 15.8713592,6.84733187 15.8713592,6.84733187 C15.8713592,6.84733187 15.7378883,6.72379386 15.6556917,6.49303119 C15.5474636,6.18988791 15.5824879,5.84144737 15.7593447,5.45737086 C16.4148665,4.03478314 15.7430947,3.13279727 15.2961408,2.85467836 C15.2017961,2.796077 15.0971966,2.76804337 14.9938592,2.76804337 C14.8012257,2.76788499 14.6130097,2.8649732 14.5039927,3.04141082 C14.3364442,3.31240253 14.4197451,3.6686038 14.6898422,3.83664717 C14.6941019,3.83933967 15.105085,4.12553606 14.7147694,4.97256335 C14.226165,6.03324805 14.4904248,6.89057018 14.8297816,7.38915692 C14.4894782,7.88711014 14.2233252,8.74443226 14.7106675,9.80622563 C15.0998786,10.6535697 14.6882646,10.9389742 14.6840049,10.941825" id="Fill-12" fill="#3B97D3"></path>
              <path d="M5.08688107,17.089425 C4.64308252,17.0891082 4.28337379,16.7276803 4.28368932,16.2818348 C4.28400485,15.836306 4.64418689,15.4751949 5.0881432,15.4755117 L5.56964806,15.4759868 L5.56964806,15.5507432 L5.5723301,15.5507432 C5.57911408,16.078789 5.64458738,16.5936891 5.76165049,17.0900585 L5.08688107,17.089425 Z M8.40487864,13.6172149 L5.57091019,13.6151559 L5.10817961,13.6146808 C3.6261165,13.6135721 2.42377427,14.819018 2.4226699,16.3068592 C2.42156553,17.7947003 3.6223301,19.00173 5.10423544,19.0026803 L6.51798544,19.003789 C7.84354369,21.3228192 10.427767,22.9066399 13.4092476,22.9384747 C17.7147087,22.8988791 21.1980461,19.6221126 21.2573665,15.5626218 L21.2600485,15.5626218 L21.2616262,13.6267178 L13.4161893,13.6211745 L8.40487864,13.6172149 Z" id="Fill-14" fill="#FFFFFF"></path>
            </g>
          </g>
        </g>
      </g>
    </symbol>
  </defs>
</svg>